Mont_SC_170922_Bold_Italic.ufo
<glyph name="exclam" format="1">
  <advance width="276"/>
  <unicode hex="0021"/>
  <outline>
    <contour>
      <point x="227" y="233" type="line"/>
      <point x="341" y="582" type="line"/>
      <point x="78" y="582" type="line"/>
      <point x="51" y="233" type="line"/>
    </contour>
    <contour>
      <point x="238" y="112" type="curve" smooth="yes"/>
      <point x="238" y="168"/>
      <point x="190" y="212"/>
      <point x="119" y="212" type="curve" smooth="yes"/>
      <point x="43" y="212"/>
      <point x="-15" y="162"/>
      <point x="-15" y="93" type="curve" smooth="yes"/>
      <point x="-15" y="36"/>
      <point x="34" y="-9"/>
      <point x="105" y="-9" type="curve" smooth="yes"/>
      <point x="181" y="-9"/>
      <point x="238" y="44"/>
    </contour>
  </outline>
</glyph>
<glyph name="numbersign" format="1">
  <advance width="634"/>
  <unicode hex="0023"/>
  <outline>
    <contour>
      <point x="424" y="0" type="line"/>
      <point x="612" y="582" type="line"/>
      <point x="454" y="582" type="line"/>
      <point x="265" y="0" type="line"/>
    </contour>
    <contour>
      <point x="571" y="105" type="line"/>
      <point x="600" y="246" type="line"/>
      <point x="11" y="246" type="line"/>
      <point x="-18" y="105" type="line"/>
    </contour>
    <contour>
      <point x="205" y="0" type="line"/>
      <point x="393" y="582" type="line"/>
      <point x="235" y="582" type="line"/>
      <point x="46" y="0" type="line"/>
    </contour>
    <contour>
      <point x="648" y="336" type="line"/>
      <point x="677" y="477" type="line"/>
      <point x="88" y="477" type="line"/>
      <point x="59" y="336" type="line"/>
    </contour>
  </outline>
</glyph>
<glyph name="dollar" format="1">
  <advance width="565"/>
  <unicode hex="0024"/>
  <outline>
    <contour>
      <point x="295" y="-100" type="line"/>
      <point x="455" y="681" type="line"/>
      <point x="318" y="681" type="line"/>
      <point x="159" y="-100" type="line"/>
    </contour>
    <contour>
      <point x="552" y="210" type="curve" smooth="yes"/>
      <point x="552" y="390"/>
      <point x="276" y="355"/>
      <point x="276" y="404" type="curve" smooth="yes"/>
      <point x="276" y="413"/>
      <point x="295" y="427"/>
      <point x="344" y="427" type="curve" smooth="yes"/>
      <point x="401" y="427"/>
      <point x="459" y="414"/>
      <point x="507" y="385" type="curve"/>
      <point x="589" y="546" type="line"/>
      <point x="532" y="578"/>
      <point x="451" y="597"/>
      <point x="359" y="597" type="curve" smooth="yes"/>
      <point x="161" y="597"/>
      <point x="46" y="506"/>
      <point x="46" y="370" type="curve" smooth="yes"/>
      <point x="46" y="189"/>
      <point x="321" y="219"/>
      <point x="321" y="172" type="curve" smooth="yes"/>
      <point x="321" y="162"/>
      <point x="304" y="155"/>
      <point x="264" y="155" type="curve" smooth="yes"/>
      <point x="200" y="155"/>
      <point x="134" y="169"/>
      <point x="62" y="205" type="curve"/>
      <point x="-25" y="43" type="line"/>
      <point x="35" y="9"/>
      <point x="131" y="-15"/>
      <point x="240" y="-15" type="curve" smooth="yes"/>
      <point x="435" y="-15"/>
      <point x="552" y="77"/>
    </contour>
  </outline>
</glyph>
<glyph name="percent" format="1">
  <advance width="792"/>
  <unicode hex="0025"/>
  <outline>
    <contour>
      <point x="238" y="0" type="line"/>
      <point x="752" y="582" type="line"/>
      <point x="578" y="582" type="line"/>
      <point x="65" y="0" type="line"/>
    </contour>
    <contour>
      <point x="372" y="452" type="curve" smooth="yes"/>
      <point x="372" y="541"/>
      <point x="312" y="591"/>
      <point x="229" y="591" type="curve" smooth="yes"/>
      <point x="117" y="591"/>
      <point x="51" y="513"/>
      <point x="51" y="404" type="curve" smooth="yes"/>
      <point x="51" y="314"/>
      <point x="111" y="265"/>
      <point x="194" y="265" type="curve" smooth="yes"/>
      <point x="307" y="265"/>
      <point x="372" y="342"/>
    </contour>
    <contour>
      <point x="186" y="409" type="curve" smooth="yes"/>
      <point x="186" y="442"/>
      <point x="188" y="490"/>
      <point x="217" y="490" type="curve" smooth="yes"/>
      <point x="226" y="490"/>
      <point x="237" y="482"/>
      <point x="237" y="447" type="curve" smooth="yes"/>
      <point x="237" y="414"/>
      <point x="235" y="366"/>
      <point x="206" y="366" type="curve" smooth="yes"/>
      <point x="197" y="366"/>
      <point x="186" y="374"/>
    </contour>
    <contour>
      <point x="765" y="178" type="curve" smooth="yes"/>
      <point x="765" y="267"/>
      <point x="706" y="317"/>
      <point x="623" y="317" type="curve" smooth="yes"/>
      <point x="511" y="317"/>
      <point x="445" y="239"/>
      <point x="445" y="130" type="curve" smooth="yes"/>
      <point x="445" y="40"/>
      <point x="505" y="-9"/>
      <point x="587" y="-9" type="curve" smooth="yes"/>
      <point x="701" y="-9"/>
      <point x="765" y="68"/>
    </contour>
    <contour>
      <point x="580" y="135" type="curve" smooth="yes"/>
      <point x="580" y="168"/>
      <point x="581" y="216"/>
      <point x="610" y="216" type="curve" smooth="yes"/>
      <point x="620" y="216"/>
      <point x="631" y="208"/>
      <point x="631" y="173" type="curve" smooth="yes"/>
      <point x="631" y="140"/>
      <point x="629" y="92"/>
      <point x="600" y="92" type="curve" smooth="yes"/>
      <point x="591" y="92"/>
      <point x="580" y="100"/>
    </contour>
  </outline>
</glyph>
<glyph name="ampersand" format="1">
  <advance width="677"/>
  <unicode hex="0026"/>
  <outline>
    <contour>
      <point x="668" y="287" type="curve"/>
      <point x="502" y="338" type="line"/>
      <point x="456" y="217"/>
      <point x="359" y="143"/>
      <point x="284" y="143" type="curve" smooth="yes"/>
      <point x="241" y="143"/>
      <point x="224" y="162"/>
      <point x="224" y="182" type="curve" smooth="yes"/>
      <point x="224" y="221"/>
      <point x="277" y="243"/>
      <point x="322" y="255" type="curve" smooth="yes"/>
      <point x="445" y="293"/>
      <point x="554" y="349"/>
      <point x="554" y="455" type="curve" smooth="yes"/>
      <point x="554" y="546"/>
      <point x="471" y="593"/>
      <point x="361" y="593" type="curve" smooth="yes"/>
      <point x="237" y="593"/>
      <point x="124" y="525"/>
      <point x="124" y="405" type="curve" smooth="yes"/>
      <point x="124" y="361"/>
      <point x="141" y="320"/>
      <point x="177" y="286" type="curve" smooth="yes"/>
      <point x="482" y="-11" type="line"/>
      <point x="627" y="118" type="line"/>
      <point x="366" y="367" type="line" smooth="yes"/>
      <point x="331" y="400"/>
      <point x="321" y="412"/>
      <point x="321" y="426" type="curve" smooth="yes"/>
      <point x="321" y="444"/>
      <point x="335" y="456"/>
      <point x="352" y="456" type="curve" smooth="yes"/>
      <point x="363" y="456"/>
      <point x="374" y="449"/>
      <point x="374" y="437" type="curve" smooth="yes"/>
      <point x="374" y="420"/>
      <point x="360" y="399"/>
      <point x="255" y="368" type="curve" smooth="yes"/>
      <point x="128" y="329"/>
      <point x="8" y="266"/>
      <point x="8" y="146" type="curve" smooth="yes"/>
      <point x="8" y="45"/>
      <point x="113" y="-15"/>
      <point x="245" y="-15" type="curve" smooth="yes"/>
      <point x="436" y="-15"/>
      <point x="592" y="114"/>
    </contour>
  </outline>
</glyph>
<glyph name="parenleft" format="1">
  <advance width="332"/>
  <unicode hex="0028"/>
  <outline>
    <contour>
      <point x="275" y="-161" type="line"/>
      <point x="246" y="-77"/>
      <point x="231" y="6"/>
      <point x="231" y="90" type="curve" smooth="yes"/>
      <point x="231" y="277"/>
      <point x="290" y="432"/>
      <point x="433" y="617" type="curve"/>
      <point x="216" y="617" type="line"/>
      <point x="86" y="477"/>
      <point x="18" y="296"/>
      <point x="18" y="101" type="curve" smooth="yes"/>
      <point x="18" y="-3"/>
      <point x="44" y="-110"/>
      <point x="73" y="-161" type="curve"/>
    </contour>
  </outline>
</glyph>
<glyph name="parenright" format="1">
  <advance width="332"/>
  <unicode hex="0029"/>
  <outline>
    <contour>
      <point x="83" y="-277" type="line"/>
      <point x="228" y="-106"/>
      <point x="308" y="119"/>
      <point x="308" y="354" type="curve" smooth="yes"/>
      <point x="308" y="498"/>
      <point x="293" y="651"/>
      <point x="279" y="732" type="curve"/>
      <point x="71" y="732" type="line"/>
      <point x="86" y="617"/>
      <point x="89" y="491"/>
      <point x="89" y="366" type="curve" smooth="yes"/>
      <point x="89" y="138"/>
      <point x="19" y="-62"/>
      <point x="-139" y="-277" type="curve"/>
    </contour>
  </outline>
</glyph>
<glyph name="asterisk" format="1">
  <advance width="416"/>
  <unicode hex="002A"/>
  <outline>
    <contour>
      <point x="415" y="579" type="line"/>
      <point x="314" y="524" type="line"/>
      <point x="328" y="515" type="line"/>
      <point x="351" y="617" type="line"/>
      <point x="222" y="617" type="line"/>
      <point x="204" y="515" type="line"/>
      <point x="222" y="524" type="line"/>
      <point x="136" y="583" type="line"/>
      <point x="57" y="475" type="line"/>
      <point x="149" y="423" type="line"/>
      <point x="154" y="453" type="line"/>
      <point x="33" y="396" type="line"/>
      <point x="85" y="294" type="line"/>
      <point x="186" y="350" type="line"/>
      <point x="172" y="360" type="line"/>
      <point x="148" y="258" type="line"/>
      <point x="278" y="258" type="line"/>
      <point x="295" y="360" type="line"/>
      <point x="280" y="352" type="line"/>
      <point x="366" y="292" type="line"/>
      <point x="444" y="400" type="line"/>
      <point x="353" y="453" type="line"/>
      <point x="347" y="420" type="line"/>
      <point x="467" y="476" type="line"/>
    </contour>
  </outline>
</glyph>
<glyph name="plus" format="1">
  <advance width="533"/>
  <unicode hex="002B"/>
  <outline>
    <contour>
      <point x="323" y="82" type="line"/>
      <point x="409" y="500" type="line"/>
      <point x="234" y="500" type="line"/>
      <point x="149" y="82" type="line"/>
    </contour>
    <contour>
      <point x="485" y="211" type="line"/>
      <point x="518" y="371" type="line"/>
      <point x="72" y="371" type="line"/>
      <point x="40" y="211" type="line"/>
    </contour>
  </outline>
</glyph>
<glyph name="hyphen" format="1">
  <advance width="331"/>
  <unicode hex="002D"/>
  <outline>
    <contour>
      <point x="282" y="163" type="line"/>
      <point x="315" y="323" type="line"/>
      <point x="55" y="323" type="line"/>
      <point x="22" y="163" type="line"/>
    </contour>
  </outline>
</glyph>
<glyph name="period" format="1">
  <advance width="274"/>
  <unicode hex="002E"/>
  <outline>
    <contour>
      <point x="240" y="120" type="curve" smooth="yes"/>
      <point x="240" y="186"/>
      <point x="193" y="231"/>
      <point x="122" y="231" type="curve" smooth="yes"/>
      <point x="46" y="231"/>
      <point x="-14" y="180"/>
      <point x="-14" y="101" type="curve" smooth="yes"/>
      <point x="-14" y="37"/>
      <point x="34" y="-9"/>
      <point x="104" y="-9" type="curve" smooth="yes"/>
      <point x="178" y="-9"/>
      <point x="240" y="42"/>
    </contour>
  </outline>
</glyph>
<glyph name="slash" format="1">
  <advance width="392"/>
  <unicode hex="002F"/>
  <outline>
    <contour>
      <point x="100" y="-83" type="line"/>
      <point x="532" y="700" type="line"/>
      <point x="332" y="700" type="line"/>
      <point x="-101" y="-83" type="line"/>
    </contour>
  </outline>
</glyph>
<glyph name="zero" format="1">
  <advance width="583"/>
  <unicode hex="0030"/>
  <outline>
    <contour>
      <point x="582" y="365" type="curve" smooth="yes"/>
      <point x="582" y="513"/>
      <point x="488" y="597"/>
      <point x="347" y="597" type="curve" smooth="yes"/>
      <point x="164" y="597"/>
      <point x="26" y="440"/>
      <point x="26" y="216" type="curve" smooth="yes"/>
      <point x="26" y="69"/>
      <point x="120" y="-15"/>
      <point x="261" y="-15" type="curve" smooth="yes"/>
      <point x="444" y="-15"/>
      <point x="582" y="142"/>
    </contour>
    <contour>
      <point x="252" y="222" type="curve" smooth="yes"/>
      <point x="252" y="285"/>
      <point x="272" y="419"/>
      <point x="325" y="419" type="curve" smooth="yes"/>
      <point x="341" y="419"/>
      <point x="355" y="408"/>
      <point x="355" y="360" type="curve" smooth="yes"/>
      <point x="355" y="297"/>
      <point x="335" y="163"/>
      <point x="283" y="163" type="curve" smooth="yes"/>
      <point x="267" y="163"/>
      <point x="252" y="174"/>
    </contour>
  </outline>
</glyph>
<glyph name="two" format="1">
  <advance width="522"/>
  <unicode hex="0032"/>
  <outline>
    <contour>
      <point x="462" y="0" type="line"/>
      <point x="498" y="172" type="line"/>
      <point x="204" y="172" type="line"/>
      <point x="230" y="95" type="line"/>
      <point x="395" y="222" type="line" smooth="yes"/>
      <point x="495" y="299"/>
      <point x="532" y="353"/>
      <point x="532" y="429" type="curve" smooth="yes"/>
      <point x="532" y="527"/>
      <point x="430" y="597"/>
      <point x="297" y="597" type="curve" smooth="yes"/>
      <point x="177" y="597"/>
      <point x="78" y="541"/>
      <point x="34" y="459" type="curve"/>
      <point x="182" y="368" type="line"/>
      <point x="205" y="402"/>
      <point x="232" y="421"/>
      <point x="261" y="421" type="curve" smooth="yes"/>
      <point x="282" y="421"/>
      <point x="299" y="409"/>
      <point x="299" y="390" type="curve" smooth="yes"/>
      <point x="299" y="367"/>
      <point x="287" y="352"/>
      <point x="246" y="321" type="curve" smooth="yes"/>
      <point x="3" y="137" type="line"/>
      <point x="-25" y="0" type="line"/>
    </contour>
  </outline>
</glyph>
<glyph name="three" format="1">
  <advance width="525"/>
  <unicode hex="0033"/>
  <outline>
    <contour>
      <point x="502" y="208" type="curve" smooth="yes"/>
      <point x="502" y="303"/>
      <point x="421" y="365"/>
      <point x="300" y="365" type="curve" smooth="yes"/>
      <point x="250" y="365" type="line"/>
      <point x="353" y="307" type="line"/>
      <point x="519" y="445" type="line"/>
      <point x="547" y="582" type="line"/>
      <point x="95" y="582" type="line"/>
      <point x="60" y="414" type="line"/>
      <point x="344" y="414" type="line"/>
      <point x="335" y="489" type="line"/>
      <point x="169" y="351" type="line"/>
      <point x="141" y="214" type="line"/>
      <point x="233" y="214" type="line" smooth="yes"/>
      <point x="261" y="214"/>
      <point x="274" y="207"/>
      <point x="274" y="193" type="curve" smooth="yes"/>
      <point x="274" y="170"/>
      <point x="251" y="160"/>
      <point x="208" y="160" type="curve" smooth="yes"/>
      <point x="166" y="160"/>
      <point x="112" y="171"/>
      <point x="62" y="197" type="curve"/>
      <point x="-37" y="43" type="line"/>
      <point x="30" y="2"/>
      <point x="111" y="-15"/>
      <point x="193" y="-15" type="curve" smooth="yes"/>
      <point x="368" y="-15"/>
      <point x="502" y="80"/>
    </contour>
  </outline>
</glyph>
<glyph name="four" format="1">
  <advance width="612"/>
  <unicode hex="0034"/>
  <outline>
    <contour>
      <point x="581" y="89" type="line"/>
      <point x="617" y="261" type="line"/>
      <point x="163" y="261" type="line"/>
      <point x="270" y="230" type="line"/>
      <point x="561" y="582" type="line"/>
      <point x="318" y="582" type="line"/>
      <point x="16" y="230" type="line"/>
      <point x="-13" y="89" type="line"/>
    </contour>
    <contour>
      <point x="494" y="0" type="line"/>
      <point x="563" y="341" type="line"/>
      <point x="351" y="341" type="line"/>
      <point x="335" y="261" type="line"/>
      <point x="288" y="89" type="line"/>
      <point x="270" y="0" type="line"/>
    </contour>
  </outline>
</glyph>
<glyph name="five" format="1">
  <advance width="530"/>
  <unicode hex="0035"/>
  <outline>
    <contour>
      <point x="511" y="217" type="curve" smooth="yes"/>
      <point x="511" y="329"/>
      <point x="429" y="383"/>
      <point x="292" y="383" type="curve" smooth="yes"/>
      <point x="169" y="383" type="line"/>
      <point x="265" y="288" type="line"/>
      <point x="325" y="510" type="line"/>
      <point x="190" y="414" type="line"/>
      <point x="514" y="414" type="line"/>
      <point x="549" y="582" type="line"/>
      <point x="144" y="582" type="line"/>
      <point x="40" y="216" type="line"/>
      <point x="230" y="216" type="line" smooth="yes"/>
      <point x="271" y="216"/>
      <point x="283" y="207"/>
      <point x="283" y="191" type="curve" smooth="yes"/>
      <point x="283" y="171"/>
      <point x="261" y="160"/>
      <point x="218" y="160" type="curve" smooth="yes"/>
      <point x="176" y="160"/>
      <point x="121" y="171"/>
      <point x="72" y="197" type="curve"/>
      <point x="-28" y="43" type="line"/>
      <point x="40" y="2"/>
      <point x="120" y="-15"/>
      <point x="202" y="-15" type="curve" smooth="yes"/>
      <point x="377" y="-15"/>
      <point x="511" y="71"/>
    </contour>
  </outline>
</glyph>
<glyph name="six" format="1">
  <advance width="561"/>
  <unicode hex="0036"/>
  <outline>
    <contour>
      <point x="548" y="213" type="curve" smooth="yes"/>
      <point x="548" y="324"/>
      <point x="455" y="382"/>
      <point x="366" y="382" type="curve" smooth="yes"/>
      <point x="294" y="382"/>
      <point x="252" y="353"/>
      <point x="211" y="297" type="curve"/>
      <point x="258" y="268" type="line"/>
      <point x="259" y="286"/>
      <point x="260" y="302"/>
      <point x="264" y="319" type="curve" smooth="yes"/>
      <point x="284" y="390"/>
      <point x="327" y="424"/>
      <point x="400" y="424" type="curve" smooth="yes"/>
      <point x="440" y="424"/>
      <point x="473" y="417"/>
      <point x="504" y="396" type="curve"/>
      <point x="604" y="548" type="line"/>
      <point x="564" y="579"/>
      <point x="489" y="597"/>
      <point x="413" y="597" type="curve" smooth="yes"/>
      <point x="143" y="597"/>
      <point x="23" y="394"/>
      <point x="23" y="224" type="curve" smooth="yes"/>
      <point x="23" y="66"/>
      <point x="132" y="-15"/>
      <point x="283" y="-15" type="curve" smooth="yes"/>
      <point x="437" y="-15"/>
      <point x="548" y="74"/>
    </contour>
    <contour>
      <point x="245" y="179" type="curve" smooth="yes"/>
      <point x="245" y="210"/>
      <point x="265" y="229"/>
      <point x="290" y="229" type="curve" smooth="yes"/>
      <point x="314" y="229"/>
      <point x="327" y="214"/>
      <point x="327" y="190" type="curve" smooth="yes"/>
      <point x="327" y="158"/>
      <point x="303" y="138"/>
      <point x="280" y="138" type="curve" smooth="yes"/>
      <point x="258" y="138"/>
      <point x="245" y="153"/>
    </contour>
  </outline>
</glyph>
<glyph name="seven" format="1">
  <advance width="556"/>
  <unicode hex="0037"/>
  <outline>
    <contour>
      <point x="313" y="0" type="line"/>
      <point x="582" y="445" type="line"/>
      <point x="610" y="582" type="line"/>
      <point x="87" y="582" type="line"/>
      <point x="35" y="329" type="line"/>
      <point x="225" y="329" type="line"/>
      <point x="262" y="511" type="line"/>
      <point x="151" y="409" type="line"/>
      <point x="413" y="409" type="line"/>
      <point x="365" y="503" type="line"/>
      <point x="54" y="0" type="line"/>
    </contour>
  </outline>
</glyph>
<glyph name="less" format="1">
  <advance width="533"/>
  <unicode hex="003C"/>
  <outline>
    <contour>
      <point x="74" y="374" type="line"/>
      <point x="39" y="207" type="line"/>
      <point x="452" y="52" type="line"/>
      <point x="483" y="203" type="line"/>
      <point x="125" y="329" type="line"/>
      <point x="106" y="236" type="line"/>
      <point x="516" y="362" type="line"/>
      <point x="551" y="530" type="line"/>
    </contour>
  </outline>
</glyph>
<glyph name="equal" format="1">
  <advance width="533"/>
  <unicode hex="003D"/>
  <outline>
    <contour>
      <point x="507" y="321" type="line"/>
      <point x="540" y="481" type="line"/>
      <point x="95" y="481" type="line"/>
      <point x="62" y="321" type="line"/>
    </contour>
    <contour>
      <point x="462" y="100" type="line"/>
      <point x="495" y="260" type="line"/>
      <point x="50" y="260" type="line"/>
      <point x="17" y="100" type="line"/>
    </contour>
  </outline>
</glyph>
<glyph name="greater" format="1">
  <advance width="533"/>
  <unicode hex="003E"/>
  <outline>
    <contour>
      <point x="484" y="207" type="line"/>
      <point x="519" y="374" type="line"/>
      <point x="105" y="530" type="line"/>
      <point x="74" y="379" type="line"/>
      <point x="432" y="253" type="line"/>
      <point x="452" y="346" type="line"/>
      <point x="41" y="220" type="line"/>
      <point x="7" y="52" type="line"/>
    </contour>
  </outline>
</glyph>
<glyph name="question" format="1">
  <advance width="520"/>
  <unicode hex="003F"/>
  <outline>
    <contour>
      <point x="370" y="233" type="line"/>
      <point x="379" y="289"/>
      <point x="537" y="317"/>
      <point x="537" y="447" type="curve" smooth="yes"/>
      <point x="537" y="537"/>
      <point x="451" y="597"/>
      <point x="320" y="597" type="curve" smooth="yes"/>
      <point x="193" y="597"/>
      <point x="88" y="538"/>
      <point x="38" y="456" type="curve"/>
      <point x="182" y="368" type="line"/>
      <point x="202" y="403"/>
      <point x="236" y="424"/>
      <point x="267" y="424" type="curve" smooth="yes"/>
      <point x="291" y="424"/>
      <point x="302" y="415"/>
      <point x="302" y="401" type="curve" smooth="yes"/>
      <point x="302" y="352"/>
      <point x="190" y="329"/>
      <point x="170" y="233" type="curve"/>
    </contour>
    <contour>
      <point x="370" y="112" type="curve" smooth="yes"/>
      <point x="370" y="168"/>
      <point x="321" y="212"/>
      <point x="250" y="212" type="curve" smooth="yes"/>
      <point x="174" y="212"/>
      <point x="117" y="162"/>
      <point x="117" y="93" type="curve" smooth="yes"/>
      <point x="117" y="36"/>
      <point x="165" y="-9"/>
      <point x="236" y="-9" type="curve" smooth="yes"/>
      <point x="312" y="-9"/>
      <point x="370" y="44"/>
    </contour>
  </outline>
</glyph>
<glyph name="at" format="1">
  <advance width="878"/>
  <unicode hex="0040"/>
  <outline>
    <contour>
      <point x="588" y="-143" type="curve"/>
      <point x="557" y="-30" type="line"/>
      <point x="501" y="-50"/>
      <point x="450" y="-57"/>
      <point x="402" y="-57" type="curve" smooth="yes"/>
      <point x="256" y="-57"/>
      <point x="165" y="31"/>
      <point x="165" y="169" type="curve" smooth="yes"/>
      <point x="165" y="350"/>
      <point x="295" y="476"/>
      <point x="483" y="476" type="curve" smooth="yes"/>
      <point x="645" y="476"/>
      <point x="725" y="405"/>
      <point x="725" y="277" type="curve" smooth="yes"/>
      <point x="725" y="233"/>
      <point x="717" y="130"/>
      <point x="671" y="130" type="curve" smooth="yes"/>
      <point x="646" y="130"/>
      <point x="644" y="150"/>
      <point x="650" y="172" type="curve" smooth="yes"/>
      <point x="695" y="393" type="line"/>
      <point x="508" y="393" type="line"/>
      <point x="503" y="364" type="line"/>
      <point x="476" y="203" type="line"/>
      <point x="471" y="167" type="line"/>
      <point x="469" y="158" type="line" smooth="yes"/>
      <point x="446" y="52"/>
      <point x="494" y="-8"/>
      <point x="617" y="-8" type="curve" smooth="yes"/>
      <point x="772" y="-8"/>
      <point x="860" y="132"/>
      <point x="860" y="285" type="curve" smooth="yes"/>
      <point x="860" y="469"/>
      <point x="723" y="595"/>
      <point x="502" y="595" type="curve" smooth="yes"/>
      <point x="229" y="595"/>
      <point x="14" y="421"/>
      <point x="14" y="158" type="curve" smooth="yes"/>
      <point x="14" y="-38"/>
      <point x="160" y="-176"/>
      <point x="394" y="-176" type="curve" smooth="yes"/>
      <point x="454" y="-176"/>
      <point x="532" y="-163"/>
    </contour>
    <contour>
      <point x="526" y="246" type="curve" smooth="yes"/>
      <point x="526" y="341"/>
      <point x="491" y="402"/>
      <point x="402" y="402" type="curve" smooth="yes"/>
      <point x="289" y="402"/>
      <point x="206" y="290"/>
      <point x="206" y="167" type="curve" smooth="yes"/>
      <point x="206" y="58"/>
      <point x="279" y="-8"/>
      <point x="357" y="-8" type="curve" smooth="yes"/>
      <point x="482" y="-8"/>
      <point x="526" y="104"/>
    </contour>
    <contour>
      <point x="392" y="187" type="curve" smooth="yes"/>
      <point x="392" y="234"/>
      <point x="414" y="254"/>
      <point x="437" y="254" type="curve" smooth="yes"/>
      <point x="456" y="254"/>
      <point x="472" y="239"/>
      <point x="472" y="207" type="curve" smooth="yes"/>
      <point x="472" y="173"/>
      <point x="459" y="139"/>
      <point x="426" y="139" type="curve" smooth="yes"/>
      <point x="408" y="139"/>
      <point x="392" y="154"/>
    </contour>
  </outline>
</glyph>
<glyph name="A" format="1">
  <advance width="698"/>
  <unicode hex="0041"/>
  <outline>
    <contour>
      <point x="175" y="0" type="line"/>
      <point x="446" y="480" type="line"/>
      <point x="356" y="480" type="line"/>
      <point x="443" y="0" type="line"/>
      <point x="672" y="0" type="line"/>
      <point x="534" y="582" type="line"/>
      <point x="308" y="582" type="line"/>
      <point x="-67" y="0" type="line"/>
    </contour>
    <contour>
      <point x="487" y="90" type="line"/>
      <point x="463" y="250" type="line"/>
      <point x="206" y="250" type="line"/>
      <point x="115" y="90" type="line"/>
    </contour>
    <contour>
      <point x="672" y="0" type="move" name="ogonek"/>
    </contour>
    <contour>
      <point x="421" y="582" type="move" name="top"/>
    </contour>
    <contour>
      <point x="176" y="583" type="move" name="topleft"/>
    </contour>
    <contour>
      <point x="302" y="0" type="move" name="bottom"/>
    </contour>
  </outline>
</glyph>
<glyph name="B" format="1">
  <advance width="657"/>
  <unicode hex="0042"/>
  <outline>
    <contour>
      <point x="347" y="0" type="line"/>
      <point x="497" y="0"/>
      <point x="629" y="55"/>
      <point x="629" y="186" type="curve" smooth="yes"/>
      <point x="629" y="271"/>
      <point x="554" y="323"/>
      <point x="430" y="323" type="curve"/>
      <point x="403" y="273" type="line"/>
      <point x="552" y="273"/>
      <point x="655" y="333"/>
      <point x="655" y="440" type="curve" smooth="yes"/>
      <point x="655" y="529"/>
      <point x="582" y="582"/>
      <point x="436" y="582" type="curve" smooth="yes"/>
      <point x="109" y="582" type="line"/>
      <point x="-9" y="0" type="line"/>
    </contour>
    <contour>
      <point x="303" y="427" type="line"/>
      <point x="380" y="427" type="line" smooth="yes"/>
      <point x="402" y="427"/>
      <point x="415" y="418"/>
      <point x="415" y="401" type="curve" smooth="yes"/>
      <point x="415" y="380"/>
      <point x="406" y="366"/>
      <point x="373" y="366" type="curve" smooth="yes"/>
      <point x="276" y="366" type="line"/>
      <point x="246" y="220" type="line"/>
      <point x="371" y="220" type="line" smooth="yes"/>
      <point x="383" y="220"/>
      <point x="401" y="210"/>
      <point x="401" y="192" type="curve" smooth="yes"/>
      <point x="401" y="167"/>
      <point x="380" y="155"/>
      <point x="359" y="155" type="curve" smooth="yes"/>
      <point x="249" y="155" type="line"/>
    </contour>
    <contour>
      <point x="395" y="582" type="move" name="top"/>
    </contour>
    <contour>
      <point x="277" y="0" type="move" name="bottom"/>
    </contour>
  </outline>
</glyph>
<glyph name="C" format="1">
  <advance width="634"/>
  <unicode hex="0043"/>
  <outline>
    <contour>
      <point x="618" y="107" type="curve"/>
      <point x="482" y="232" type="line"/>
      <point x="443" y="183"/>
      <point x="403" y="165"/>
      <point x="363" y="165" type="curve" smooth="yes"/>
      <point x="304" y="165"/>
      <point x="262" y="204"/>
      <point x="262" y="263" type="curve" smooth="yes"/>
      <point x="262" y="355"/>
      <point x="318" y="417"/>
      <point x="393" y="417" type="curve" smooth="yes"/>
      <point x="442" y="417"/>
      <point x="477" y="391"/>
      <point x="500" y="349" type="curve"/>
      <point x="665" y="474" type="line"/>
      <point x="622" y="553"/>
      <point x="525" y="597"/>
      <point x="407" y="597" type="curve" smooth="yes"/>
      <point x="189" y="597"/>
      <point x="30" y="456"/>
      <point x="30" y="249" type="curve" smooth="yes"/>
      <point x="30" y="92"/>
      <point x="155" y="-15"/>
      <point x="340" y="-15" type="curve" smooth="yes"/>
      <point x="453" y="-15"/>
      <point x="542" y="14"/>
    </contour>
    <contour>
      <point x="427" y="583" type="move" name="top"/>
    </contour>
    <contour>
      <point x="282" y="0" type="move" name="bottom"/>
    </contour>
  </outline>
</glyph>
<glyph name="D" format="1">
  <advance width="699"/>
  <unicode hex="0044"/>
  <outline>
    <contour>
      <point x="322" y="0" type="line"/>
      <point x="536" y="0"/>
      <point x="693" y="127"/>
      <point x="693" y="333" type="curve" smooth="yes"/>
      <point x="693" y="488"/>
      <point x="574" y="582"/>
      <point x="386" y="582" type="curve" smooth="yes"/>
      <point x="109" y="582" type="line"/>
      <point x="-9" y="0" type="line"/>
    </contour>
    <contour>
      <point x="303" y="408" type="line"/>
      <point x="359" y="408" type="line" smooth="yes"/>
      <point x="424" y="408"/>
      <point x="461" y="377"/>
      <point x="461" y="319" type="curve" smooth="yes"/>
      <point x="461" y="239"/>
      <point x="417" y="173"/>
      <point x="329" y="173" type="curve" smooth="yes"/>
      <point x="257" y="173" type="line"/>
    </contour>
    <contour>
      <point x="369" y="582" type="move" name="top"/>
    </contour>
    <contour>
      <point x="188" y="295" type="move" name="center"/>
    </contour>
    <contour>
      <point x="252" y="0" type="move" name="bottom"/>
    </contour>
  </outline>
</glyph>
<glyph name="E" format="1">
  <advance width="570"/>
  <unicode hex="0045"/>
  <outline>
    <contour>
      <point x="245" y="215" type="line"/>
      <point x="498" y="215" type="line"/>
      <point x="531" y="375" type="line"/>
      <point x="278" y="375" type="line"/>
    </contour>
    <contour>
      <point x="300" y="414" type="line"/>
      <point x="572" y="414" type="line"/>
      <point x="607" y="582" type="line"/>
      <point x="109" y="582" type="line"/>
      <point x="-9" y="0" type="line"/>
      <point x="499" y="0" type="line"/>
      <point x="534" y="168" type="line"/>
      <point x="251" y="168" type="line"/>
    </contour>
    <contour>
      <point x="499" y="0" type="move" name="ogonek"/>
    </contour>
    <contour>
      <point x="358" y="582" type="move" name="top"/>
    </contour>
    <contour>
      <point x="57" y="582" type="move" name="topleft"/>
    </contour>
    <contour>
      <point x="238" y="0" type="move" name="bottom"/>
    </contour>
  </outline>
</glyph>
<glyph name="F" format="1">
  <advance width="547"/>
  <unicode hex="0046"/>
  <outline>
    <contour>
      <point x="241" y="174" type="line"/>
      <point x="489" y="174" type="line"/>
      <point x="524" y="341" type="line"/>
      <point x="275" y="341" type="line"/>
    </contour>
    <contour>
      <point x="304" y="414" type="line"/>
      <point x="572" y="414" type="line"/>
      <point x="607" y="582" type="line"/>
      <point x="109" y="582" type="line"/>
      <point x="-9" y="0" type="line"/>
      <point x="221" y="0" type="line"/>
    </contour>
  </outline>
</glyph>
<glyph name="G" format="1">
  <advance width="650"/>
  <unicode hex="0047"/>
  <outline>
    <contour>
      <point x="587" y="53" type="curve"/>
      <point x="500" y="212" type="line"/>
      <point x="454" y="176"/>
      <point x="412" y="165"/>
      <point x="373" y="165" type="curve" smooth="yes"/>
      <point x="304" y="165"/>
      <point x="262" y="204"/>
      <point x="262" y="263" type="curve" smooth="yes"/>
      <point x="262" y="355"/>
      <point x="318" y="417"/>
      <point x="405" y="417" type="curve" smooth="yes"/>
      <point x="455" y="417"/>
      <point x="493" y="402"/>
      <point x="530" y="353" type="curve"/>
      <point x="695" y="477" type="line"/>
      <point x="637" y="556"/>
      <point x="545" y="597"/>
      <point x="415" y="597" type="curve" smooth="yes"/>
      <point x="189" y="597"/>
      <point x="30" y="456"/>
      <point x="30" y="249" type="curve" smooth="yes"/>
      <point x="30" y="92"/>
      <point x="155" y="-15"/>
      <point x="340" y="-15" type="curve" smooth="yes"/>
      <point x="436" y="-15"/>
      <point x="522" y="9"/>
    </contour>
    <contour>
      <point x="587" y="53" type="line"/>
      <point x="639" y="310" type="line"/>
      <point x="439" y="310" type="line"/>
      <point x="394" y="88" type="line"/>
    </contour>
    <contour>
      <point x="433" y="583" type="move" name="top"/>
    </contour>
    <contour>
      <point x="301" y="0" type="move" name="bottom"/>
    </contour>
  </outline>
</glyph>
<glyph name="H" format="1">
  <advance width="678"/>
  <unicode hex="0048"/>
  <outline>
    <contour>
      <point x="364" y="0" type="line"/>
      <point x="594" y="0" type="line"/>
      <point x="712" y="582" type="line"/>
      <point x="482" y="582" type="line"/>
    </contour>
    <contour>
      <point x="339" y="582" type="line"/>
      <point x="109" y="582" type="line"/>
      <point x="-9" y="0" type="line"/>
      <point x="221" y="0" type="line"/>
    </contour>
    <contour>
      <point x="458" y="386" type="line"/>
      <point x="285" y="386" type="line"/>
      <point x="247" y="204" type="line"/>
      <point x="420" y="204" type="line"/>
    </contour>
    <contour>
      <point x="411" y="582" type="move" name="top"/>
    </contour>
    <contour>
      <point x="391" y="483" type="move" name="center"/>
    </contour>
    <contour>
      <point x="292" y="0" type="move" name="bottom"/>
    </contour>
  </outline>
</glyph>
<glyph name="I" format="1">
  <advance width="305"/>
  <unicode hex="0049"/>
  <outline>
    <contour>
      <point x="221" y="0" type="line"/>
      <point x="339" y="582" type="line"/>
      <point x="109" y="582" type="line"/>
      <point x="-9" y="0" type="line"/>
    </contour>
    <contour>
      <point x="221" y="0" type="move" name="ogonek"/>
    </contour>
    <contour>
      <point x="224" y="582" type="move" name="top"/>
    </contour>
    <contour>
      <point x="57" y="582" type="move" name="topleft"/>
    </contour>
    <contour>
      <point x="106" y="0" type="move" name="bottom"/>
    </contour>
  </outline>
</glyph>
<glyph name="J" format="1">
  <advance width="499"/>
  <unicode hex="004A"/>
  <outline>
    <contour>
      <point x="335" y="-15"/>
      <point x="430" y="49"/>
      <point x="466" y="225" type="curve" smooth="yes"/>
      <point x="538" y="582" type="line"/>
      <point x="113" y="582" type="line"/>
      <point x="78" y="414" type="line"/>
      <point x="276" y="414" type="line"/>
      <point x="236" y="211" type="line" smooth="yes"/>
      <point x="230" y="180"/>
      <point x="209" y="159"/>
      <point x="178" y="159" type="curve" smooth="yes"/>
      <point x="146" y="159"/>
      <point x="120" y="176"/>
      <point x="93" y="211" type="curve"/>
      <point x="-53" y="76" type="line"/>
      <point x="-5" y="15"/>
      <point x="69" y="-15"/>
      <point x="174" y="-15" type="curve" smooth="yes"/>
    </contour>
    <contour>
      <point x="326" y="582" type="move" name="top"/>
    </contour>
  </outline>
</glyph>
<glyph name="K" format="1">
  <advance width="657"/>
  <unicode hex="004B"/>
  <outline>
    <contour>
      <point x="288" y="180" type="line"/>
      <point x="444" y="311" type="line"/>
      <point x="745" y="582" type="line"/>
      <point x="482" y="582" type="line"/>
      <point x="255" y="364" type="line"/>
      <point x="221" y="115" type="line"/>
    </contour>
    <contour>
      <point x="217" y="0" type="line"/>
      <point x="335" y="582" type="line"/>
      <point x="109" y="582" type="line"/>
      <point x="-9" y="0" type="line"/>
    </contour>
    <contour>
      <point x="640" y="0" type="line"/>
      <point x="424" y="363" type="line"/>
      <point x="254" y="213" type="line"/>
      <point x="384" y="0" type="line"/>
    </contour>
    <contour>
      <point x="398" y="582" type="move" name="top"/>
    </contour>
    <contour>
      <point x="280" y="0" type="move" name="bottom"/>
    </contour>
  </outline>
</glyph>
<glyph name="L" format="1">
  <advance width="527"/>
  <unicode hex="004C"/>
  <outline>
    <contour>
      <point x="474" y="0" type="line"/>
      <point x="510" y="172" type="line"/>
      <point x="257" y="172" type="line"/>
      <point x="339" y="582" type="line"/>
      <point x="109" y="582" type="line"/>
      <point x="-9" y="0" type="line"/>
    </contour>
    <contour>
      <point x="174" y="337" type="move" name="center"/>
    </contour>
    <contour>
      <point x="446" y="376" type="move" name="dot"/>
    </contour>
    <contour>
      <point x="224" y="582" type="move" name="top"/>
    </contour>
    <contour>
      <point x="426" y="582" type="move" name="topright"/>
    </contour>
    <contour>
      <point x="243" y="0" type="move" name="bottom"/>
    </contour>
  </outline>
</glyph>
<glyph name="M" format="1">
  <advance width="807"/>
  <unicode hex="004D"/>
  <outline>
    <contour>
      <point x="200" y="0" type="line"/>
      <point x="255" y="276" type="line"/>
      <point x="217" y="279" type="line"/>
      <point x="320" y="48" type="line"/>
      <point x="421" y="48" type="line"/>
      <point x="598" y="278" type="line"/>
      <point x="566" y="276" type="line"/>
      <point x="513" y="0" type="line"/>
      <point x="722" y="0" type="line"/>
      <point x="839" y="582" type="line"/>
      <point x="643" y="582" type="line"/>
      <point x="350" y="217" type="line"/>
      <point x="449" y="217" type="line"/>
      <point x="296" y="582" type="line"/>
      <point x="109" y="582" type="line"/>
      <point x="-9" y="0" type="line"/>
    </contour>
    <contour>
      <point x="474" y="582" type="move" name="top"/>
    </contour>
    <contour>
      <point x="355" y="0" type="move" name="bottom"/>
    </contour>
  </outline>
</glyph>
<glyph name="N" format="1">
  <advance width="678"/>
  <unicode hex="004E"/>
  <outline>
    <contour>
      <point x="215" y="0" type="line"/>
      <point x="280" y="323" type="line"/>
      <point x="200" y="323" type="line"/>
      <point x="405" y="0" type="line"/>
      <point x="594" y="0" type="line"/>
      <point x="712" y="582" type="line"/>
      <point x="488" y="582" type="line"/>
      <point x="423" y="258" type="line"/>
      <point x="503" y="259" type="line"/>
      <point x="298" y="582" type="line"/>
      <point x="109" y="582" type="line"/>
      <point x="-9" y="0" type="line"/>
    </contour>
    <contour>
      <point x="411" y="582" type="move" name="top"/>
    </contour>
    <contour>
      <point x="292" y="0" type="move" name="bottom"/>
    </contour>
  </outline>
</glyph>
<glyph name="O" format="1">
  <advance width="719"/>
  <unicode hex="004F"/>
  <outline>
    <contour>
      <point x="554" y="-15"/>
      <point x="713" y="125"/>
      <point x="713" y="333" type="curve" smooth="yes"/>
      <point x="713" y="488"/>
      <point x="593" y="597"/>
      <point x="407" y="597" type="curve" smooth="yes"/>
      <point x="190" y="597"/>
      <point x="30" y="457"/>
      <point x="30" y="249" type="curve" smooth="yes"/>
      <point x="30" y="94"/>
      <point x="150" y="-15"/>
      <point x="336" y="-15" type="curve" smooth="yes"/>
    </contour>
    <contour>
      <point x="299" y="165"/>
      <point x="262" y="204"/>
      <point x="262" y="262" type="curve" smooth="yes"/>
      <point x="262" y="345"/>
      <point x="307" y="417"/>
      <point x="388" y="417" type="curve" smooth="yes"/>
      <point x="445" y="417"/>
      <point x="481" y="377"/>
      <point x="481" y="319" type="curve" smooth="yes"/>
      <point x="481" y="237"/>
      <point x="437" y="165"/>
      <point x="356" y="165" type="curve" smooth="yes"/>
    </contour>
    <contour>
      <point x="313" y="0" type="move" name="bottom"/>
    </contour>
    <contour>
      <point x="427" y="0" type="move" name="ogonek"/>
    </contour>
    <contour>
      <point x="431" y="582" type="move" name="top"/>
    </contour>
    <contour>
      <point x="560" y="582" type="move" name="topright"/>
    </contour>
    <contour>
      <point x="97" y="582" type="move" name="topleft"/>
    </contour>
    <contour>
      <point x="372" y="291" type="move" name="center"/>
    </contour>
  </outline>
</glyph>
<glyph name="P" format="1">
  <advance width="633"/>
  <unicode hex="0050"/>
  <outline>
    <contour>
      <point x="221" y="0" type="line"/>
      <point x="268" y="232" type="line"/>
      <point x="145" y="135" type="line"/>
      <point x="335" y="135" type="line" smooth="yes"/>
      <point x="520" y="135"/>
      <point x="640" y="237"/>
      <point x="640" y="383" type="curve" smooth="yes"/>
      <point x="640" y="508"/>
      <point x="547" y="582"/>
      <point x="383" y="582" type="curve" smooth="yes"/>
      <point x="109" y="582" type="line"/>
      <point x="-9" y="0" type="line"/>
    </contour>
    <contour>
      <point x="325" y="514" type="line"/>
      <point x="202" y="410" type="line"/>
      <point x="350" y="410" type="line" smooth="yes"/>
      <point x="384" y="410"/>
      <point x="407" y="398"/>
      <point x="407" y="363" type="curve" smooth="yes"/>
      <point x="407" y="328"/>
      <point x="385" y="306"/>
      <point x="347" y="306" type="curve" smooth="yes"/>
      <point x="181" y="306" type="line"/>
      <point x="262" y="205" type="line"/>
    </contour>
  </outline>
</glyph>
<glyph name="Q" format="1">
  <advance width="719"/>
  <unicode hex="0051"/>
  <outline>
    <contour>
      <point x="554" y="-15"/>
      <point x="713" y="125"/>
      <point x="713" y="333" type="curve" smooth="yes"/>
      <point x="713" y="488"/>
      <point x="593" y="597"/>
      <point x="407" y="597" type="curve" smooth="yes"/>
      <point x="190" y="597"/>
      <point x="30" y="457"/>
      <point x="30" y="249" type="curve" smooth="yes"/>
      <point x="30" y="94"/>
      <point x="150" y="-15"/>
      <point x="336" y="-15" type="curve" smooth="yes"/>
    </contour>
    <contour>
      <point x="568" y="-154"/>
      <point x="634" y="-135"/>
      <point x="679" y="-96" type="curve"/>
      <point x="597" y="33" type="line"/>
      <point x="571" y="13"/>
      <point x="540" y="1"/>
      <point x="515" y="1" type="curve" smooth="yes"/>
      <point x="480" y="1"/>
      <point x="464" y="14"/>
      <point x="453" y="75" type="curve"/>
      <point x="205" y="28" type="line"/>
      <point x="261" y="-96"/>
      <point x="355" y="-154"/>
      <point x="493" y="-154" type="curve" smooth="yes"/>
    </contour>
    <contour>
      <point x="299" y="165"/>
      <point x="262" y="204"/>
      <point x="262" y="262" type="curve" smooth="yes"/>
      <point x="262" y="345"/>
      <point x="307" y="417"/>
      <point x="388" y="417" type="curve" smooth="yes"/>
      <point x="445" y="417"/>
      <point x="481" y="377"/>
      <point x="481" y="319" type="curve" smooth="yes"/>
      <point x="481" y="237"/>
      <point x="437" y="165"/>
      <point x="356" y="165" type="curve" smooth="yes"/>
    </contour>
    <contour>
      <point x="432" y="582" type="move" name="top"/>
    </contour>
  </outline>
</glyph>
<glyph name="R" format="1">
  <advance width="634"/>
  <unicode hex="0052"/>
  <outline>
    <contour>
      <point x="221" y="0" type="line"/>
      <point x="268" y="232" type="line"/>
      <point x="145" y="138" type="line"/>
      <point x="335" y="138" type="line" smooth="yes"/>
      <point x="520" y="138"/>
      <point x="640" y="239"/>
      <point x="640" y="385" type="curve" smooth="yes"/>
      <point x="640" y="509"/>
      <point x="547" y="582"/>
      <point x="386" y="582" type="curve" smooth="yes"/>
      <point x="109" y="582" type="line"/>
      <point x="-9" y="0" type="line"/>
    </contour>
    <contour>
      <point x="581" y="0" type="line"/>
      <point x="457" y="212" type="line"/>
      <point x="221" y="212" type="line"/>
      <point x="343" y="0" type="line"/>
    </contour>
    <contour>
      <point x="325" y="514" type="line"/>
      <point x="202" y="410" type="line"/>
      <point x="350" y="410" type="line" smooth="yes"/>
      <point x="384" y="410"/>
      <point x="407" y="398"/>
      <point x="407" y="363" type="curve" smooth="yes"/>
      <point x="407" y="328"/>
      <point x="385" y="306"/>
      <point x="347" y="306" type="curve" smooth="yes"/>
      <point x="181" y="306" type="line"/>
      <point x="262" y="205" type="line"/>
    </contour>
    <contour>
      <point x="394" y="582" type="move" name="top"/>
    </contour>
    <contour>
      <point x="276" y="0" type="move" name="bottom"/>
    </contour>
  </outline>
</glyph>
<glyph name="S" format="1">
  <advance width="564"/>
  <unicode hex="0053"/>
  <outline>
    <contour>
      <point x="551" y="210" type="curve" smooth="yes"/>
      <point x="551" y="390"/>
      <point x="275" y="355"/>
      <point x="275" y="404" type="curve" smooth="yes"/>
      <point x="275" y="413"/>
      <point x="294" y="427"/>
      <point x="343" y="427" type="curve" smooth="yes"/>
      <point x="400" y="427"/>
      <point x="458" y="414"/>
      <point x="506" y="385" type="curve"/>
      <point x="588" y="547" type="line"/>
      <point x="531" y="579"/>
      <point x="450" y="597"/>
      <point x="358" y="597" type="curve" smooth="yes"/>
      <point x="160" y="597"/>
      <point x="45" y="506"/>
      <point x="45" y="370" type="curve" smooth="yes"/>
      <point x="45" y="189"/>
      <point x="320" y="219"/>
      <point x="320" y="172" type="curve" smooth="yes"/>
      <point x="320" y="162"/>
      <point x="303" y="155"/>
      <point x="263" y="155" type="curve" smooth="yes"/>
      <point x="199" y="155"/>
      <point x="133" y="169"/>
      <point x="61" y="205" type="curve"/>
      <point x="-26" y="41" type="line"/>
      <point x="34" y="9"/>
      <point x="130" y="-15"/>
      <point x="239" y="-15" type="curve" smooth="yes"/>
      <point x="434" y="-15"/>
      <point x="551" y="77"/>
    </contour>
    <contour>
      <point x="351" y="582" type="move" name="top"/>
    </contour>
    <contour>
      <point x="233" y="0" type="move" name="bottom"/>
    </contour>
  </outline>
</glyph>
<glyph name="T" format="1">
  <advance width="568"/>
  <unicode hex="0054"/>
  <outline>
    <contour>
      <point x="352" y="0" type="line"/>
      <point x="435" y="409" type="line"/>
      <point x="600" y="409" type="line"/>
      <point x="636" y="582" type="line"/>
      <point x="75" y="582" type="line"/>
      <point x="39" y="409" type="line"/>
      <point x="205" y="409" type="line"/>
      <point x="122" y="0" type="line"/>
    </contour>
    <contour>
      <point x="356" y="582" type="move" name="top"/>
    </contour>
    <contour>
      <point x="289" y="257" type="move" name="center"/>
    </contour>
    <contour>
      <point x="237" y="0" type="move" name="bottom"/>
    </contour>
  </outline>
</glyph>
<glyph name="U" format="1">
  <advance width="662"/>
  <unicode hex="0055"/>
  <outline>
    <contour>
      <point x="488" y="-15"/>
      <point x="599" y="79"/>
      <point x="634" y="255" type="curve" smooth="yes"/>
      <point x="701" y="582" type="line"/>
      <point x="475" y="582" type="line"/>
      <point x="411" y="268" type="line" smooth="yes"/>
      <point x="396" y="191"/>
      <point x="373" y="165"/>
      <point x="328" y="165" type="curve" smooth="yes"/>
      <point x="279" y="165"/>
      <point x="256" y="196"/>
      <point x="270" y="268" type="curve" smooth="yes"/>
      <point x="334" y="582" type="line"/>
      <point x="104" y="582" type="line"/>
      <point x="39" y="264" type="line" smooth="yes"/>
      <point x="5" y="98"/>
      <point x="109" y="-15"/>
      <point x="300" y="-15" type="curve" smooth="yes"/>
    </contour>
    <contour>
      <point x="483" y="0" type="move" name="ogonek"/>
    </contour>
    <contour>
      <point x="404" y="582" type="move" name="top"/>
    </contour>
    <contour>
      <point x="608" y="582" type="move" name="topright"/>
    </contour>
    <contour>
      <point x="286" y="0" type="move" name="bottom"/>
    </contour>
  </outline>
</glyph>
<glyph name="V" format="1">
  <advance width="681"/>
  <unicode hex="0056"/>
  <outline>
    <contour>
      <point x="407" y="0" type="line"/>
      <point x="773" y="582" type="line"/>
      <point x="538" y="582" type="line"/>
      <point x="237" y="100" type="line"/>
      <point x="388" y="100" type="line"/>
      <point x="287" y="582" type="line"/>
      <point x="51" y="582" type="line"/>
      <point x="181" y="0" type="line"/>
    </contour>
  </outline>
</glyph>
<glyph name="W" format="1">
  <advance width="1038"/>
  <unicode hex="0057"/>
  <outline>
    <contour>
      <point x="391" y="0" type="line"/>
      <point x="586" y="378" type="line"/>
      <point x="516" y="379" type="line"/>
      <point x="553" y="0" type="line"/>
      <point x="800" y="0" type="line"/>
      <point x="1106" y="582" type="line"/>
      <point x="880" y="582" type="line"/>
      <point x="629" y="102" type="line"/>
      <point x="741" y="102" type="line"/>
      <point x="698" y="582" type="line"/>
      <point x="486" y="582" type="line"/>
      <point x="235" y="102" type="line"/>
      <point x="355" y="102" type="line"/>
      <point x="302" y="582" type="line"/>
      <point x="75" y="582" type="line"/>
      <point x="144" y="0" type="line"/>
    </contour>
    <contour>
      <point x="590" y="582" type="move" name="top"/>
    </contour>
    <contour>
      <point x="472" y="0" type="move" name="bottom"/>
    </contour>
  </outline>
</glyph>
<glyph name="X" format="1">
  <advance width="664"/>
  <unicode hex="0058"/>
  <outline>
    <contour>
      <point x="215" y="0" type="line"/>
      <point x="384" y="205" type="line"/>
      <point x="280" y="206" type="line"/>
      <point x="377" y="0" type="line"/>
      <point x="626" y="0" type="line"/>
      <point x="428" y="361" type="line"/>
      <point x="420" y="235" type="line"/>
      <point x="738" y="582" type="line"/>
      <point x="479" y="582" type="line"/>
      <point x="310" y="382" type="line"/>
      <point x="409" y="385" type="line"/>
      <point x="315" y="582" type="line"/>
      <point x="69" y="582" type="line"/>
      <point x="251" y="238" type="line"/>
      <point x="281" y="368" type="line"/>
      <point x="-59" y="0" type="line"/>
    </contour>
  </outline>
</glyph>
<glyph name="Y" format="1">
  <advance width="615"/>
  <unicode hex="0059"/>
  <outline>
    <contour>
      <point x="375" y="0" type="line"/>
      <point x="429" y="263" type="line"/>
      <point x="351" y="130" type="line"/>
      <point x="714" y="582" type="line"/>
      <point x="484" y="582" type="line"/>
      <point x="244" y="287" type="line"/>
      <point x="390" y="287" type="line"/>
      <point x="274" y="582" type="line"/>
      <point x="43" y="582" type="line"/>
      <point x="224" y="130" type="line"/>
      <point x="199" y="263" type="line"/>
      <point x="145" y="0" type="line"/>
    </contour>
    <contour>
      <point x="379" y="582" type="move" name="top"/>
    </contour>
    <contour>
      <point x="260" y="0" type="move" name="bottom"/>
    </contour>
  </outline>
</glyph>
<glyph name="Z" format="1">
  <advance width="588"/>
  <unicode hex="005A"/>
  <outline>
    <contour>
      <point x="535" y="0" type="line"/>
      <point x="571" y="172" type="line"/>
      <point x="215" y="172" type="line"/>
      <point x="238" y="95" type="line"/>
      <point x="611" y="445" type="line"/>
      <point x="639" y="582" type="line"/>
      <point x="105" y="582" type="line"/>
      <point x="69" y="409" type="line"/>
      <point x="401" y="409" type="line"/>
      <point x="378" y="487" type="line"/>
      <point x="6" y="137" type="line"/>
      <point x="-22" y="0" type="line"/>
    </contour>
    <contour>
      <point x="375" y="582" type="move" name="top"/>
    </contour>
    <contour>
      <point x="255" y="0" type="move" name="bottom"/>
    </contour>
  </outline>
</glyph>
<glyph name="bracketleft" format="1">
  <advance width="364"/>
  <unicode hex="005B"/>
  <outline>
    <contour>
      <point x="278" y="-161" type="line"/>
      <point x="311" y="-1" type="line"/>
      <point x="212" y="-1" type="line"/>
      <point x="304" y="457" type="line"/>
      <point x="403" y="457" type="line"/>
      <point x="436" y="617" type="line"/>
      <point x="117" y="617" type="line"/>
      <point x="-41" y="-161" type="line"/>
    </contour>
  </outline>
</glyph>
<glyph name="bracketright" format="1">
  <advance width="364"/>
  <unicode hex="005D"/>
  <outline>
    <contour>
      <point x="405" y="617" type="line"/>
      <point x="86" y="617" type="line"/>
      <point x="53" y="457" type="line"/>
      <point x="152" y="457" type="line"/>
      <point x="60" y="-1" type="line"/>
      <point x="-39" y="-1" type="line"/>
      <point x="-72" y="-161" type="line"/>
      <point x="247" y="-161" type="line"/>
    </contour>
  </outline>
</glyph>
<glyph name="asciicircum" format="1">
  <advance width="533"/>
  <unicode hex="005E"/>
  <outline>
    <contour>
      <point x="172" y="115" type="line"/>
      <point x="361" y="418" type="line"/>
      <point x="266" y="418" type="line"/>
      <point x="332" y="115" type="line"/>
      <point x="488" y="115" type="line"/>
      <point x="401" y="467" type="line"/>
      <point x="228" y="467" type="line"/>
      <point x="-2" y="115" type="line"/>
    </contour>
  </outline>
</glyph>
<glyph name="underscore" format="1">
  <advance width="423"/>
  <unicode hex="005F"/>
  <outline>
    <contour>
      <point x="353" y="-112" type="line"/>
      <point x="376" y="0" type="line"/>
      <point x="-47" y="0" type="line"/>
      <point x="-70" y="-112" type="line"/>
    </contour>
  </outline>
</glyph>
<glyph name="b" format="1">
  <advance width="590"/>
  <unicode hex="0062"/>
  <outline>
    <contour>
      <point x="195" y="0" type="line"/>
      <point x="212" y="82" type="line"/>
      <point x="245" y="229" type="line"/>
      <point x="290" y="409" type="line"/>
      <point x="332" y="617" type="line"/>
      <point x="111" y="617" type="line"/>
      <point x="-14" y="0" type="line"/>
    </contour>
    <contour>
      <point x="578" y="252" type="curve" smooth="yes"/>
      <point x="578" y="392"/>
      <point x="476" y="467"/>
      <point x="389" y="467" type="curve" smooth="yes"/>
      <point x="283" y="467"/>
      <point x="216" y="382"/>
      <point x="188" y="235" type="curve" smooth="yes"/>
      <point x="155" y="46"/>
      <point x="230" y="-9"/>
      <point x="334" y="-9" type="curve" smooth="yes"/>
      <point x="464" y="-9"/>
      <point x="578" y="102"/>
    </contour>
    <contour>
      <point x="249" y="217" type="curve" smooth="yes"/>
      <point x="249" y="268"/>
      <point x="273" y="300"/>
      <point x="309" y="300" type="curve" smooth="yes"/>
      <point x="341" y="300"/>
      <point x="360" y="275"/>
      <point x="360" y="242" type="curve" smooth="yes"/>
      <point x="360" y="190"/>
      <point x="337" y="158"/>
      <point x="300" y="158" type="curve" smooth="yes"/>
      <point x="268" y="158"/>
      <point x="249" y="183"/>
    </contour>
  </outline>
</glyph>
<glyph name="c" format="1">
  <advance width="518"/>
  <unicode hex="0063"/>
  <outline>
    <contour>
      <point x="517" y="128" type="curve"/>
      <point x="361" y="216" type="line"/>
      <point x="341" y="173"/>
      <point x="319" y="158"/>
      <point x="286" y="158" type="curve" smooth="yes"/>
      <point x="249" y="158"/>
      <point x="230" y="185"/>
      <point x="230" y="220" type="curve" smooth="yes"/>
      <point x="230" y="269"/>
      <point x="257" y="300"/>
      <point x="295" y="300" type="curve" smooth="yes"/>
      <point x="322" y="300"/>
      <point x="346" y="285"/>
      <point x="360" y="243" type="curve"/>
      <point x="542" y="324" type="line"/>
      <point x="509" y="413"/>
      <point x="419" y="467"/>
      <point x="305" y="467" type="curve" smooth="yes"/>
      <point x="134" y="467"/>
      <point x="13" y="356"/>
      <point x="13" y="206" type="curve" smooth="yes"/>
      <point x="13" y="76"/>
      <point x="115" y="-9"/>
      <point x="270" y="-9" type="curve" smooth="yes"/>
      <point x="383" y="-9"/>
      <point x="470" y="41"/>
    </contour>
    <contour>
      <point x="319" y="458" type="move" name="top"/>
    </contour>
    <contour>
      <point x="218" y="0" type="move" name="bottom"/>
    </contour>
  </outline>
</glyph>
<glyph name="d" format="1">
  <advance width="595"/>
  <unicode hex="0064"/>
  <outline>
    <contour>
      <point x="407" y="223" type="curve" smooth="yes"/>
      <point x="441" y="412"/>
      <point x="365" y="467"/>
      <point x="261" y="467" type="curve" smooth="yes"/>
      <point x="131" y="467"/>
      <point x="18" y="356"/>
      <point x="18" y="206" type="curve" smooth="yes"/>
      <point x="18" y="67"/>
      <point x="119" y="-9"/>
      <point x="206" y="-9" type="curve" smooth="yes"/>
      <point x="312" y="-9"/>
      <point x="379" y="76"/>
    </contour>
    <contour>
      <point x="235" y="217" type="curve" smooth="yes"/>
      <point x="235" y="269"/>
      <point x="258" y="300"/>
      <point x="295" y="300" type="curve" smooth="yes"/>
      <point x="327" y="300"/>
      <point x="346" y="275"/>
      <point x="346" y="242" type="curve" smooth="yes"/>
      <point x="346" y="190"/>
      <point x="323" y="158"/>
      <point x="286" y="158" type="curve" smooth="yes"/>
      <point x="254" y="158"/>
      <point x="235" y="183"/>
    </contour>
    <contour>
      <point x="515" y="0" type="line"/>
      <point x="640" y="617" type="line"/>
      <point x="420" y="617" type="line"/>
      <point x="378" y="410" type="line"/>
      <point x="350" y="231" type="line"/>
      <point x="317" y="48" type="line"/>
      <point x="308" y="0" type="line"/>
    </contour>
    <contour>
      <point x="473" y="533" type="move" name="center"/>
    </contour>
    <contour>
      <point x="278" y="0" type="move" name="bottom"/>
    </contour>
    <contour>
      <point x="698" y="617" type="move" name="topright"/>
    </contour>
  </outline>
</glyph>
<glyph name="e" format="1">
  <advance width="562"/>
  <unicode hex="0065"/>
  <outline>
    <contour>
      <point x="484" y="45" type="curve"/>
      <point x="395" y="175" type="line"/>
      <point x="366" y="156"/>
      <point x="333" y="148"/>
      <point x="303" y="148" type="curve" smooth="yes"/>
      <point x="252" y="148"/>
      <point x="225" y="164"/>
      <point x="225" y="214" type="curve" smooth="yes"/>
      <point x="225" y="266"/>
      <point x="237" y="323"/>
      <point x="298" y="323" type="curve" smooth="yes"/>
      <point x="336" y="323"/>
      <point x="361" y="296"/>
      <point x="349" y="254" type="curve"/>
      <point x="443" y="281" type="line"/>
      <point x="207" y="281" type="line"/>
      <point x="186" y="179" type="line"/>
      <point x="540" y="179" type="line"/>
      <point x="546" y="205"/>
      <point x="551" y="233"/>
      <point x="551" y="263" type="curve" smooth="yes"/>
      <point x="551" y="382"/>
      <point x="461" y="467"/>
      <point x="308" y="467" type="curve" smooth="yes"/>
      <point x="130" y="467"/>
      <point x="13" y="356"/>
      <point x="13" y="206" type="curve" smooth="yes"/>
      <point x="13" y="75"/>
      <point x="121" y="-9"/>
      <point x="278" y="-9" type="curve" smooth="yes"/>
      <point x="348" y="-9"/>
      <point x="416" y="3"/>
    </contour>
    <contour>
      <point x="331" y="458" type="move" name="top"/>
    </contour>
    <contour>
      <point x="435" y="0" type="move" name="ogonek"/>
    </contour>
    <contour>
      <point x="238" y="0" type="move" name="bottom"/>
    </contour>
  </outline>
</glyph>
<glyph name="f" format="1">
  <advance width="377"/>
  <unicode hex="0066"/>
  <outline>
    <contour>
      <point x="230" y="0" type="line"/>
      <point x="295" y="319" type="line"/>
      <point x="305" y="402" type="line"/>
      <point x="308" y="419" type="line" smooth="yes"/>
      <point x="315" y="451"/>
      <point x="327" y="465"/>
      <point x="353" y="465" type="curve" smooth="yes"/>
      <point x="367" y="465"/>
      <point x="379" y="462"/>
      <point x="391" y="456" type="curve"/>
      <point x="474" y="605" type="line"/>
      <point x="442" y="619"/>
      <point x="398" y="626"/>
      <point x="350" y="626" type="curve" smooth="yes"/>
      <point x="205" y="626"/>
      <point x="120" y="544"/>
      <point x="97" y="430" type="curve" smooth="yes"/>
      <point x="10" y="0" type="line"/>
    </contour>
    <contour>
      <point x="371" y="274" type="line"/>
      <point x="403" y="430" type="line"/>
      <point x="37" y="430" type="line"/>
      <point x="5" y="274" type="line"/>
    </contour>
  </outline>
</glyph>
<glyph name="g" format="1">
  <advance width="600"/>
  <unicode hex="0067"/>
  <outline>
    <contour>
      <point x="541" y="99" type="curve" smooth="yes"/>
      <point x="614" y="458" type="line"/>
      <point x="405" y="458" type="line"/>
      <point x="394" y="402" type="line"/>
      <point x="360" y="247" type="line"/>
      <point x="323" y="106" type="line"/>
      <point x="313" y="60" type="line" smooth="yes"/>
      <point x="305" y="16"/>
      <point x="282" y="-12"/>
      <point x="216" y="-12" type="curve" smooth="yes"/>
      <point x="163" y="-12"/>
      <point x="105" y="4"/>
      <point x="68" y="29" type="curve"/>
      <point x="-25" y="-116" type="line"/>
      <point x="36" y="-152"/>
      <point x="116" y="-170"/>
      <point x="212" y="-170" type="curve" smooth="yes"/>
      <point x="384" y="-170"/>
      <point x="503" y="-92"/>
    </contour>
    <contour>
      <point x="401" y="241" type="curve" smooth="yes"/>
      <point x="435" y="417"/>
      <point x="359" y="467"/>
      <point x="259" y="467" type="curve" smooth="yes"/>
      <point x="125" y="467"/>
      <point x="17" y="360"/>
      <point x="17" y="227" type="curve" smooth="yes"/>
      <point x="17" y="101"/>
      <point x="116" y="27"/>
      <point x="213" y="27" type="curve" smooth="yes"/>
      <point x="307" y="27"/>
      <point x="370" y="91"/>
    </contour>
    <contour>
      <point x="233" y="237" type="curve" smooth="yes"/>
      <point x="233" y="277"/>
      <point x="256" y="300"/>
      <point x="291" y="300" type="curve" smooth="yes"/>
      <point x="322" y="300"/>
      <point x="340" y="280"/>
      <point x="340" y="256" type="curve" smooth="yes"/>
      <point x="340" y="217"/>
      <point x="318" y="193"/>
      <point x="283" y="193" type="curve" smooth="yes"/>
      <point x="252" y="193"/>
      <point x="233" y="213"/>
    </contour>
    <contour>
      <point x="346" y="458" type="move" name="top"/>
    </contour>
  </outline>
</glyph>
<glyph name="i" format="1">
  <advance width="285"/>
  <unicode hex="0069"/>
  <outline>
    <component base="dotaccentcomb.i" xOffset="-111.552"/>
    <component base="idotless"/>
    <contour>
      <point x="205" y="0" type="move" name="ogonek"/>
    </contour>
    <contour>
      <point x="96" y="0" type="move" name="bottom"/>
    </contour>
  </outline>
</glyph>
<glyph name="l" format="1">
  <advance width="286"/>
  <unicode hex="006C"/>
  <outline>
    <contour>
      <point x="206" y="0" type="line"/>
      <point x="332" y="617" type="line"/>
      <point x="111" y="617" type="line"/>
      <point x="-14" y="0" type="line"/>
    </contour>
    <contour>
      <point x="159" y="310" type="move" name="center"/>
    </contour>
    <contour>
      <point x="391" y="310" type="move" name="dot"/>
    </contour>
    <contour>
      <point x="221" y="617" type="move" name="top"/>
    </contour>
    <contour>
      <point x="387" y="617" type="move" name="topright"/>
    </contour>
    <contour>
      <point x="96" y="0" type="move" name="bottom"/>
    </contour>
  </outline>
</glyph>
<glyph name="m" format="1">
  <advance width="876"/>
  <unicode hex="006D"/>
  <outline>
    <contour>
      <point x="500" y="351" type="curve"/>
      <point x="557" y="333" type="line"/>
      <point x="549" y="423"/>
      <point x="487" y="467"/>
      <point x="409" y="467" type="curve" smooth="yes"/>
      <point x="345" y="467"/>
      <point x="278" y="437"/>
      <point x="237" y="371" type="curve"/>
      <point x="268" y="367" type="line"/>
      <point x="287" y="458" type="line"/>
      <point x="79" y="458" type="line"/>
      <point x="-14" y="0" type="line"/>
      <point x="206" y="0" type="line"/>
      <point x="251" y="219" type="line" smooth="yes"/>
      <point x="261" y="272"/>
      <point x="280" y="288"/>
      <point x="304" y="288" type="curve" smooth="yes"/>
      <point x="322" y="288"/>
      <point x="337" y="270"/>
      <point x="327" y="223" type="curve" smooth="yes"/>
      <point x="282" y="0" type="line"/>
      <point x="502" y="0" type="line"/>
      <point x="546" y="221" type="line" smooth="yes"/>
      <point x="556" y="272"/>
      <point x="576" y="288"/>
      <point x="599" y="288" type="curve" smooth="yes"/>
      <point x="617" y="288"/>
      <point x="632" y="270"/>
      <point x="622" y="223" type="curve" smooth="yes"/>
      <point x="577" y="0" type="line"/>
      <point x="797" y="0" type="line"/>
      <point x="848" y="251" type="line" smooth="yes"/>
      <point x="878" y="397"/>
      <point x="803" y="467"/>
      <point x="695" y="467" type="curve" smooth="yes"/>
      <point x="610" y="467"/>
      <point x="539" y="423"/>
    </contour>
    <contour>
      <point x="392" y="0" type="move" name="bottom"/>
    </contour>
  </outline>
</glyph>
<glyph name="n" format="1">
  <advance width="599"/>
  <unicode hex="006E"/>
  <outline>
    <contour>
      <point x="236" y="371" type="curve"/>
      <point x="260" y="331" type="line"/>
      <point x="287" y="458" type="line"/>
      <point x="79" y="458" type="line"/>
      <point x="-14" y="0" type="line"/>
      <point x="206" y="0" type="line"/>
      <point x="251" y="216" type="line" smooth="yes"/>
      <point x="261" y="266"/>
      <point x="283" y="288"/>
      <point x="315" y="288" type="curve" smooth="yes"/>
      <point x="337" y="288"/>
      <point x="354" y="270"/>
      <point x="345" y="225" type="curve" smooth="yes"/>
      <point x="300" y="0" type="line"/>
      <point x="520" y="0" type="line"/>
      <point x="572" y="260" type="line" smooth="yes"/>
      <point x="600" y="397"/>
      <point x="526" y="467"/>
      <point x="418" y="467" type="curve" smooth="yes"/>
      <point x="350" y="467"/>
      <point x="280" y="438"/>
    </contour>
    <contour>
      <point x="349" y="458" type="move" name="top"/>
    </contour>
    <contour>
      <point x="256" y="0" type="move" name="bottom"/>
    </contour>
  </outline>
</glyph>
<glyph name="o" format="1">
  <advance width="571"/>
  <unicode hex="006F"/>
  <outline>
    <contour>
      <point x="558" y="252" type="curve" smooth="yes"/>
      <point x="558" y="382"/>
      <point x="458" y="467"/>
      <point x="302" y="467" type="curve" smooth="yes"/>
      <point x="133" y="467"/>
      <point x="13" y="356"/>
      <point x="13" y="206" type="curve" smooth="yes"/>
      <point x="13" y="76"/>
      <point x="113" y="-9"/>
      <point x="269" y="-9" type="curve" smooth="yes"/>
      <point x="438" y="-9"/>
      <point x="558" y="102"/>
    </contour>
    <contour>
      <point x="230" y="217" type="curve" smooth="yes"/>
      <point x="230" y="269"/>
      <point x="253" y="300"/>
      <point x="290" y="300" type="curve" smooth="yes"/>
      <point x="322" y="300"/>
      <point x="341" y="275"/>
      <point x="341" y="242" type="curve" smooth="yes"/>
      <point x="341" y="190"/>
      <point x="318" y="158"/>
      <point x="281" y="158" type="curve" smooth="yes"/>
      <point x="249" y="158"/>
      <point x="230" y="183"/>
    </contour>
    <contour>
      <point x="283" y="230" type="move" name="center"/>
    </contour>
    <contour>
      <point x="345" y="0" type="move" name="ogonek"/>
    </contour>
    <contour>
      <point x="329" y="458" type="move" name="top"/>
    </contour>
    <contour>
      <point x="401" y="458" type="move" name="topright"/>
    </contour>
    <contour>
      <point x="236" y="0" type="move" name="bottom"/>
    </contour>
  </outline>
</glyph>
<glyph name="p" format="1">
  <advance width="590"/>
  <unicode hex="0070"/>
  <outline>
    <contour>
      <point x="578" y="252" type="curve" smooth="yes"/>
      <point x="578" y="392"/>
      <point x="476" y="467"/>
      <point x="389" y="467" type="curve" smooth="yes"/>
      <point x="283" y="467"/>
      <point x="216" y="382"/>
      <point x="188" y="235" type="curve" smooth="yes"/>
      <point x="155" y="46"/>
      <point x="230" y="-9"/>
      <point x="334" y="-9" type="curve" smooth="yes"/>
      <point x="464" y="-9"/>
      <point x="578" y="102"/>
    </contour>
    <contour>
      <point x="173" y="-161" type="line"/>
      <point x="216" y="48" type="line"/>
      <point x="244" y="228" type="line"/>
      <point x="277" y="410" type="line"/>
      <point x="287" y="458" type="line"/>
      <point x="79" y="458" type="line"/>
      <point x="-47" y="-161" type="line"/>
    </contour>
    <contour>
      <point x="249" y="217" type="curve" smooth="yes"/>
      <point x="249" y="268"/>
      <point x="273" y="300"/>
      <point x="309" y="300" type="curve" smooth="yes"/>
      <point x="341" y="300"/>
      <point x="360" y="275"/>
      <point x="360" y="242" type="curve" smooth="yes"/>
      <point x="360" y="190"/>
      <point x="337" y="158"/>
      <point x="300" y="158" type="curve" smooth="yes"/>
      <point x="268" y="158"/>
      <point x="249" y="183"/>
    </contour>
    <contour>
      <point x="352" y="458" type="move" name="top"/>
    </contour>
    <contour>
      <point x="310" y="0" type="move" name="bottom"/>
    </contour>
  </outline>
</glyph>
<glyph name="q" format="1">
  <advance width="590"/>
  <unicode hex="0071"/>
  <outline>
    <contour>
      <point x="402" y="223" type="curve" smooth="yes"/>
      <point x="436" y="412"/>
      <point x="360" y="467"/>
      <point x="256" y="467" type="curve" smooth="yes"/>
      <point x="126" y="467"/>
      <point x="13" y="356"/>
      <point x="13" y="206" type="curve" smooth="yes"/>
      <point x="13" y="67"/>
      <point x="114" y="-9"/>
      <point x="201" y="-9" type="curve" smooth="yes"/>
      <point x="307" y="-9"/>
      <point x="374" y="76"/>
    </contour>
    <contour>
      <point x="230" y="217" type="curve" smooth="yes"/>
      <point x="230" y="269"/>
      <point x="253" y="300"/>
      <point x="290" y="300" type="curve" smooth="yes"/>
      <point x="322" y="300"/>
      <point x="341" y="275"/>
      <point x="341" y="242" type="curve" smooth="yes"/>
      <point x="341" y="190"/>
      <point x="318" y="158"/>
      <point x="281" y="158" type="curve" smooth="yes"/>
      <point x="249" y="158"/>
      <point x="230" y="183"/>
    </contour>
    <contour>
      <point x="478" y="-161" type="line"/>
      <point x="604" y="458" type="line"/>
      <point x="395" y="458" type="line"/>
      <point x="385" y="411" type="line"/>
      <point x="345" y="230" type="line"/>
      <point x="301" y="49" type="line"/>
      <point x="258" y="-161" type="line"/>
    </contour>
    <contour>
      <point x="333" y="458" type="move" name="top"/>
    </contour>
    <contour>
      <point x="189" y="0" type="move" name="bottom"/>
    </contour>
  </outline>
</glyph>
<glyph name="r" format="1">
  <advance width="396"/>
  <unicode hex="0072"/>
  <outline>
    <contour>
      <point x="206" y="0" type="line"/>
      <point x="249" y="208" type="line" smooth="yes"/>
      <point x="261" y="263"/>
      <point x="294" y="283"/>
      <point x="351" y="283" type="curve" smooth="yes"/>
      <point x="366" y="283"/>
      <point x="379" y="282"/>
      <point x="398" y="279" type="curve"/>
      <point x="436" y="467" type="line"/>
      <point x="351" y="467"/>
      <point x="279" y="441"/>
      <point x="240" y="371" type="curve"/>
      <point x="260" y="330" type="line"/>
      <point x="287" y="458" type="line"/>
      <point x="79" y="458" type="line"/>
      <point x="-14" y="0" type="line"/>
    </contour>
    <contour>
      <point x="256" y="458" type="move" name="top"/>
    </contour>
    <contour>
      <point x="96" y="0" type="move" name="bottom"/>
    </contour>
  </outline>
</glyph>
<glyph name="s" format="1">
  <advance width="492"/>
  <unicode hex="0073"/>
  <outline>
    <contour>
      <point x="466" y="170" type="curve" smooth="yes"/>
      <point x="466" y="323"/>
      <point x="237" y="284"/>
      <point x="237" y="313" type="curve" smooth="yes"/>
      <point x="237" y="316"/>
      <point x="244" y="323"/>
      <point x="280" y="323" type="curve" smooth="yes"/>
      <point x="317" y="323"/>
      <point x="368" y="317"/>
      <point x="419" y="290" type="curve"/>
      <point x="494" y="435" type="line"/>
      <point x="443" y="456"/>
      <point x="376" y="467"/>
      <point x="306" y="467" type="curve" smooth="yes"/>
      <point x="155" y="467"/>
      <point x="31" y="411"/>
      <point x="31" y="286" type="curve" smooth="yes"/>
      <point x="31" y="134"/>
      <point x="260" y="171"/>
      <point x="260" y="144" type="curve" smooth="yes"/>
      <point x="260" y="140"/>
      <point x="254" y="135"/>
      <point x="220" y="135" type="curve" smooth="yes"/>
      <point x="169" y="135"/>
      <point x="105" y="149"/>
      <point x="57" y="175" type="curve"/>
      <point x="-18" y="30" type="line"/>
      <point x="24" y="8"/>
      <point x="106" y="-9"/>
      <point x="193" y="-9" type="curve" smooth="yes"/>
      <point x="341" y="-9"/>
      <point x="466" y="50"/>
    </contour>
    <contour>
      <point x="286" y="458" type="move" name="top"/>
    </contour>
    <contour>
      <point x="193" y="0" type="move" name="bottom"/>
    </contour>
  </outline>
</glyph>
<glyph name="t" format="1">
  <advance width="399"/>
  <unicode hex="0074"/>
  <outline>
    <contour>
      <point x="357" y="17" type="curve"/>
      <point x="333" y="160" type="line"/>
      <point x="320" y="155"/>
      <point x="309" y="152"/>
      <point x="296" y="152" type="curve" smooth="yes"/>
      <point x="276" y="152"/>
      <point x="264" y="163"/>
      <point x="268" y="188" type="curve" smooth="yes"/>
      <point x="344" y="562" type="line"/>
      <point x="124" y="562" type="line"/>
      <point x="48" y="188" type="line" smooth="yes"/>
      <point x="22" y="62"/>
      <point x="98" y="-9"/>
      <point x="225" y="-9" type="curve" smooth="yes"/>
      <point x="273" y="-9"/>
      <point x="319" y="-2"/>
    </contour>
    <contour>
      <point x="371" y="274" type="line"/>
      <point x="403" y="430" type="line"/>
      <point x="37" y="430" type="line"/>
      <point x="5" y="274" type="line"/>
    </contour>
    <contour>
      <point x="176" y="211" type="move" name="center"/>
    </contour>
    <contour>
      <point x="234" y="562" type="move" name="top"/>
    </contour>
    <contour>
      <point x="388" y="617" type="move" name="topright"/>
    </contour>
    <contour>
      <point x="189" y="0" type="move" name="bottom"/>
    </contour>
  </outline>
</glyph>
<glyph name="u" format="1">
  <advance width="595"/>
  <unicode hex="0075"/>
  <outline>
    <contour>
      <point x="359" y="87" type="curve"/>
      <point x="335" y="128" type="line"/>
      <point x="309" y="0" type="line"/>
      <point x="516" y="0" type="line"/>
      <point x="609" y="458" type="line"/>
      <point x="389" y="458" type="line"/>
      <point x="345" y="243" type="line" smooth="yes"/>
      <point x="335" y="192"/>
      <point x="313" y="170"/>
      <point x="282" y="170" type="curve" smooth="yes"/>
      <point x="260" y="170"/>
      <point x="244" y="188"/>
      <point x="253" y="233" type="curve" smooth="yes"/>
      <point x="299" y="458" type="line"/>
      <point x="79" y="458" type="line"/>
      <point x="26" y="198" type="line" smooth="yes"/>
      <point x="-2" y="61"/>
      <point x="71" y="-9"/>
      <point x="179" y="-9" type="curve" smooth="yes"/>
      <point x="246" y="-9"/>
      <point x="315" y="20"/>
    </contour>
    <contour>
      <point x="516" y="0" type="move" name="ogonek"/>
    </contour>
    <contour>
      <point x="344" y="458" type="move" name="top"/>
    </contour>
    <contour>
      <point x="499" y="458" type="move" name="topright"/>
    </contour>
    <contour>
      <point x="250" y="0" type="move" name="bottom"/>
    </contour>
  </outline>
</glyph>
<glyph name="v" format="1">
  <advance width="564"/>
  <unicode hex="0076"/>
  <outline>
    <contour>
      <point x="350" y="0" type="line"/>
      <point x="627" y="458" type="line"/>
      <point x="410" y="458" type="line"/>
      <point x="197" y="96" type="line"/>
      <point x="311" y="96" type="line"/>
      <point x="248" y="458" type="line"/>
      <point x="31" y="458" type="line"/>
      <point x="122" y="0" type="line"/>
    </contour>
    <contour>
      <point x="329" y="458" type="move" name="top"/>
    </contour>
    <contour>
      <point x="236" y="0" type="move" name="bottom"/>
    </contour>
  </outline>
</glyph>
<glyph name="w" format="1">
  <advance width="896"/>
  <unicode hex="0077"/>
  <outline>
    <contour>
      <point x="343" y="0" type="line"/>
      <point x="487" y="274" type="line"/>
      <point x="419" y="274" type="line"/>
      <point x="461" y="0" type="line"/>
      <point x="689" y="0" type="line"/>
      <point x="950" y="458" type="line"/>
      <point x="736" y="458" type="line"/>
      <point x="531" y="97" type="line"/>
      <point x="640" y="97" type="line"/>
      <point x="592" y="458" type="line"/>
      <point x="393" y="458" type="line"/>
      <point x="188" y="97" type="line"/>
      <point x="299" y="97" type="line"/>
      <point x="250" y="458" type="line"/>
      <point x="39" y="458" type="line"/>
      <point x="115" y="0" type="line"/>
    </contour>
    <contour>
      <point x="495" y="458" type="move" name="top"/>
    </contour>
    <contour>
      <point x="402" y="0" type="move" name="bottom"/>
    </contour>
  </outline>
</glyph>
<glyph name="x" format="1">
  <advance width="566"/>
  <unicode hex="0078"/>
  <outline>
    <contour>
      <point x="184" y="0" type="line"/>
      <point x="324" y="153" type="line"/>
      <point x="218" y="153" type="line"/>
      <point x="292" y="0" type="line"/>
      <point x="525" y="0" type="line"/>
      <point x="373" y="283" type="line"/>
      <point x="354" y="174" type="line"/>
      <point x="632" y="458" type="line"/>
      <point x="392" y="458" type="line"/>
      <point x="252" y="307" type="line"/>
      <point x="354" y="308" type="line"/>
      <point x="280" y="458" type="line"/>
      <point x="49" y="458" type="line"/>
      <point x="195" y="184" type="line"/>
      <point x="227" y="291" type="line"/>
      <point x="-64" y="0" type="line"/>
    </contour>
  </outline>
</glyph>
<glyph name="y" format="1">
  <advance width="564"/>
  <unicode hex="0079"/>
  <outline>
    <contour>
      <point x="351" y="1" type="curve" smooth="yes"/>
      <point x="627" y="458" type="line"/>
      <point x="412" y="458" type="line"/>
      <point x="201" y="95" type="line"/>
      <point x="185" y="75" type="line"/>
      <point x="158" y="30" type="line" smooth="yes"/>
      <point x="145" y="8"/>
      <point x="131" y="-6"/>
      <point x="103" y="-6" type="curve" smooth="yes"/>
      <point x="78" y="-6"/>
      <point x="54" y="4"/>
      <point x="35" y="17" type="curve"/>
      <point x="-59" y="-131" type="line"/>
      <point x="-27" y="-154"/>
      <point x="31" y="-170"/>
      <point x="84" y="-170" type="curve" smooth="yes"/>
      <point x="200" y="-170"/>
      <point x="270" y="-132"/>
    </contour>
    <contour>
      <point x="312" y="114" type="line"/>
      <point x="250" y="458" type="line"/>
      <point x="31" y="458" type="line"/>
      <point x="134" y="-23" type="line"/>
    </contour>
    <contour>
      <point x="322" y="458" type="move" name="top"/>
    </contour>
    <contour>
      <point x="426" y="0" type="move" name="bottom"/>
    </contour>
  </outline>
</glyph>
<glyph name="z" format="1">
  <advance width="493"/>
  <unicode hex="007A"/>
  <outline>
    <contour>
      <point x="435" y="0" type="line"/>
      <point x="467" y="155" type="line"/>
      <point x="187" y="155" type="line"/>
      <point x="219" y="87" type="line"/>
      <point x="493" y="336" type="line"/>
      <point x="518" y="458" type="line"/>
      <point x="76" y="458" type="line"/>
      <point x="44" y="303" type="line"/>
      <point x="308" y="303" type="line"/>
      <point x="277" y="371" type="line"/>
      <point x="1" y="122" type="line"/>
      <point x="-24" y="0" type="line"/>
    </contour>
    <contour>
      <point x="298" y="458" type="move" name="top"/>
    </contour>
    <contour>
      <point x="203" y="0" type="move" name="bottom"/>
    </contour>
  </outline>
</glyph>
<glyph name="braceleft" format="1">
  <advance width="390"/>
  <unicode hex="007B"/>
  <outline>
    <contour>
      <point x="304" y="-161" type="line"/>
      <point x="337" y="-1" type="line"/>
      <point x="331" y="-1" type="line" smooth="yes"/>
      <point x="294" y="-1"/>
      <point x="278" y="22"/>
      <point x="284" y="56" type="curve" smooth="yes"/>
      <point x="294" y="107" type="line" smooth="yes"/>
      <point x="311" y="188"/>
      <point x="276" y="232"/>
      <point x="173" y="239" type="curve"/>
      <point x="168" y="217" type="line"/>
      <point x="286" y="223"/>
      <point x="323" y="248"/>
      <point x="344" y="348" type="curve" smooth="yes"/>
      <point x="354" y="400" type="line" smooth="yes"/>
      <point x="362" y="441"/>
      <point x="379" y="457"/>
      <point x="423" y="457" type="curve" smooth="yes"/>
      <point x="429" y="457" type="line"/>
      <point x="462" y="617" type="line"/>
      <point x="392" y="617" type="line" smooth="yes"/>
      <point x="241" y="617"/>
      <point x="166" y="560"/>
      <point x="138" y="425" type="curve" smooth="yes"/>
      <point x="123" y="343" type="line" smooth="yes"/>
      <point x="118" y="319"/>
      <point x="99" y="308"/>
      <point x="79" y="308" type="curve" smooth="yes"/>
      <point x="51" y="308" type="line"/>
      <point x="18" y="148" type="line"/>
      <point x="46" y="148" type="line" smooth="yes"/>
      <point x="67" y="148"/>
      <point x="80" y="136"/>
      <point x="75" y="112" type="curve" smooth="yes"/>
      <point x="58" y="28" type="line" smooth="yes"/>
      <point x="36" y="-81"/>
      <point x="99" y="-161"/>
      <point x="234" y="-161" type="curve" smooth="yes"/>
    </contour>
  </outline>
</glyph>
<glyph name="bar" format="1">
  <advance width="275"/>
  <unicode hex="007C"/>
  <outline>
    <contour>
      <point x="159" y="-161" type="line"/>
      <point x="317" y="617" type="line"/>
      <point x="117" y="617" type="line"/>
      <point x="-42" y="-161" type="line"/>
    </contour>
  </outline>
</glyph>
<glyph name="braceright" format="1">
  <advance width="390"/>
  <unicode hex="007D"/>
  <outline>
    <contour>
      <point x="-3" y="-161" type="line"/>
      <point x="148" y="-161"/>
      <point x="223" y="-105"/>
      <point x="251" y="31" type="curve" smooth="yes"/>
      <point x="267" y="112" type="line" smooth="yes"/>
      <point x="271" y="136"/>
      <point x="290" y="148"/>
      <point x="310" y="148" type="curve" smooth="yes"/>
      <point x="338" y="148" type="line"/>
      <point x="371" y="308" type="line"/>
      <point x="343" y="308" type="line" smooth="yes"/>
      <point x="323" y="308"/>
      <point x="309" y="319"/>
      <point x="314" y="343" type="curve" smooth="yes"/>
      <point x="331" y="427" type="line" smooth="yes"/>
      <point x="353" y="537"/>
      <point x="290" y="617"/>
      <point x="155" y="617" type="curve" smooth="yes"/>
      <point x="85" y="617" type="line"/>
      <point x="52" y="457" type="line"/>
      <point x="58" y="457" type="line" smooth="yes"/>
      <point x="95" y="457"/>
      <point x="112" y="433"/>
      <point x="105" y="399" type="curve" smooth="yes"/>
      <point x="95" y="348" type="line" smooth="yes"/>
      <point x="79" y="267"/>
      <point x="113" y="223"/>
      <point x="216" y="216" type="curve"/>
      <point x="221" y="239" type="line"/>
      <point x="104" y="232"/>
      <point x="66" y="207"/>
      <point x="45" y="107" type="curve" smooth="yes"/>
      <point x="36" y="56" type="line" smooth="yes"/>
      <point x="27" y="14"/>
      <point x="10" y="-1"/>
      <point x="-34" y="-1" type="curve" smooth="yes"/>
      <point x="-40" y="-1" type="line"/>
      <point x="-73" y="-161" type="line"/>
    </contour>
  </outline>
</glyph>
<glyph name="asciitilde" format="1">
  <advance width="533"/>
  <unicode hex="007E"/>
  <outline>
    <contour>
      <point x="534" y="384" type="curve"/>
      <point x="401" y="384" type="line"/>
      <point x="396" y="354"/>
      <point x="380" y="338"/>
      <point x="356" y="338" type="curve" smooth="yes"/>
      <point x="323" y="338"/>
      <point x="284" y="396"/>
      <point x="208" y="396" type="curve" smooth="yes"/>
      <point x="119" y="396"/>
      <point x="40" y="323"/>
      <point x="23" y="200" type="curve"/>
      <point x="156" y="200" type="line"/>
      <point x="161" y="230"/>
      <point x="178" y="247"/>
      <point x="202" y="247" type="curve" smooth="yes"/>
      <point x="235" y="247"/>
      <point x="274" y="189"/>
      <point x="351" y="189" type="curve" smooth="yes"/>
      <point x="439" y="189"/>
      <point x="517" y="261"/>
    </contour>
  </outline>
</glyph>
<glyph name="exclamdown" format="1">
  <advance width="276"/>
  <unicode hex="00A1"/>
  <outline>
    <contour>
      <point x="49" y="226" type="line"/>
      <point x="-66" y="-128" type="line"/>
      <point x="197" y="-128" type="line"/>
      <point x="225" y="226" type="line"/>
    </contour>
    <contour>
      <point x="30" y="347" type="curve" smooth="yes"/>
      <point x="30" y="287"/>
      <point x="82" y="240"/>
      <point x="157" y="240" type="curve" smooth="yes"/>
      <point x="237" y="240"/>
      <point x="298" y="292"/>
      <point x="298" y="366" type="curve" smooth="yes"/>
      <point x="298" y="426"/>
      <point x="246" y="474"/>
      <point x="171" y="474" type="curve" smooth="yes"/>
      <point x="91" y="474"/>
      <point x="30" y="418"/>
    </contour>
  </outline>
</glyph>
<glyph name="sterling" format="1">
  <advance width="598"/>
  <unicode hex="00A3"/>
  <outline>
    <contour>
      <point x="284" y="18" type="line"/>
      <point x="347" y="327" type="line" smooth="yes"/>
      <point x="361" y="394"/>
      <point x="399" y="417"/>
      <point x="461" y="417" type="curve" smooth="yes"/>
      <point x="492" y="417"/>
      <point x="526" y="412"/>
      <point x="562" y="398" type="curve"/>
      <point x="653" y="562" type="line"/>
      <point x="609" y="584"/>
      <point x="550" y="597"/>
      <point x="477" y="597" type="curve" smooth="yes"/>
      <point x="298" y="597"/>
      <point x="156" y="517"/>
      <point x="116" y="322" type="curve" smooth="yes"/>
      <point x="54" y="18" type="line"/>
    </contour>
    <contour>
      <point x="521" y="0" type="line"/>
      <point x="556" y="168" type="line"/>
      <point x="13" y="168" type="line"/>
      <point x="-22" y="0" type="line"/>
    </contour>
    <contour>
      <point x="492" y="229" type="line"/>
      <point x="517" y="353" type="line"/>
      <point x="50" y="353" type="line"/>
      <point x="25" y="229" type="line"/>
    </contour>
  </outline>
</glyph>
<glyph name="currency" format="1">
  <advance width="592"/>
  <unicode hex="00A4"/>
  <outline>
    <contour>
      <point x="514" y="269" type="curve" smooth="yes"/>
      <point x="514" y="384"/>
      <point x="421" y="478"/>
      <point x="303" y="478" type="curve" smooth="yes"/>
      <point x="187" y="478"/>
      <point x="92" y="384"/>
      <point x="92" y="269" type="curve" smooth="yes"/>
      <point x="92" y="154"/>
      <point x="187" y="60"/>
      <point x="303" y="60" type="curve" smooth="yes"/>
      <point x="420" y="60"/>
      <point x="514" y="154"/>
    </contour>
    <contour>
      <point x="230" y="73" type="line"/>
      <point x="109" y="191" type="line"/>
      <point x="21" y="103" type="line"/>
      <point x="142" y="-14" type="line"/>
    </contour>
    <contour>
      <point x="162" y="515" type="line"/>
      <point x="73" y="602" type="line"/>
      <point x="-48" y="484" type="line"/>
      <point x="41" y="397" type="line"/>
    </contour>
    <contour>
      <point x="656" y="43" type="line"/>
      <point x="567" y="130" type="line"/>
      <point x="446" y="13" type="line"/>
      <point x="534" y="-74" type="line"/>
    </contour>
    <contour>
      <point x="262" y="269" type="curve" smooth="yes"/>
      <point x="262" y="294"/>
      <point x="280" y="314"/>
      <point x="303" y="314" type="curve" smooth="yes"/>
      <point x="326" y="314"/>
      <point x="345" y="294"/>
      <point x="345" y="269" type="curve" smooth="yes"/>
      <point x="345" y="244"/>
      <point x="326" y="225"/>
      <point x="303" y="225" type="curve" smooth="yes"/>
      <point x="280" y="225"/>
      <point x="262" y="244"/>
    </contour>
    <contour>
      <point x="587" y="424" type="line"/>
      <point x="466" y="542" type="line"/>
      <point x="377" y="455" type="line"/>
      <point x="499" y="337" type="line"/>
    </contour>
  </outline>
</glyph>
<glyph name="yen" format="1">
  <advance width="665"/>
  <unicode hex="00A5"/>
  <outline>
    <contour>
      <point x="401" y="0" type="line"/>
      <point x="452" y="255" type="line"/>
      <point x="374" y="123" type="line"/>
      <point x="765" y="582" type="line"/>
      <point x="529" y="582" type="line"/>
      <point x="266" y="266" type="line"/>
      <point x="414" y="266" type="line"/>
      <point x="277" y="582" type="line"/>
      <point x="43" y="582" type="line"/>
      <point x="247" y="142" type="line"/>
      <point x="222" y="255" type="line"/>
      <point x="171" y="0" type="line"/>
    </contour>
    <contour>
      <point x="532" y="38" type="line"/>
      <point x="554" y="143" type="line"/>
      <point x="75" y="143" type="line"/>
      <point x="54" y="38" type="line"/>
    </contour>
    <contour>
      <point x="556" y="153" type="line"/>
      <point x="577" y="257" type="line"/>
      <point x="99" y="257" type="line"/>
      <point x="78" y="153" type="line"/>
    </contour>
  </outline>
</glyph>
<glyph name="brokenbar" format="1">
  <advance width="275"/>
  <unicode hex="00A6"/>
  <outline>
    <contour>
      <point x="258" y="326" type="line"/>
      <point x="317" y="617" type="line"/>
      <point x="117" y="617" type="line"/>
      <point x="57" y="326" type="line"/>
    </contour>
    <contour>
      <point x="159" y="-161" type="line"/>
      <point x="218" y="130" type="line"/>
      <point x="18" y="130" type="line"/>
      <point x="-42" y="-161" type="line"/>
    </contour>
  </outline>
</glyph>
<glyph name="section" format="1">
  <advance width="475"/>
  <unicode hex="00A7"/>
  <outline>
    <contour>
      <point x="466" y="287" type="curve" smooth="yes"/>
      <point x="466" y="427"/>
      <point x="261" y="398"/>
      <point x="261" y="430" type="curve" smooth="yes"/>
      <point x="261" y="437"/>
      <point x="269" y="446"/>
      <point x="310" y="446" type="curve" smooth="yes"/>
      <point x="358" y="446"/>
      <point x="403" y="440"/>
      <point x="450" y="414" type="curve"/>
      <point x="529" y="554" type="line"/>
      <point x="475" y="581"/>
      <point x="394" y="591"/>
      <point x="342" y="591" type="curve" smooth="yes"/>
      <point x="189" y="591"/>
      <point x="66" y="533"/>
      <point x="66" y="401" type="curve" smooth="yes"/>
      <point x="66" y="256"/>
      <point x="274" y="295"/>
      <point x="274" y="249" type="curve" smooth="yes"/>
      <point x="274" y="240"/>
      <point x="265" y="227"/>
      <point x="239" y="216" type="curve"/>
      <point x="322" y="120" type="line"/>
      <point x="406" y="149"/>
      <point x="466" y="202"/>
    </contour>
    <contour>
      <point x="413" y="99" type="curve" smooth="yes"/>
      <point x="413" y="242"/>
      <point x="207" y="207"/>
      <point x="207" y="249" type="curve" smooth="yes"/>
      <point x="207" y="259"/>
      <point x="211" y="272"/>
      <point x="241" y="284" type="curve"/>
      <point x="158" y="380" type="line"/>
      <point x="70" y="350"/>
      <point x="12" y="293"/>
      <point x="12" y="211" type="curve" smooth="yes"/>
      <point x="12" y="77"/>
      <point x="218" y="102"/>
      <point x="218" y="70" type="curve" smooth="yes"/>
      <point x="218" y="62"/>
      <point x="210" y="53"/>
      <point x="170" y="53" type="curve" smooth="yes"/>
      <point x="133" y="53"/>
      <point x="89" y="63"/>
      <point x="38" y="94" type="curve"/>
      <point x="-41" y="-46" type="line"/>
      <point x="7" y="-79"/>
      <point x="88" y="-91"/>
      <point x="157" y="-91" type="curve" smooth="yes"/>
      <point x="300" y="-91"/>
      <point x="413" y="-27"/>
    </contour>
  </outline>
</glyph>
<glyph name="copyright" format="1">
  <advance width="638"/>
  <unicode hex="00A9"/>
  <outline>
    <contour>
      <point x="630" y="293" type="curve" smooth="yes"/>
      <point x="630" y="458"/>
      <point x="502" y="584"/>
      <point x="332" y="584" type="curve" smooth="yes"/>
      <point x="162" y="584"/>
      <point x="33" y="455"/>
      <point x="33" y="291" type="curve" smooth="yes"/>
      <point x="33" y="127"/>
      <point x="162" y="-2"/>
      <point x="330" y="-2" type="curve" smooth="yes"/>
      <point x="499" y="-2"/>
      <point x="630" y="127"/>
    </contour>
    <contour>
      <point x="123" y="291" type="curve" smooth="yes"/>
      <point x="123" y="411"/>
      <point x="209" y="503"/>
      <point x="332" y="503" type="curve" smooth="yes"/>
      <point x="455" y="503"/>
      <point x="540" y="413"/>
      <point x="540" y="293" type="curve" smooth="yes"/>
      <point x="540" y="172"/>
      <point x="452" y="79"/>
      <point x="330" y="79" type="curve" smooth="yes"/>
      <point x="209" y="79"/>
      <point x="123" y="171"/>
    </contour>
    <contour>
      <point x="501" y="227" type="curve"/>
      <point x="377" y="288" type="line"/>
      <point x="369" y="265"/>
      <point x="358" y="257"/>
      <point x="344" y="257" type="curve" smooth="yes"/>
      <point x="333" y="257"/>
      <point x="320" y="267"/>
      <point x="320" y="291" type="curve" smooth="yes"/>
      <point x="320" y="315"/>
      <point x="333" y="324"/>
      <point x="344" y="324" type="curve" smooth="yes"/>
      <point x="358" y="324"/>
      <point x="369" y="317"/>
      <point x="377" y="294" type="curve"/>
      <point x="501" y="354" type="line"/>
      <point x="483" y="416"/>
      <point x="424" y="454"/>
      <point x="345" y="454" type="curve" smooth="yes"/>
      <point x="237" y="454"/>
      <point x="161" y="386"/>
      <point x="161" y="291" type="curve" smooth="yes"/>
      <point x="161" y="195"/>
      <point x="237" y="128"/>
      <point x="345" y="128" type="curve" smooth="yes"/>
      <point x="424" y="128"/>
      <point x="483" y="166"/>
    </contour>
  </outline>
</glyph>
<glyph name="ordfeminine" format="1">
  <advance width="362"/>
  <unicode hex="00AA"/>
  <outline>
    <contour>
      <point x="362" y="347" type="line"/>
      <point x="389" y="480" type="line" smooth="yes"/>
      <point x="409" y="579"/>
      <point x="351" y="626"/>
      <point x="234" y="626" type="curve" smooth="yes"/>
      <point x="188" y="626"/>
      <point x="135" y="616"/>
      <point x="100" y="596" type="curve"/>
      <point x="127" y="509" type="line"/>
      <point x="143" y="521"/>
      <point x="176" y="528"/>
      <point x="197" y="528" type="curve" smooth="yes"/>
      <point x="237" y="528"/>
      <point x="247" y="510"/>
      <point x="244" y="496" type="curve" smooth="yes"/>
      <point x="225" y="406" type="line"/>
      <point x="233" y="393" type="line"/>
      <point x="224" y="347" type="line"/>
    </contour>
    <contour>
      <point x="242" y="400" type="curve"/>
      <point x="232" y="438" type="line"/>
      <point x="225" y="425"/>
      <point x="215" y="421"/>
      <point x="207" y="421" type="curve" smooth="yes"/>
      <point x="198" y="421"/>
      <point x="192" y="426"/>
      <point x="192" y="433" type="curve" smooth="yes"/>
      <point x="192" y="443"/>
      <point x="201" y="449"/>
      <point x="222" y="449" type="curve" smooth="yes"/>
      <point x="247" y="449" type="line"/>
      <point x="260" y="512" type="line"/>
      <point x="212" y="512" type="line" smooth="yes"/>
      <point x="124" y="512"/>
      <point x="50" y="488"/>
      <point x="50" y="415" type="curve" smooth="yes"/>
      <point x="50" y="373"/>
      <point x="82" y="342"/>
      <point x="148" y="342" type="curve" smooth="yes"/>
      <point x="198" y="342"/>
      <point x="225" y="360"/>
    </contour>
  </outline>
</glyph>
<glyph name="logicalnot" format="1">
  <advance width="533"/>
  <unicode hex="00AC"/>
  <outline>
    <contour>
      <point x="72" y="371" type="line"/>
      <point x="40" y="211" type="line"/>
      <point x="310" y="211" type="line"/>
      <point x="282" y="71" type="line"/>
      <point x="456" y="71" type="line"/>
      <point x="518" y="371" type="line"/>
    </contour>
  </outline>
</glyph>
<glyph name="registered" format="1">
  <advance width="638"/>
  <unicode hex="00AE"/>
  <outline>
    <contour>
      <point x="630" y="293" type="curve" smooth="yes"/>
      <point x="630" y="458"/>
      <point x="502" y="584"/>
      <point x="332" y="584" type="curve" smooth="yes"/>
      <point x="162" y="584"/>
      <point x="33" y="455"/>
      <point x="33" y="291" type="curve" smooth="yes"/>
      <point x="33" y="127"/>
      <point x="162" y="-2"/>
      <point x="330" y="-2" type="curve" smooth="yes"/>
      <point x="499" y="-2"/>
      <point x="630" y="127"/>
    </contour>
    <contour>
      <point x="513" y="137" type="line"/>
      <point x="437" y="253" type="line"/>
      <point x="296" y="253" type="line"/>
      <point x="372" y="137" type="line"/>
    </contour>
    <contour>
      <point x="123" y="291" type="curve" smooth="yes"/>
      <point x="123" y="411"/>
      <point x="209" y="503"/>
      <point x="332" y="503" type="curve" smooth="yes"/>
      <point x="455" y="503"/>
      <point x="540" y="413"/>
      <point x="540" y="293" type="curve" smooth="yes"/>
      <point x="540" y="172"/>
      <point x="452" y="79"/>
      <point x="330" y="79" type="curve" smooth="yes"/>
      <point x="209" y="79"/>
      <point x="123" y="171"/>
    </contour>
    <contour>
      <point x="325" y="137" type="line"/>
      <point x="325" y="210" type="line"/>
      <point x="341" y="210" type="line" smooth="yes"/>
      <point x="438" y="210"/>
      <point x="494" y="249"/>
      <point x="494" y="327" type="curve" smooth="yes"/>
      <point x="494" y="399"/>
      <point x="438" y="445"/>
      <point x="341" y="445" type="curve" smooth="yes"/>
      <point x="186" y="445" type="line"/>
      <point x="186" y="137" type="line"/>
    </contour>
    <contour>
      <point x="325" y="352" type="line"/>
      <point x="333" y="352" type="line" smooth="yes"/>
      <point x="347" y="352"/>
      <point x="355" y="342"/>
      <point x="355" y="327" type="curve" smooth="yes"/>
      <point x="355" y="312"/>
      <point x="347" y="302"/>
      <point x="333" y="302" type="curve" smooth="yes"/>
      <point x="325" y="302" type="line"/>
    </contour>
  </outline>
</glyph>
<glyph name="degree" format="1">
  <advance width="351"/>
  <unicode hex="00B0"/>
  <outline>
    <contour>
      <point x="382" y="438" type="curve" smooth="yes"/>
      <point x="382" y="525"/>
      <point x="308" y="592"/>
      <point x="218" y="592" type="curve" smooth="yes"/>
      <point x="128" y="592"/>
      <point x="53" y="525"/>
      <point x="53" y="438" type="curve" smooth="yes"/>
      <point x="53" y="351"/>
      <point x="128" y="283"/>
      <point x="218" y="283" type="curve" smooth="yes"/>
      <point x="308" y="283"/>
      <point x="382" y="351"/>
    </contour>
    <contour>
      <point x="161" y="438" type="curve" smooth="yes"/>
      <point x="161" y="470"/>
      <point x="185" y="495"/>
      <point x="218" y="495" type="curve" smooth="yes"/>
      <point x="251" y="495"/>
      <point x="274" y="470"/>
      <point x="274" y="438" type="curve" smooth="yes"/>
      <point x="274" y="406"/>
      <point x="251" y="380"/>
      <point x="218" y="380" type="curve" smooth="yes"/>
      <point x="185" y="380"/>
      <point x="161" y="406"/>
    </contour>
  </outline>
</glyph>
<glyph name="plusminus" format="1">
  <advance width="533"/>
  <unicode hex="00B1"/>
  <outline>
    <contour>
      <point x="442" y="0" type="line"/>
      <point x="475" y="160" type="line"/>
      <point x="30" y="160" type="line"/>
      <point x="-3" y="0" type="line"/>
    </contour>
    <contour>
      <point x="349" y="206" type="line"/>
      <point x="430" y="600" type="line"/>
      <point x="255" y="600" type="line"/>
      <point x="174" y="206" type="line"/>
    </contour>
    <contour>
      <point x="509" y="327" type="line"/>
      <point x="541" y="479" type="line"/>
      <point x="95" y="479" type="line"/>
      <point x="63" y="327" type="line"/>
    </contour>
  </outline>
</glyph>
<glyph name="paragraph" format="1">
  <advance width="636"/>
  <unicode hex="00B6"/>
  <outline>
    <contour>
      <point x="307" y="-83" type="line"/>
      <point x="419" y="471" type="line"/>
      <point x="470" y="471" type="line"/>
      <point x="358" y="-83" type="line"/>
      <point x="534" y="-83" type="line"/>
      <point x="677" y="617" type="line"/>
      <point x="321" y="617" type="line" smooth="yes"/>
      <point x="175" y="617"/>
      <point x="74" y="576"/>
      <point x="48" y="449" type="curve" smooth="yes"/>
      <point x="26" y="336"/>
      <point x="106" y="273"/>
      <point x="202" y="266" type="curve"/>
      <point x="130" y="-83" type="line"/>
    </contour>
  </outline>
</glyph>
<glyph name="periodcentered" format="1">
  <advance width="308"/>
  <unicode hex="00B7"/>
  <outline>
    <contour>
      <point x="283" y="253" type="curve" smooth="yes"/>
      <point x="283" y="319"/>
      <point x="237" y="363"/>
      <point x="166" y="363" type="curve" smooth="yes"/>
      <point x="90" y="363"/>
      <point x="29" y="312"/>
      <point x="29" y="234" type="curve" smooth="yes"/>
      <point x="29" y="170"/>
      <point x="78" y="123"/>
      <point x="148" y="123" type="curve" smooth="yes"/>
      <point x="222" y="123"/>
      <point x="283" y="174"/>
    </contour>
  </outline>
</glyph>
<glyph name="ordmasculine" format="1">
  <advance width="375"/>
  <unicode hex="00BA"/>
  <outline>
    <contour>
      <point x="416" y="496" type="curve" smooth="yes"/>
      <point x="416" y="570"/>
      <point x="351" y="626"/>
      <point x="254" y="626" type="curve" smooth="yes"/>
      <point x="146" y="626"/>
      <point x="61" y="567"/>
      <point x="61" y="473" type="curve" smooth="yes"/>
      <point x="61" y="397"/>
      <point x="127" y="342"/>
      <point x="224" y="342" type="curve" smooth="yes"/>
      <point x="333" y="342"/>
      <point x="416" y="401"/>
    </contour>
    <contour>
      <point x="208" y="478" type="curve" smooth="yes"/>
      <point x="208" y="504"/>
      <point x="221" y="523"/>
      <point x="242" y="523" type="curve" smooth="yes"/>
      <point x="259" y="523"/>
      <point x="270" y="512"/>
      <point x="270" y="489" type="curve" smooth="yes"/>
      <point x="270" y="458"/>
      <point x="252" y="445"/>
      <point x="235" y="445" type="curve" smooth="yes"/>
      <point x="217" y="445"/>
      <point x="208" y="458"/>
    </contour>
  </outline>
</glyph>
<glyph name="questiondown" format="1">
  <advance width="520"/>
  <unicode hex="00BF"/>
  <outline>
    <contour>
      <point x="481" y="-1" type="curve"/>
      <point x="337" y="87" type="line"/>
      <point x="318" y="52"/>
      <point x="283" y="30"/>
      <point x="252" y="30" type="curve" smooth="yes"/>
      <point x="228" y="30"/>
      <point x="217" y="40"/>
      <point x="217" y="54" type="curve" smooth="yes"/>
      <point x="217" y="104"/>
      <point x="330" y="126"/>
      <point x="350" y="226" type="curve"/>
      <point x="150" y="226" type="line"/>
      <point x="140" y="165"/>
      <point x="-18" y="140"/>
      <point x="-18" y="8" type="curve" smooth="yes"/>
      <point x="-18" y="-82"/>
      <point x="68" y="-142"/>
      <point x="199" y="-142" type="curve" smooth="yes"/>
      <point x="326" y="-142"/>
      <point x="432" y="-84"/>
    </contour>
    <contour>
      <point x="403" y="366" type="curve" smooth="yes"/>
      <point x="403" y="422"/>
      <point x="355" y="467"/>
      <point x="284" y="467" type="curve" smooth="yes"/>
      <point x="208" y="467"/>
      <point x="150" y="415"/>
      <point x="150" y="347" type="curve" smooth="yes"/>
      <point x="150" y="290"/>
      <point x="199" y="247"/>
      <point x="270" y="247" type="curve" smooth="yes"/>
      <point x="346" y="247"/>
      <point x="403" y="296"/>
    </contour>
  </outline>
</glyph>
<glyph name="AE" format="1">
  <advance width="968"/>
  <unicode hex="00C6"/>
  <outline>
    <contour>
      <point x="180" y="0" type="line"/>
      <point x="518" y="503" type="line"/>
      <point x="358" y="414" type="line"/>
      <point x="551" y="414" type="line"/>
      <point x="586" y="582" type="line"/>
      <point x="348" y="582" type="line"/>
      <point x="-67" y="0" type="line"/>
    </contour>
    <contour>
      <point x="485" y="90" type="line"/>
      <point x="518" y="250" type="line"/>
      <point x="202" y="250" type="line"/>
      <point x="170" y="90" type="line"/>
    </contour>
    <contour>
      <point x="897" y="0" type="line"/>
      <point x="932" y="168" type="line"/>
      <point x="648" y="168" type="line"/>
      <point x="698" y="414" type="line"/>
      <point x="970" y="414" type="line"/>
      <point x="1005" y="582" type="line"/>
      <point x="507" y="582" type="line"/>
      <point x="388" y="0" type="line"/>
    </contour>
    <contour>
      <point x="896" y="215" type="line"/>
      <point x="929" y="375" type="line"/>
      <point x="676" y="375" type="line"/>
      <point x="643" y="215" type="line"/>
    </contour>
    <contour>
      <point x="620" y="582" type="move" name="top"/>
    </contour>
    <contour>
      <point x="501" y="0" type="move" name="bottom"/>
    </contour>
  </outline>
</glyph>
<glyph name="multiply" format="1">
  <advance width="533"/>
  <unicode hex="00D7"/>
  <outline>
    <contour>
      <point x="155" y="81" type="line"/>
      <point x="512" y="384" type="line"/>
      <point x="402" y="501" type="line"/>
      <point x="45" y="198" type="line"/>
    </contour>
    <contour>
      <point x="352" y="81" type="line"/>
      <point x="481" y="190" type="line"/>
      <point x="206" y="501" type="line"/>
      <point x="76" y="392" type="line"/>
    </contour>
  </outline>
</glyph>
<glyph name="Thorn" format="1">
  <advance width="633"/>
  <unicode hex="00DE"/>
  <outline>
    <contour>
      <point x="324" y="83" type="line" smooth="yes"/>
      <point x="509" y="83"/>
      <point x="629" y="185"/>
      <point x="629" y="332" type="curve" smooth="yes"/>
      <point x="629" y="456"/>
      <point x="536" y="530"/>
      <point x="375" y="530" type="curve" smooth="yes"/>
      <point x="282" y="530" type="line"/>
      <point x="247" y="359" type="line"/>
      <point x="339" y="359" type="line" smooth="yes"/>
      <point x="373" y="359"/>
      <point x="396" y="346"/>
      <point x="396" y="312" type="curve" smooth="yes"/>
      <point x="396" y="276"/>
      <point x="374" y="254"/>
      <point x="336" y="254" type="curve" smooth="yes"/>
      <point x="226" y="254" type="line"/>
      <point x="191" y="83" type="line"/>
    </contour>
    <contour>
      <point x="221" y="0" type="line"/>
      <point x="339" y="583" type="line"/>
      <point x="109" y="583" type="line"/>
      <point x="-9" y="0" type="line"/>
    </contour>
  </outline>
</glyph>
<glyph name="germandbls" format="1">
  <advance width="607"/>
  <unicode hex="00DF"/>
  <outline>
    <contour>
      <point x="581" y="190" type="curve" smooth="yes"/>
      <point x="581" y="291"/>
      <point x="495" y="354"/>
      <point x="360" y="354" type="curve"/>
      <point x="317" y="267" type="line"/>
      <point x="487" y="267"/>
      <point x="582" y="342"/>
      <point x="582" y="454" type="curve" smooth="yes"/>
      <point x="582" y="558"/>
      <point x="492" y="626"/>
      <point x="357" y="626" type="curve" smooth="yes"/>
      <point x="214" y="626"/>
      <point x="99" y="556"/>
      <point x="67" y="397" type="curve" smooth="yes"/>
      <point x="-14" y="0" type="line"/>
      <point x="206" y="0" type="line"/>
      <point x="291" y="416" type="line" smooth="yes"/>
      <point x="296" y="442"/>
      <point x="311" y="462"/>
      <point x="337" y="462" type="curve" smooth="yes"/>
      <point x="358" y="462"/>
      <point x="373" y="448"/>
      <point x="373" y="426" type="curve" smooth="yes"/>
      <point x="373" y="397"/>
      <point x="356" y="375"/>
      <point x="317" y="373" type="curve"/>
      <point x="284" y="213" type="line"/>
      <point x="325" y="213" type="line" smooth="yes"/>
      <point x="354" y="213"/>
      <point x="367" y="201"/>
      <point x="367" y="183" type="curve" smooth="yes"/>
      <point x="367" y="166"/>
      <point x="355" y="156"/>
      <point x="330" y="156" type="curve" smooth="yes"/>
      <point x="307" y="156"/>
      <point x="290" y="160"/>
      <point x="275" y="166" type="curve"/>
      <point x="221" y="9" type="line"/>
      <point x="241" y="0"/>
      <point x="286" y="-9"/>
      <point x="342" y="-9" type="curve" smooth="yes"/>
      <point x="478" y="-9"/>
      <point x="581" y="68"/>
    </contour>
  </outline>
</glyph>
<glyph name="ae" format="1">
  <advance width="845"/>
  <unicode hex="00E6"/>
  <outline>
    <contour>
      <point x="429" y="125" type="curve"/>
      <point x="323" y="125" type="line"/>
      <point x="367" y="26"/>
      <point x="471" y="-9"/>
      <point x="562" y="-9" type="curve" smooth="yes"/>
      <point x="631" y="-9"/>
      <point x="699" y="3"/>
      <point x="767" y="45" type="curve"/>
      <point x="678" y="175" type="line"/>
      <point x="649" y="156"/>
      <point x="616" y="148"/>
      <point x="586" y="148" type="curve" smooth="yes"/>
      <point x="535" y="148"/>
      <point x="508" y="164"/>
      <point x="508" y="214" type="curve" smooth="yes"/>
      <point x="508" y="266"/>
      <point x="520" y="323"/>
      <point x="581" y="323" type="curve" smooth="yes"/>
      <point x="620" y="323"/>
      <point x="644" y="296"/>
      <point x="632" y="254" type="curve"/>
      <point x="676" y="278" type="line"/>
      <point x="507" y="278" type="line"/>
      <point x="486" y="177" type="line"/>
      <point x="823" y="177" type="line"/>
      <point x="830" y="205"/>
      <point x="834" y="233"/>
      <point x="834" y="263" type="curve" smooth="yes"/>
      <point x="834" y="382"/>
      <point x="744" y="467"/>
      <point x="591" y="467" type="curve" smooth="yes"/>
      <point x="498" y="467"/>
      <point x="457" y="439"/>
      <point x="399" y="386" type="curve"/>
      <point x="479" y="387" type="line"/>
      <point x="435" y="444"/>
      <point x="369" y="467"/>
      <point x="261" y="467" type="curve" smooth="yes"/>
      <point x="201" y="467"/>
      <point x="120" y="456"/>
      <point x="67" y="430" type="curve"/>
      <point x="114" y="290" type="line"/>
      <point x="144" y="302"/>
      <point x="185" y="309"/>
      <point x="218" y="309" type="curve" smooth="yes"/>
      <point x="271" y="309"/>
      <point x="301" y="289"/>
      <point x="295" y="252" type="curve" smooth="yes"/>
      <point x="278" y="166" type="line" smooth="yes"/>
      <point x="271" y="132"/>
      <point x="261" y="118"/>
      <point x="237" y="118" type="curve" smooth="yes"/>
      <point x="218" y="118"/>
      <point x="205" y="132"/>
      <point x="205" y="145" type="curve" smooth="yes"/>
      <point x="205" y="165"/>
      <point x="220" y="177"/>
      <point x="247" y="177" type="curve" smooth="yes"/>
      <point x="295" y="177" type="line"/>
      <point x="316" y="278" type="line"/>
      <point x="224" y="278" type="line" smooth="yes"/>
      <point x="79" y="278"/>
      <point x="-4" y="225"/>
      <point x="-4" y="128" type="curve" smooth="yes"/>
      <point x="-4" y="52"/>
      <point x="72" y="-9"/>
      <point x="193" y="-9" type="curve" smooth="yes"/>
      <point x="297" y="-9"/>
      <point x="360" y="14"/>
    </contour>
    <contour>
      <point x="447" y="458" type="move" name="top"/>
    </contour>
  </outline>
</glyph>
<glyph name="eth" format="1">
  <advance width="568"/>
  <unicode hex="00F0"/>
  <outline>
    <contour>
      <point x="574" y="362" type="curve" smooth="yes"/>
      <point x="574" y="532"/>
      <point x="454" y="637"/>
      <point x="271" y="637" type="curve" smooth="yes"/>
      <point x="222" y="637"/>
      <point x="183" y="632"/>
      <point x="135" y="623" type="curve"/>
      <point x="122" y="470" type="line"/>
      <point x="159" y="481"/>
      <point x="197" y="484"/>
      <point x="225" y="484" type="curve" smooth="yes"/>
      <point x="327" y="484"/>
      <point x="370" y="420"/>
      <point x="346" y="314" type="curve" smooth="yes"/>
      <point x="338" y="285"/>
      <point x="337" y="279"/>
      <point x="339" y="269" type="curve"/>
      <point x="399" y="295" type="line"/>
      <point x="368" y="354"/>
      <point x="318" y="379"/>
      <point x="241" y="379" type="curve" smooth="yes"/>
      <point x="105" y="379"/>
      <point x="4" y="290"/>
      <point x="4" y="167" type="curve" smooth="yes"/>
      <point x="4" y="62"/>
      <point x="89" y="-15"/>
      <point x="228" y="-15" type="curve" smooth="yes"/>
      <point x="438" y="-15"/>
      <point x="574" y="149"/>
    </contour>
    <contour>
      <point x="221" y="181" type="curve" smooth="yes"/>
      <point x="221" y="207"/>
      <point x="240" y="226"/>
      <point x="268" y="226" type="curve" smooth="yes"/>
      <point x="294" y="226"/>
      <point x="312" y="210"/>
      <point x="312" y="183" type="curve" smooth="yes"/>
      <point x="312" y="155"/>
      <point x="296" y="138"/>
      <point x="265" y="138" type="curve" smooth="yes"/>
      <point x="239" y="138"/>
      <point x="221" y="155"/>
    </contour>
    <contour>
      <point x="607" y="516" type="line"/>
      <point x="580" y="599" type="line"/>
      <point x="128" y="451" type="line"/>
      <point x="155" y="368" type="line"/>
    </contour>
  </outline>
</glyph>
<glyph name="divide" format="1">
  <advance width="533"/>
  <unicode hex="00F7"/>
  <outline>
    <contour>
      <point x="485" y="211" type="line"/>
      <point x="518" y="371" type="line"/>
      <point x="72" y="371" type="line"/>
      <point x="40" y="211" type="line"/>
    </contour>
    <contour>
      <point x="347" y="114" type="curve" smooth="yes"/>
      <point x="347" y="168"/>
      <point x="305" y="203"/>
      <point x="248" y="203" type="curve" smooth="yes"/>
      <point x="184" y="203"/>
      <point x="132" y="159"/>
      <point x="132" y="93" type="curve" smooth="yes"/>
      <point x="132" y="39"/>
      <point x="174" y="1"/>
      <point x="231" y="1" type="curve" smooth="yes"/>
      <point x="295" y="1"/>
      <point x="347" y="49"/>
    </contour>
    <contour>
      <point x="425" y="491" type="curve" smooth="yes"/>
      <point x="425" y="546"/>
      <point x="382" y="580"/>
      <point x="326" y="580" type="curve" smooth="yes"/>
      <point x="262" y="580"/>
      <point x="209" y="536"/>
      <point x="209" y="470" type="curve" smooth="yes"/>
      <point x="209" y="416"/>
      <point x="252" y="379"/>
      <point x="308" y="379" type="curve" smooth="yes"/>
      <point x="372" y="379"/>
      <point x="425" y="426"/>
    </contour>
  </outline>
</glyph>
<glyph name="oslash" format="1">
  <advance width="571"/>
  <unicode hex="00F8"/>
  <outline>
    <component base="slashlongcomb" xOffset="1.692"/>
    <component base="o"/>
    <contour>
      <point x="332" y="458" type="move" name="top"/>
    </contour>
  </outline>
</glyph>
<glyph name="thorn" format="1">
  <advance width="590"/>
  <unicode hex="00FE"/>
  <outline>
    <contour>
      <point x="173" y="-161" type="line"/>
      <point x="217" y="54" type="line"/>
      <point x="245" y="228" type="line"/>
      <point x="279" y="410" type="line"/>
      <point x="321" y="617" type="line"/>
      <point x="111" y="617" type="line"/>
      <point x="-47" y="-161" type="line"/>
    </contour>
    <contour>
      <point x="578" y="252" type="curve" smooth="yes"/>
      <point x="578" y="392"/>
      <point x="476" y="467"/>
      <point x="389" y="467" type="curve" smooth="yes"/>
      <point x="283" y="467"/>
      <point x="216" y="382"/>
      <point x="188" y="235" type="curve" smooth="yes"/>
      <point x="155" y="46"/>
      <point x="230" y="-9"/>
      <point x="334" y="-9" type="curve" smooth="yes"/>
      <point x="464" y="-9"/>
      <point x="578" y="102"/>
    </contour>
    <contour>
      <point x="249" y="217" type="curve" smooth="yes"/>
      <point x="249" y="268"/>
      <point x="273" y="300"/>
      <point x="309" y="300" type="curve" smooth="yes"/>
      <point x="341" y="300"/>
      <point x="360" y="275"/>
      <point x="360" y="242" type="curve" smooth="yes"/>
      <point x="360" y="190"/>
      <point x="337" y="158"/>
      <point x="300" y="158" type="curve" smooth="yes"/>
      <point x="268" y="158"/>
      <point x="249" y="183"/>
    </contour>
    <contour>
      <point x="401" y="458" type="move" name="top"/>
    </contour>
    <contour>
      <point x="308" y="0" type="move" name="bottom"/>
    </contour>
  </outline>
</glyph>
<glyph name="Dcroat" format="1">
  <advance width="719"/>
  <unicode hex="0110"/>
  <outline>
    <component base="Eth"/>
    <contour>
      <point x="365" y="583" type="move" name="top"/>
    </contour>
    <contour>
      <point x="163" y="292" type="move" name="center"/>
    </contour>
    <contour>
      <point x="253" y="0" type="move" name="bottom"/>
    </contour>
  </outline>
</glyph>
<glyph name="eogonek" format="1">
  <advance width="562"/>
  <unicode hex="0119"/>
  <outline>
    <contour>
      <point x="420" y="-184" type="curve"/>
      <point x="412" y="-97" type="line"/>
      <point x="399" y="-102"/>
      <point x="379" y="-108"/>
      <point x="363" y="-108" type="curve" smooth="yes"/>
      <point x="341" y="-108"/>
      <point x="326" y="-95"/>
      <point x="326" y="-75" type="curve" smooth="yes"/>
      <point x="326" y="-36"/>
      <point x="374" y="-11"/>
      <point x="429" y="16" type="curve" smooth="yes"/>
      <point x="445" y="24"/>
      <point x="469" y="35"/>
      <point x="484" y="46" type="curve"/>
      <point x="395" y="175" type="line"/>
      <point x="366" y="156"/>
      <point x="333" y="148"/>
      <point x="305" y="148" type="curve" smooth="yes"/>
      <point x="252" y="148"/>
      <point x="225" y="164"/>
      <point x="225" y="214" type="curve" smooth="yes"/>
      <point x="225" y="266"/>
      <point x="237" y="323"/>
      <point x="298" y="323" type="curve" smooth="yes"/>
      <point x="336" y="323"/>
      <point x="361" y="296"/>
      <point x="349" y="254" type="curve"/>
      <point x="443" y="281" type="line"/>
      <point x="207" y="281" type="line"/>
      <point x="186" y="179" type="line"/>
      <point x="540" y="179" type="line"/>
      <point x="546" y="205"/>
      <point x="551" y="233"/>
      <point x="551" y="263" type="curve" smooth="yes"/>
      <point x="551" y="382"/>
      <point x="461" y="467"/>
      <point x="308" y="467" type="curve" smooth="yes"/>
      <point x="130" y="467"/>
      <point x="13" y="356"/>
      <point x="13" y="206" type="curve" smooth="yes"/>
      <point x="13" y="75"/>
      <point x="121" y="-9"/>
      <point x="278" y="-9" type="curve" smooth="yes"/>
      <point x="297" y="-9"/>
      <point x="311" y="-8"/>
      <point x="333" y="-2" type="curve"/>
      <point x="313" y="21" type="line"/>
      <point x="252" y="6"/>
      <point x="191" y="-49"/>
      <point x="191" y="-108" type="curve" smooth="yes"/>
      <point x="191" y="-168"/>
      <point x="244" y="-203"/>
      <point x="325" y="-203" type="curve" smooth="yes"/>
      <point x="363" y="-203"/>
      <point x="397" y="-194"/>
    </contour>
    <contour>
      <point x="331" y="458" type="move" name="top"/>
    </contour>
  </outline>
</glyph>
<glyph name="IJ" format="1">
  <advance width="619"/>
  <unicode hex="0132"/>
  <outline>
    <contour>
      <point x="437" y="-15"/>
      <point x="554" y="72"/>
      <point x="591" y="255" type="curve" smooth="yes"/>
      <point x="658" y="582" type="line"/>
      <point x="428" y="582" type="line"/>
      <point x="363" y="262" type="line" smooth="yes"/>
      <point x="349" y="189"/>
      <point x="322" y="162"/>
      <point x="262" y="162" type="curve" smooth="yes"/>
      <point x="207" y="162"/>
      <point x="148" y="180"/>
      <point x="91" y="218" type="curve"/>
      <point x="-19" y="58" type="line"/>
      <point x="47" y="13"/>
      <point x="133" y="-15"/>
      <point x="252" y="-15" type="curve" smooth="yes"/>
    </contour>
    <contour>
      <point x="273" y="285" type="line"/>
      <point x="334" y="582" type="line"/>
      <point x="104" y="582" type="line"/>
      <point x="43" y="285" type="line"/>
    </contour>
    <contour>
      <point x="215" y="582" type="move" name="top"/>
    </contour>
  </outline>
</glyph>
<glyph name="kgreenlandic" format="1">
  <advance width="602"/>
  <unicode hex="0138"/>
  <outline>
    <contour>
      <point x="275" y="134" type="line"/>
      <point x="402" y="224" type="line"/>
      <point x="662" y="458" type="line"/>
      <point x="393" y="458" type="line"/>
      <point x="241" y="319" type="line"/>
      <point x="192" y="53" type="line"/>
    </contour>
    <contour>
      <point x="206" y="0" type="line"/>
      <point x="299" y="458" type="line"/>
      <point x="79" y="458" type="line"/>
      <point x="-14" y="0" type="line"/>
    </contour>
    <contour>
      <point x="580" y="0" type="line"/>
      <point x="394" y="306" type="line"/>
      <point x="237" y="144" type="line"/>
      <point x="322" y="0" type="line"/>
    </contour>
    <contour>
      <point x="327" y="458" type="move" name="top"/>
    </contour>
    <contour>
      <point x="234" y="0" type="move" name="bottom"/>
    </contour>
  </outline>
</glyph>
<glyph name="Eng" format="1">
  <advance width="678"/>
  <unicode hex="014A"/>
  <outline>
    <contour>
      <point x="470" y="-170"/>
      <point x="570" y="-118"/>
      <point x="614" y="96" type="curve" smooth="yes"/>
      <point x="712" y="582" type="line"/>
      <point x="488" y="582" type="line"/>
      <point x="383" y="64" type="line" smooth="yes"/>
      <point x="374" y="16"/>
      <point x="355" y="3"/>
      <point x="324" y="3" type="curve" smooth="yes"/>
      <point x="306" y="3"/>
      <point x="288" y="7"/>
      <point x="269" y="16" type="curve"/>
      <point x="152" y="-129" type="line"/>
      <point x="198" y="-156"/>
      <point x="265" y="-170"/>
      <point x="319" y="-170" type="curve" smooth="yes"/>
    </contour>
    <contour>
      <point x="215" y="0" type="line"/>
      <point x="280" y="323" type="line"/>
      <point x="200" y="323" type="line"/>
      <point x="405" y="0" type="line"/>
      <point x="503" y="259" type="line"/>
      <point x="298" y="582" type="line"/>
      <point x="109" y="582" type="line"/>
      <point x="-9" y="0" type="line"/>
    </contour>
  </outline>
</glyph>
<glyph name="OE" format="1">
  <advance width="977"/>
  <unicode hex="0152"/>
  <outline>
    <contour>
      <point x="456" y="0" type="line"/>
      <point x="492" y="173" type="line"/>
      <point x="364" y="173" type="line" smooth="yes"/>
      <point x="299" y="173"/>
      <point x="262" y="204"/>
      <point x="262" y="262" type="curve" smooth="yes"/>
      <point x="262" y="343"/>
      <point x="306" y="408"/>
      <point x="394" y="408" type="curve" smooth="yes"/>
      <point x="539" y="408" type="line"/>
      <point x="575" y="582" type="line"/>
      <point x="401" y="582" type="line" smooth="yes"/>
      <point x="187" y="582"/>
      <point x="30" y="455"/>
      <point x="30" y="249" type="curve" smooth="yes"/>
      <point x="30" y="94"/>
      <point x="149" y="0"/>
      <point x="338" y="0" type="curve" smooth="yes"/>
    </contour>
    <contour>
      <point x="906" y="0" type="line"/>
      <point x="941" y="168" type="line"/>
      <point x="658" y="168" type="line"/>
      <point x="707" y="414" type="line"/>
      <point x="979" y="414" type="line"/>
      <point x="1014" y="582" type="line"/>
      <point x="516" y="582" type="line"/>
      <point x="398" y="0" type="line"/>
    </contour>
    <contour>
      <point x="905" y="215" type="line"/>
      <point x="938" y="375" type="line"/>
      <point x="685" y="375" type="line"/>
      <point x="652" y="215" type="line"/>
    </contour>
    <contour>
      <point x="629" y="582" type="move" name="top"/>
    </contour>
    <contour>
      <point x="511" y="0" type="move" name="bottom"/>
    </contour>
  </outline>
</glyph>
<glyph name="Uogonek" format="1">
  <advance width="662"/>
  <unicode hex="0172"/>
  <outline>
    <contour>
      <point x="411" y="268" type="line"/>
      <point x="396" y="191"/>
      <point x="373" y="165"/>
      <point x="328" y="165" type="curve" smooth="yes"/>
      <point x="279" y="165"/>
      <point x="256" y="196"/>
      <point x="270" y="268" type="curve" smooth="yes"/>
      <point x="334" y="582" type="line"/>
      <point x="104" y="582" type="line"/>
      <point x="39" y="264" type="line" smooth="yes"/>
      <point x="5" y="98"/>
      <point x="109" y="-15"/>
      <point x="300" y="-15" type="curve" smooth="yes"/>
      <point x="313" y="-15"/>
      <point x="326" y="-14"/>
      <point x="340" y="-13" type="curve"/>
      <point x="281" y="29" type="line"/>
      <point x="201" y="0"/>
      <point x="153" y="-44"/>
      <point x="153" y="-108" type="curve" smooth="yes"/>
      <point x="153" y="-168"/>
      <point x="206" y="-203"/>
      <point x="287" y="-203" type="curve" smooth="yes"/>
      <point x="325" y="-203"/>
      <point x="359" y="-194"/>
      <point x="382" y="-184" type="curve"/>
      <point x="374" y="-97" type="line"/>
      <point x="361" y="-102"/>
      <point x="343" y="-108"/>
      <point x="325" y="-108" type="curve" smooth="yes"/>
      <point x="303" y="-108"/>
      <point x="288" y="-95"/>
      <point x="288" y="-75" type="curve" smooth="yes"/>
      <point x="288" y="-47"/>
      <point x="310" y="-25"/>
      <point x="396" y="-6" type="curve" smooth="yes"/>
      <point x="527" y="23"/>
      <point x="606" y="112"/>
      <point x="634" y="255" type="curve" smooth="yes"/>
      <point x="701" y="582" type="line"/>
      <point x="475" y="582" type="line"/>
    </contour>
  </outline>
</glyph>
<glyph name="florin" format="1">
  <advance width="454"/>
  <unicode hex="0192"/>
  <outline>
    <contour>
      <point x="238" y="18" type="curve" smooth="yes"/>
      <point x="336" y="319" type="line"/>
      <point x="357" y="406" type="line"/>
      <point x="362" y="419" type="line" smooth="yes"/>
      <point x="371" y="452"/>
      <point x="393" y="465"/>
      <point x="415" y="465" type="curve" smooth="yes"/>
      <point x="428" y="465"/>
      <point x="439" y="462"/>
      <point x="450" y="456" type="curve"/>
      <point x="552" y="605" type="line"/>
      <point x="527" y="619"/>
      <point x="482" y="626"/>
      <point x="430" y="626" type="curve" smooth="yes"/>
      <point x="298" y="626"/>
      <point x="197" y="563"/>
      <point x="149" y="420" type="curve" smooth="yes"/>
      <point x="24" y="37" type="line" smooth="yes"/>
      <point x="14" y="4"/>
      <point x="-6" y="-10"/>
      <point x="-24" y="-10" type="curve" smooth="yes"/>
      <point x="-36" y="-10"/>
      <point x="-48" y="-6"/>
      <point x="-59" y="-1" type="curve"/>
      <point x="-155" y="-143" type="line"/>
      <point x="-129" y="-157"/>
      <point x="-81" y="-170"/>
      <point x="-24" y="-170" type="curve" smooth="yes"/>
      <point x="99" y="-170"/>
      <point x="195" y="-112"/>
    </contour>
    <contour>
      <point x="406" y="274" type="line"/>
      <point x="458" y="430" type="line"/>
      <point x="92" y="430" type="line"/>
      <point x="40" y="274" type="line"/>
    </contour>
  </outline>
</glyph>
<glyph name="Ohorn" format="1">
  <advance width="719"/>
  <unicode hex="01A0"/>
  <outline>
    <contour>
      <point x="554" y="-15"/>
      <point x="713" y="125"/>
      <point x="713" y="333" type="curve" smooth="yes"/>
      <point x="713" y="399"/>
      <point x="692" y="458"/>
      <point x="655" y="504" type="curve"/>
      <point x="535" y="446" type="line"/>
      <point x="562" y="442"/>
      <point x="579" y="440"/>
      <point x="594" y="440" type="curve" smooth="yes"/>
      <point x="712" y="440"/>
      <point x="792" y="506"/>
      <point x="792" y="620" type="curve" smooth="yes"/>
      <point x="792" y="662"/>
      <point x="780" y="694"/>
      <point x="759" y="719" type="curve"/>
      <point x="616" y="677" type="line"/>
      <point x="626" y="666"/>
      <point x="632" y="649"/>
      <point x="632" y="631" type="curve" smooth="yes"/>
      <point x="632" y="602"/>
      <point x="611" y="578"/>
      <point x="574" y="578" type="curve" smooth="yes"/>
      <point x="533" y="578"/>
      <point x="501" y="597"/>
      <point x="407" y="597" type="curve" smooth="yes"/>
      <point x="190" y="597"/>
      <point x="30" y="457"/>
      <point x="30" y="249" type="curve" smooth="yes"/>
      <point x="30" y="94"/>
      <point x="150" y="-15"/>
      <point x="336" y="-15" type="curve" smooth="yes"/>
    </contour>
    <contour>
      <point x="299" y="165"/>
      <point x="262" y="204"/>
      <point x="262" y="262" type="curve" smooth="yes"/>
      <point x="262" y="345"/>
      <point x="307" y="417"/>
      <point x="388" y="417" type="curve" smooth="yes"/>
      <point x="445" y="417"/>
      <point x="481" y="377"/>
      <point x="481" y="319" type="curve" smooth="yes"/>
      <point x="481" y="237"/>
      <point x="437" y="165"/>
      <point x="356" y="165" type="curve" smooth="yes"/>
    </contour>
    <contour>
      <point x="431" y="582" type="move" name="top"/>
    </contour>
    <contour>
      <point x="313" y="0" type="move" name="bottom"/>
    </contour>
  </outline>
</glyph>
<glyph name="ohorn" format="1">
  <advance width="571"/>
  <unicode hex="01A1"/>
  <outline>
    <contour>
      <point x="558" y="252" type="curve" smooth="yes"/>
      <point x="558" y="306"/>
      <point x="543" y="353"/>
      <point x="508" y="393" type="curve"/>
      <point x="382" y="324" type="line"/>
      <point x="395" y="321"/>
      <point x="409" y="320"/>
      <point x="423" y="320" type="curve" smooth="yes"/>
      <point x="544" y="320"/>
      <point x="625" y="384"/>
      <point x="625" y="499" type="curve" smooth="yes"/>
      <point x="625" y="539"/>
      <point x="613" y="571"/>
      <point x="592" y="596" type="curve"/>
      <point x="448" y="554" type="line"/>
      <point x="459" y="543"/>
      <point x="465" y="526"/>
      <point x="465" y="508" type="curve" smooth="yes"/>
      <point x="465" y="478"/>
      <point x="443" y="459"/>
      <point x="418" y="459" type="curve" smooth="yes"/>
      <point x="387" y="459"/>
      <point x="362" y="467"/>
      <point x="302" y="467" type="curve" smooth="yes"/>
      <point x="133" y="467"/>
      <point x="13" y="356"/>
      <point x="13" y="206" type="curve" smooth="yes"/>
      <point x="13" y="76"/>
      <point x="113" y="-9"/>
      <point x="269" y="-9" type="curve" smooth="yes"/>
      <point x="438" y="-9"/>
      <point x="558" y="102"/>
    </contour>
    <contour>
      <point x="230" y="217" type="curve" smooth="yes"/>
      <point x="230" y="269"/>
      <point x="253" y="300"/>
      <point x="290" y="300" type="curve" smooth="yes"/>
      <point x="322" y="300"/>
      <point x="341" y="275"/>
      <point x="341" y="242" type="curve" smooth="yes"/>
      <point x="341" y="190"/>
      <point x="318" y="158"/>
      <point x="281" y="158" type="curve" smooth="yes"/>
      <point x="249" y="158"/>
      <point x="230" y="183"/>
    </contour>
    <contour>
      <point x="332" y="458" type="move" name="top"/>
    </contour>
    <contour>
      <point x="239" y="0" type="move" name="bottom"/>
    </contour>
  </outline>
</glyph>
<glyph name="acutecomb" format="1">
  <advance width="508"/>
  <unicode hex="0301"/>
  <outline>
    <contour>
      <point x="360" y="504" type="line"/>
      <point x="549" y="644" type="line"/>
      <point x="337" y="644" type="line"/>
      <point x="210" y="504" type="line"/>
    </contour>
    <contour>
      <point x="339" y="644" type="move" name="top"/>
    </contour>
    <contour>
      <point x="301" y="458" type="move" name="_top"/>
    </contour>
  </outline>
</glyph>
<glyph name="tildecomb" format="1">
  <advance width="508"/>
  <unicode hex="0303"/>
  <outline>
    <contour>
      <point x="532" y="645" type="curve"/>
      <point x="429" y="645" type="line"/>
      <point x="424" y="623"/>
      <point x="410" y="609"/>
      <point x="389" y="609" type="curve" smooth="yes"/>
      <point x="358" y="609"/>
      <point x="328" y="657"/>
      <point x="261" y="657" type="curve" smooth="yes"/>
      <point x="185" y="657"/>
      <point x="134" y="604"/>
      <point x="117" y="503" type="curve"/>
      <point x="219" y="503" type="line"/>
      <point x="225" y="526"/>
      <point x="240" y="541"/>
      <point x="261" y="541" type="curve" smooth="yes"/>
      <point x="292" y="541"/>
      <point x="321" y="493"/>
      <point x="388" y="493" type="curve" smooth="yes"/>
      <point x="464" y="493"/>
      <point x="516" y="546"/>
    </contour>
    <contour>
      <point x="338" y="636" type="move" name="top"/>
    </contour>
    <contour>
      <point x="301" y="458" type="move" name="_top"/>
    </contour>
  </outline>
</glyph>
<glyph name="hookabovecomb" format="1">
  <advance width="508"/>
  <unicode hex="0309"/>
  <outline>
    <contour>
      <point x="468" y="630" type="curve" smooth="yes"/>
      <point x="468" y="688"/>
      <point x="424" y="724"/>
      <point x="353" y="724" type="curve" smooth="yes"/>
      <point x="309" y="724"/>
      <point x="266" y="713"/>
      <point x="232" y="689" type="curve"/>
      <point x="265" y="610" type="line"/>
      <point x="283" y="622"/>
      <point x="300" y="627"/>
      <point x="316" y="627" type="curve" smooth="yes"/>
      <point x="334" y="627"/>
      <point x="343" y="618"/>
      <point x="343" y="602" type="curve" smooth="yes"/>
      <point x="343" y="588"/>
      <point x="338" y="572"/>
      <point x="299" y="555" type="curve"/>
      <point x="356" y="495" type="line"/>
      <point x="424" y="524"/>
      <point x="468" y="566"/>
    </contour>
    <contour>
      <point x="351" y="702" type="move" name="top"/>
    </contour>
    <contour>
      <point x="301" y="458" type="move" name="_top"/>
    </contour>
  </outline>
</glyph>
<glyph name="dotbelowcomb" format="1">
  <advance width="508"/>
  <unicode hex="0323"/>
  <outline>
    <contour>
      <point x="271" y="-104" type="curve" smooth="yes"/>
      <point x="270" y="-62"/>
      <point x="235" y="-32"/>
      <point x="191" y="-32" type="curve" smooth="yes"/>
      <point x="142" y="-32"/>
      <point x="98" y="-69"/>
      <point x="98" y="-121" type="curve" smooth="yes"/>
      <point x="99" y="-164"/>
      <point x="131" y="-194"/>
      <point x="178" y="-194" type="curve" smooth="yes"/>
      <point x="230" y="-194"/>
      <point x="271" y="-161"/>
    </contour>
    <contour>
      <point x="208" y="0" type="move" name="_bottom"/>
    </contour>
    <contour>
      <point x="174" y="-168" type="move" name="bottom"/>
    </contour>
  </outline>
</glyph>
<glyph name="Delta" format="1">
  <advance width="698"/>
  <unicode hex="0394"/>
  <outline>
    <contour>
      <point x="308" y="582" type="line"/>
      <point x="-67" y="0" type="line"/>
      <point x="672" y="0" type="line"/>
      <point x="534" y="582" type="line"/>
    </contour>
    <contour>
      <point x="450" y="486" type="line"/>
      <point x="360" y="486" type="line"/>
      <point x="446" y="71" type="line"/>
      <point x="505" y="172" type="line"/>
      <point x="167" y="172" type="line"/>
      <point x="204" y="71" type="line"/>
    </contour>
  </outline>
</glyph>
<glyph name="Omega" format="1">
  <advance width="738"/>
  <unicode hex="03A9"/>
  <outline>
    <contour>
      <point x="299" y="0" type="line"/>
      <point x="332" y="160" type="line"/>
      <point x="296" y="180"/>
      <point x="274" y="227"/>
      <point x="274" y="272" type="curve" smooth="yes"/>
      <point x="274" y="350"/>
      <point x="322" y="417"/>
      <point x="403" y="417" type="curve" smooth="yes"/>
      <point x="450" y="417"/>
      <point x="494" y="386"/>
      <point x="494" y="329" type="curve" smooth="yes"/>
      <point x="494" y="265"/>
      <point x="453" y="193"/>
      <point x="378" y="160" type="curve"/>
      <point x="346" y="0" type="line"/>
      <point x="685" y="0" type="line"/>
      <point x="721" y="172" type="line"/>
      <point x="645" y="172" type="line"/>
      <point x="700" y="226"/>
      <point x="728" y="303"/>
      <point x="728" y="367" type="curve" smooth="yes"/>
      <point x="728" y="504"/>
      <point x="600" y="597"/>
      <point x="433" y="597" type="curve" smooth="yes"/>
      <point x="226" y="597"/>
      <point x="50" y="471"/>
      <point x="50" y="284" type="curve" smooth="yes"/>
      <point x="50" y="242"/>
      <point x="62" y="201"/>
      <point x="78" y="172" type="curve"/>
      <point x="-5" y="172" type="line"/>
      <point x="-40" y="0" type="line"/>
    </contour>
  </outline>
</glyph>
<glyph name="mu" format="1">
  <advance width="596"/>
  <unicode hex="03BC"/>
  <outline>
    <contour>
      <point x="174" y="-161" type="line"/>
      <point x="224" y="84" type="line"/>
      <point x="165" y="26" type="line"/>
      <point x="184" y="5"/>
      <point x="208" y="-9"/>
      <point x="241" y="-9" type="curve" smooth="yes"/>
      <point x="289" y="-9"/>
      <point x="349" y="21"/>
      <point x="370" y="113" type="curve"/>
      <point x="353" y="127" type="line"/>
      <point x="328" y="0" type="line"/>
      <point x="517" y="0" type="line"/>
      <point x="610" y="458" type="line"/>
      <point x="390" y="458" type="line"/>
      <point x="346" y="243" type="line" smooth="yes"/>
      <point x="336" y="192"/>
      <point x="314" y="170"/>
      <point x="285" y="170" type="curve" smooth="yes"/>
      <point x="259" y="170"/>
      <point x="245" y="188"/>
      <point x="255" y="233" type="curve" smooth="yes"/>
      <point x="300" y="458" type="line"/>
      <point x="80" y="458" type="line"/>
      <point x="-46" y="-161" type="line"/>
    </contour>
  </outline>
</glyph>
<glyph name="pi" format="1">
  <advance width="622"/>
  <unicode hex="03C0"/>
  <outline>
    <contour>
      <point x="163" y="240" type="line"/>
      <point x="159" y="253"/>
      <point x="158" y="265"/>
      <point x="158" y="275" type="curve" smooth="yes"/>
      <point x="158" y="301"/>
      <point x="170" y="312"/>
      <point x="192" y="312" type="curve" smooth="yes"/>
      <point x="625" y="312" type="line"/>
      <point x="656" y="458" type="line"/>
      <point x="203" y="458" type="line" smooth="yes"/>
      <point x="86" y="458"/>
      <point x="-7" y="396"/>
      <point x="-7" y="281" type="curve" smooth="yes"/>
      <point x="-7" y="252"/>
      <point x="-1" y="223"/>
      <point x="7" y="204" type="curve"/>
    </contour>
    <contour>
      <point x="274" y="0" type="line"/>
      <point x="372" y="325" type="line"/>
      <point x="190" y="325" type="line"/>
      <point x="91" y="0" type="line"/>
    </contour>
    <contour>
      <point x="490" y="0" type="line"/>
      <point x="556" y="325" type="line"/>
      <point x="373" y="325" type="line"/>
      <point x="308" y="0" type="line"/>
    </contour>
  </outline>
</glyph>
<glyph name="figuredash" format="1">
  <advance width="592"/>
  <unicode hex="2012"/>
  <outline>
    <contour>
      <point x="560" y="234" type="line"/>
      <point x="585" y="356" type="line"/>
      <point x="58" y="356" type="line"/>
      <point x="33" y="234" type="line"/>
    </contour>
  </outline>
</glyph>
<glyph name="endash" format="1">
  <advance width="423"/>
  <unicode hex="2013"/>
  <outline>
    <contour>
      <point x="413" y="182" type="line"/>
      <point x="438" y="304" type="line"/>
      <point x="15" y="304" type="line"/>
      <point x="-10" y="182" type="line"/>
    </contour>
  </outline>
</glyph>
<glyph name="emdash" format="1">
  <advance width="846"/>
  <unicode hex="2014"/>
  <outline>
    <contour>
      <point x="836" y="182" type="line"/>
      <point x="861" y="304" type="line"/>
      <point x="15" y="304" type="line"/>
      <point x="-10" y="182" type="line"/>
    </contour>
  </outline>
</glyph>
<glyph name="quoteleft" format="1">
  <advance width="274"/>
  <unicode hex="2018"/>
  <outline>
    <contour>
      <point x="191" y="617" type="line"/>
      <point x="83" y="468" type="line" smooth="yes"/>
      <point x="49" y="421"/>
      <point x="38" y="395"/>
      <point x="38" y="361" type="curve" smooth="yes"/>
      <point x="38" y="295"/>
      <point x="85" y="251"/>
      <point x="156" y="251" type="curve" smooth="yes"/>
      <point x="232" y="251"/>
      <point x="292" y="302"/>
      <point x="292" y="380" type="curve" smooth="yes"/>
      <point x="292" y="444"/>
      <point x="244" y="490"/>
      <point x="174" y="490" type="curve"/>
      <point x="197" y="367" type="line"/>
      <point x="327" y="617" type="line"/>
    </contour>
  </outline>
</glyph>
<glyph name="quoteright" format="1">
  <advance width="274"/>
  <unicode hex="2019"/>
  <outline>
    <contour>
      <point x="167" y="260" type="line"/>
      <point x="275" y="408" type="line" smooth="yes"/>
      <point x="309" y="456"/>
      <point x="320" y="481"/>
      <point x="320" y="515" type="curve" smooth="yes"/>
      <point x="320" y="581"/>
      <point x="273" y="626"/>
      <point x="202" y="626" type="curve" smooth="yes"/>
      <point x="126" y="626"/>
      <point x="66" y="575"/>
      <point x="66" y="496" type="curve" smooth="yes"/>
      <point x="66" y="432"/>
      <point x="114" y="386"/>
      <point x="184" y="386" type="curve"/>
      <point x="161" y="510" type="line"/>
      <point x="31" y="260" type="line"/>
    </contour>
  </outline>
</glyph>
<glyph name="quotesinglbase" format="1">
  <advance width="274"/>
  <unicode hex="201A"/>
  <outline>
    <contour>
      <point x="87" y="-135" type="line"/>
      <point x="195" y="13" type="line" smooth="yes"/>
      <point x="228" y="60"/>
      <point x="240" y="86"/>
      <point x="240" y="120" type="curve" smooth="yes"/>
      <point x="240" y="186"/>
      <point x="193" y="231"/>
      <point x="122" y="231" type="curve" smooth="yes"/>
      <point x="46" y="231"/>
      <point x="-14" y="180"/>
      <point x="-14" y="101" type="curve" smooth="yes"/>
      <point x="-14" y="37"/>
      <point x="34" y="-9"/>
      <point x="104" y="-9" type="curve"/>
      <point x="81" y="114" type="line"/>
      <point x="-49" y="-135" type="line"/>
    </contour>
  </outline>
</glyph>
<glyph name="dagger" format="1">
  <advance width="545"/>
  <unicode hex="2020"/>
  <outline>
    <contour>
      <point x="299" y="-161" type="line"/>
      <point x="385" y="261" type="line"/>
      <point x="527" y="261" type="line"/>
      <point x="562" y="429" type="line"/>
      <point x="420" y="429" type="line"/>
      <point x="451" y="582" type="line"/>
      <point x="231" y="582" type="line"/>
      <point x="200" y="429" type="line"/>
      <point x="65" y="429" type="line"/>
      <point x="30" y="261" type="line"/>
      <point x="165" y="261" type="line"/>
      <point x="79" y="-161" type="line"/>
    </contour>
  </outline>
</glyph>
<glyph name="daggerdbl" format="1">
  <advance width="545"/>
  <unicode hex="2021"/>
  <outline>
    <contour>
      <point x="562" y="430" type="line"/>
      <point x="420" y="430" type="line"/>
      <point x="451" y="582" type="line"/>
      <point x="231" y="582" type="line"/>
      <point x="200" y="430" type="line"/>
      <point x="65" y="430" type="line"/>
      <point x="31" y="262" type="line"/>
      <point x="166" y="262" type="line"/>
      <point x="145" y="158" type="line"/>
      <point x="10" y="158" type="line"/>
      <point x="-25" y="-10" type="line"/>
      <point x="110" y="-10" type="line"/>
      <point x="79" y="-161" type="line"/>
      <point x="299" y="-161" type="line"/>
      <point x="330" y="-10" type="line"/>
      <point x="472" y="-10" type="line"/>
      <point x="507" y="158" type="line"/>
      <point x="365" y="158" type="line"/>
      <point x="386" y="262" type="line"/>
      <point x="528" y="262" type="line"/>
    </contour>
  </outline>
</glyph>
<glyph name="bullet" format="1">
  <advance width="368"/>
  <unicode hex="2022"/>
  <outline>
    <contour>
      <point x="343" y="251" type="curve" smooth="yes"/>
      <point x="343" y="332"/>
      <point x="278" y="390"/>
      <point x="195" y="390" type="curve" smooth="yes"/>
      <point x="100" y="390"/>
      <point x="28" y="323"/>
      <point x="28" y="227" type="curve" smooth="yes"/>
      <point x="28" y="145"/>
      <point x="93" y="86"/>
      <point x="177" y="86" type="curve" smooth="yes"/>
      <point x="269" y="86"/>
      <point x="343" y="155"/>
    </contour>
  </outline>
</glyph>
<glyph name="minute" format="1">
  <advance width="225"/>
  <unicode hex="2032"/>
  <outline>
    <contour>
      <point x="209" y="326" type="line"/>
      <point x="276" y="582" type="line"/>
      <point x="92" y="582" type="line"/>
      <point x="54" y="326" type="line"/>
    </contour>
  </outline>
</glyph>
<glyph name="second" format="1">
  <advance width="435"/>
  <unicode hex="2033"/>
  <outline>
    <contour>
      <point x="209" y="326" type="line"/>
      <point x="276" y="582" type="line"/>
      <point x="92" y="582" type="line"/>
      <point x="54" y="326" type="line"/>
    </contour>
    <contour>
      <point x="420" y="326" type="line"/>
      <point x="487" y="582" type="line"/>
      <point x="302" y="582" type="line"/>
      <point x="265" y="326" type="line"/>
    </contour>
  </outline>
</glyph>
<glyph name="guilsinglleft" format="1">
  <advance width="335"/>
  <unicode hex="2039"/>
  <outline>
    <contour>
      <point x="288" y="61" type="line"/>
      <point x="170" y="316" type="line"/>
      <point x="155" y="157" type="line"/>
      <point x="364" y="398" type="line"/>
      <point x="166" y="398" type="line"/>
      <point x="17" y="230" type="line"/>
      <point x="98" y="61" type="line"/>
    </contour>
  </outline>
</glyph>
<glyph name="guilsinglright" format="1">
  <advance width="335"/>
  <unicode hex="203A"/>
  <outline>
    <contour>
      <point x="47" y="398" type="line"/>
      <point x="165" y="143" type="line"/>
      <point x="180" y="302" type="line"/>
      <point x="-30" y="61" type="line"/>
      <point x="168" y="61" type="line"/>
      <point x="318" y="230" type="line"/>
      <point x="237" y="398" type="line"/>
    </contour>
  </outline>
</glyph>
<glyph name="fraction" format="1">
  <advance width="172"/>
  <unicode hex="2044"/>
  <outline>
    <contour>
      <point x="-74" y="0" type="line"/>
      <point x="441" y="582" type="line"/>
      <point x="270" y="582" type="line"/>
      <point x="-245" y="0" type="line"/>
    </contour>
  </outline>
</glyph>
<glyph name="franc" format="1">
  <advance width="608"/>
  <unicode hex="20A3"/>
  <outline>
    <contour>
      <point x="464" y="38" type="line"/>
      <point x="485" y="143" type="line"/>
      <point x="7" y="143" type="line"/>
      <point x="-14" y="38" type="line"/>
    </contour>
    <contour>
      <point x="302" y="174" type="line"/>
      <point x="550" y="174" type="line"/>
      <point x="585" y="341" type="line"/>
      <point x="336" y="341" type="line"/>
    </contour>
    <contour>
      <point x="365" y="414" type="line"/>
      <point x="633" y="414" type="line"/>
      <point x="668" y="582" type="line"/>
      <point x="170" y="582" type="line"/>
      <point x="52" y="0" type="line"/>
      <point x="282" y="0" type="line"/>
    </contour>
  </outline>
</glyph>
<glyph name="lira" format="1">
  <advance width="598"/>
  <unicode hex="20A4"/>
  <outline>
    <contour>
      <point x="521" y="0" type="line"/>
      <point x="556" y="168" type="line"/>
      <point x="13" y="168" type="line"/>
      <point x="-22" y="0" type="line"/>
    </contour>
    <contour>
      <point x="284" y="18" type="line"/>
      <point x="347" y="327" type="line" smooth="yes"/>
      <point x="361" y="394"/>
      <point x="399" y="417"/>
      <point x="461" y="417" type="curve" smooth="yes"/>
      <point x="492" y="417"/>
      <point x="526" y="412"/>
      <point x="562" y="398" type="curve"/>
      <point x="653" y="562" type="line"/>
      <point x="609" y="584"/>
      <point x="550" y="597"/>
      <point x="477" y="597" type="curve" smooth="yes"/>
      <point x="298" y="597"/>
      <point x="156" y="517"/>
      <point x="116" y="322" type="curve" smooth="yes"/>
      <point x="54" y="18" type="line"/>
    </contour>
    <contour>
      <point x="482" y="181" type="line"/>
      <point x="503" y="286" type="line"/>
      <point x="36" y="286" type="line"/>
      <point x="15" y="181" type="line"/>
    </contour>
    <contour>
      <point x="506" y="296" type="line"/>
      <point x="527" y="401" type="line"/>
      <point x="60" y="401" type="line"/>
      <point x="39" y="296" type="line"/>
    </contour>
  </outline>
</glyph>
<glyph name="trademark" format="1">
  <advance width="911"/>
  <unicode hex="2122"/>
  <outline>
    <contour>
      <point x="541" y="237" type="line"/>
      <point x="571" y="392" type="line"/>
      <point x="544" y="392" type="line"/>
      <point x="611" y="264" type="line"/>
      <point x="682" y="264" type="line"/>
      <point x="785" y="392" type="line"/>
      <point x="763" y="392" type="line"/>
      <point x="735" y="237" type="line"/>
      <point x="875" y="237" type="line"/>
      <point x="943" y="582" type="line"/>
      <point x="811" y="582" type="line"/>
      <point x="633" y="370" type="line"/>
      <point x="700" y="370" type="line"/>
      <point x="595" y="582" type="line"/>
      <point x="471" y="582" type="line"/>
      <point x="400" y="237" type="line"/>
    </contour>
    <contour>
      <point x="264" y="237" type="line"/>
      <point x="312" y="475" type="line"/>
      <point x="416" y="475" type="line"/>
      <point x="438" y="582" type="line"/>
      <point x="75" y="582" type="line"/>
      <point x="53" y="475" type="line"/>
      <point x="157" y="475" type="line"/>
      <point x="109" y="237" type="line"/>
    </contour>
  </outline>
</glyph>
<glyph name="estimated" format="1">
  <advance width="704"/>
  <unicode hex="212E"/>
  <outline>
    <contour>
      <point x="628" y="111" type="curve"/>
      <point x="580" y="111" type="line"/>
      <point x="529" y="53"/>
      <point x="452" y="15"/>
      <point x="367" y="15" type="curve" smooth="yes"/>
      <point x="287" y="15"/>
      <point x="209" y="44"/>
      <point x="163" y="101" type="curve" smooth="yes"/>
      <point x="159" y="106"/>
      <point x="155" y="112"/>
      <point x="155" y="120" type="curve" smooth="yes"/>
      <point x="155" y="280" type="line"/>
      <point x="155" y="283"/>
      <point x="157" y="283"/>
      <point x="160" y="283" type="curve" smooth="yes"/>
      <point x="698" y="283" type="line"/>
      <point x="698" y="290" type="line"/>
      <point x="698" y="453"/>
      <point x="549" y="584"/>
      <point x="366" y="584" type="curve" smooth="yes"/>
      <point x="183" y="584"/>
      <point x="34" y="453"/>
      <point x="34" y="290" type="curve" smooth="yes"/>
      <point x="34" y="129"/>
      <point x="183" y="-2"/>
      <point x="366" y="-2" type="curve" smooth="yes"/>
      <point x="472" y="-2"/>
      <point x="569" y="43"/>
    </contour>
    <contour>
      <point x="155" y="304" type="curve" smooth="yes"/>
      <point x="155" y="461" type="line"/>
      <point x="155" y="470"/>
      <point x="159" y="476"/>
      <point x="164" y="481" type="curve" smooth="yes"/>
      <point x="216" y="533"/>
      <point x="287" y="567"/>
      <point x="367" y="567" type="curve" smooth="yes"/>
      <point x="445" y="567"/>
      <point x="517" y="534"/>
      <point x="568" y="484" type="curve" smooth="yes"/>
      <point x="573" y="479"/>
      <point x="577" y="472"/>
      <point x="577" y="465" type="curve" smooth="yes"/>
      <point x="577" y="304" type="line"/>
      <point x="577" y="301"/>
      <point x="575" y="299"/>
      <point x="572" y="299" type="curve" smooth="yes"/>
      <point x="160" y="299" type="line"/>
      <point x="157" y="299"/>
      <point x="155" y="301"/>
    </contour>
  </outline>
</glyph>
<glyph name="partialdiff" format="1">
  <advance width="592"/>
  <unicode hex="2202"/>
  <outline>
    <contour>
      <point x="585" y="362" type="curve" smooth="yes"/>
      <point x="585" y="532"/>
      <point x="465" y="637"/>
      <point x="282" y="637" type="curve" smooth="yes"/>
      <point x="233" y="637"/>
      <point x="184" y="632"/>
      <point x="146" y="620" type="curve"/>
      <point x="133" y="451" type="line"/>
      <point x="171" y="462"/>
      <point x="204" y="465"/>
      <point x="233" y="465" type="curve" smooth="yes"/>
      <point x="334" y="465"/>
      <point x="379" y="401"/>
      <point x="357" y="314" type="curve" smooth="yes"/>
      <point x="349" y="285"/>
      <point x="348" y="279"/>
      <point x="350" y="269" type="curve"/>
      <point x="410" y="295" type="line"/>
      <point x="379" y="354"/>
      <point x="329" y="379"/>
      <point x="252" y="379" type="curve" smooth="yes"/>
      <point x="116" y="379"/>
      <point x="15" y="288"/>
      <point x="15" y="163" type="curve" smooth="yes"/>
      <point x="15" y="60"/>
      <point x="100" y="-15"/>
      <point x="239" y="-15" type="curve" smooth="yes"/>
      <point x="449" y="-15"/>
      <point x="585" y="149"/>
    </contour>
    <contour>
      <point x="232" y="181" type="curve" smooth="yes"/>
      <point x="232" y="207"/>
      <point x="251" y="226"/>
      <point x="279" y="226" type="curve" smooth="yes"/>
      <point x="305" y="226"/>
      <point x="323" y="210"/>
      <point x="323" y="183" type="curve" smooth="yes"/>
      <point x="323" y="155"/>
      <point x="307" y="138"/>
      <point x="276" y="138" type="curve" smooth="yes"/>
      <point x="250" y="138"/>
      <point x="232" y="155"/>
    </contour>
  </outline>
</glyph>
<glyph name="emptyset" format="1">
  <advance width="533"/>
  <unicode hex="2205"/>
  <outline>
    <contour>
      <point x="536" y="479" type="line"/>
      <point x="484" y="534" type="line"/>
      <point x="19" y="112" type="line"/>
      <point x="71" y="57" type="line"/>
    </contour>
    <contour>
      <point x="509" y="296" type="curve" smooth="yes"/>
      <point x="509" y="415"/>
      <point x="407" y="511"/>
      <point x="281" y="511" type="curve" smooth="yes"/>
      <point x="155" y="511"/>
      <point x="53" y="415"/>
      <point x="53" y="296" type="curve" smooth="yes"/>
      <point x="53" y="178"/>
      <point x="155" y="81"/>
      <point x="281" y="81" type="curve" smooth="yes"/>
      <point x="407" y="81"/>
      <point x="509" y="178"/>
    </contour>
    <contour>
      <point x="195" y="296" type="curve" smooth="yes"/>
      <point x="195" y="343"/>
      <point x="233" y="381"/>
      <point x="281" y="381" type="curve" smooth="yes"/>
      <point x="328" y="381"/>
      <point x="367" y="343"/>
      <point x="367" y="296" type="curve" smooth="yes"/>
      <point x="367" y="249"/>
      <point x="328" y="211"/>
      <point x="281" y="211" type="curve" smooth="yes"/>
      <point x="233" y="211"/>
      <point x="195" y="249"/>
    </contour>
  </outline>
</glyph>
<glyph name="product" format="1">
  <advance width="678"/>
  <unicode hex="220F"/>
  <outline>
    <contour>
      <point x="188" y="-161" type="line"/>
      <point x="302" y="399" type="line"/>
      <point x="445" y="399" type="line"/>
      <point x="331" y="-161" type="line"/>
      <point x="561" y="-161" type="line"/>
      <point x="712" y="582" type="line"/>
      <point x="110" y="582" type="line"/>
      <point x="-42" y="-161" type="line"/>
    </contour>
  </outline>
</glyph>
<glyph name="summation" format="1">
  <advance width="588"/>
  <unicode hex="2211"/>
  <outline>
    <contour>
      <point x="502" y="-161" type="line"/>
      <point x="538" y="11" type="line"/>
      <point x="181" y="11" type="line"/>
      <point x="214" y="-59" type="line"/>
      <point x="446" y="142" type="line"/>
      <point x="475" y="279" type="line"/>
      <point x="319" y="483" type="line"/>
      <point x="275" y="409" type="line"/>
      <point x="608" y="409" type="line"/>
      <point x="644" y="582" type="line"/>
      <point x="110" y="582" type="line"/>
      <point x="82" y="445" type="line"/>
      <point x="314" y="137" type="line"/>
      <point x="326" y="285" type="line"/>
      <point x="-27" y="-25" type="line"/>
      <point x="-55" y="-161" type="line"/>
    </contour>
  </outline>
</glyph>
<glyph name="minus" format="1">
  <advance width="533"/>
  <unicode hex="2212"/>
  <outline>
    <contour>
      <point x="485" y="211" type="line"/>
      <point x="518" y="371" type="line"/>
      <point x="72" y="371" type="line"/>
      <point x="40" y="211" type="line"/>
    </contour>
  </outline>
</glyph>
<glyph name="radical" format="1">
  <advance width="719"/>
  <unicode hex="221A"/>
  <outline>
    <contour>
      <point x="318" y="34" type="line"/>
      <point x="360" y="34" type="line"/>
      <point x="338" y="371" type="line"/>
      <point x="72" y="371" type="line"/>
      <point x="40" y="211" type="line"/>
      <point x="152" y="211" type="line"/>
      <point x="190" y="-161" type="line"/>
      <point x="418" y="-161" type="line"/>
      <point x="817" y="617" type="line"/>
      <point x="608" y="617" type="line"/>
    </contour>
  </outline>
</glyph>
<glyph name="infinity" format="1">
  <advance width="790"/>
  <unicode hex="221E"/>
  <outline>
    <contour>
      <point x="790" y="308" type="curve" smooth="yes"/>
      <point x="790" y="416"/>
      <point x="717" y="487"/>
      <point x="604" y="487" type="curve" smooth="yes"/>
      <point x="382" y="487"/>
      <point x="346" y="238"/>
      <point x="239" y="238" type="curve" smooth="yes"/>
      <point x="209" y="238"/>
      <point x="194" y="257"/>
      <point x="194" y="288" type="curve" smooth="yes"/>
      <point x="194" y="321"/>
      <point x="219" y="344"/>
      <point x="246" y="344" type="curve" smooth="yes"/>
      <point x="356" y="344"/>
      <point x="339" y="95"/>
      <point x="570" y="95" type="curve" smooth="yes"/>
      <point x="691" y="95"/>
      <point x="790" y="183"/>
    </contour>
    <contour>
      <point x="575" y="344" type="curve" smooth="yes"/>
      <point x="606" y="344"/>
      <point x="620" y="326"/>
      <point x="620" y="294" type="curve" smooth="yes"/>
      <point x="620" y="262"/>
      <point x="597" y="238"/>
      <point x="568" y="238" type="curve" smooth="yes"/>
      <point x="459" y="238"/>
      <point x="474" y="487"/>
      <point x="243" y="487" type="curve" smooth="yes"/>
      <point x="118" y="487"/>
      <point x="25" y="395"/>
      <point x="25" y="272" type="curve" smooth="yes"/>
      <point x="25" y="166"/>
      <point x="97" y="95"/>
      <point x="209" y="95" type="curve" smooth="yes"/>
      <point x="431" y="95"/>
      <point x="468" y="344"/>
    </contour>
  </outline>
</glyph>
<glyph name="integral" format="1">
  <advance width="420"/>
  <unicode hex="222B"/>
  <outline>
    <contour>
      <point x="264" y="-49" type="curve" smooth="yes"/>
      <point x="381" y="508" type="line" smooth="yes"/>
      <point x="391" y="560"/>
      <point x="423" y="583"/>
      <point x="459" y="583" type="curve" smooth="yes"/>
      <point x="482" y="583"/>
      <point x="501" y="576"/>
      <point x="517" y="566" type="curve"/>
      <point x="603" y="718" type="line"/>
      <point x="570" y="738"/>
      <point x="515" y="748"/>
      <point x="457" y="748" type="curve" smooth="yes"/>
      <point x="287" y="748"/>
      <point x="187" y="665"/>
      <point x="155" y="511" type="curve" smooth="yes"/>
      <point x="39" y="-47" type="line" smooth="yes"/>
      <point x="28" y="-99"/>
      <point x="-4" y="-121"/>
      <point x="-40" y="-121" type="curve" smooth="yes"/>
      <point x="-63" y="-121"/>
      <point x="-82" y="-115"/>
      <point x="-97" y="-105" type="curve"/>
      <point x="-183" y="-256" type="line"/>
      <point x="-150" y="-276"/>
      <point x="-96" y="-287"/>
      <point x="-39" y="-287" type="curve" smooth="yes"/>
      <point x="141" y="-287"/>
      <point x="232" y="-204"/>
    </contour>
  </outline>
</glyph>
<glyph name="approxequal" format="1">
  <advance width="533"/>
  <unicode hex="2248"/>
  <outline>
    <contour>
      <point x="563" y="520" type="curve"/>
      <point x="430" y="520" type="line"/>
      <point x="425" y="490"/>
      <point x="409" y="473"/>
      <point x="385" y="473" type="curve" smooth="yes"/>
      <point x="352" y="473"/>
      <point x="313" y="531"/>
      <point x="237" y="531" type="curve" smooth="yes"/>
      <point x="148" y="531"/>
      <point x="69" y="459"/>
      <point x="52" y="336" type="curve"/>
      <point x="185" y="336" type="line"/>
      <point x="190" y="366"/>
      <point x="207" y="383"/>
      <point x="231" y="383" type="curve" smooth="yes"/>
      <point x="264" y="383"/>
      <point x="303" y="325"/>
      <point x="379" y="325" type="curve" smooth="yes"/>
      <point x="468" y="325"/>
      <point x="546" y="397"/>
    </contour>
    <contour>
      <point x="506" y="246" type="curve"/>
      <point x="372" y="246" type="line"/>
      <point x="367" y="216"/>
      <point x="352" y="199"/>
      <point x="328" y="199" type="curve" smooth="yes"/>
      <point x="295" y="199"/>
      <point x="256" y="257"/>
      <point x="179" y="257" type="curve" smooth="yes"/>
      <point x="91" y="257"/>
      <point x="11" y="185"/>
      <point x="-6" y="62" type="curve"/>
      <point x="128" y="62" type="line"/>
      <point x="133" y="92"/>
      <point x="149" y="109"/>
      <point x="173" y="109" type="curve" smooth="yes"/>
      <point x="206" y="109"/>
      <point x="245" y="51"/>
      <point x="322" y="51" type="curve" smooth="yes"/>
      <point x="410" y="51"/>
      <point x="489" y="123"/>
    </contour>
  </outline>
</glyph>
<glyph name="lessequal" format="1">
  <advance width="533"/>
  <unicode hex="2264"/>
  <outline>
    <contour>
      <point x="507" y="316" type="line"/>
      <point x="145" y="436" type="line"/>
      <point x="122" y="322" type="line"/>
      <point x="532" y="442" type="line"/>
      <point x="567" y="607" type="line"/>
      <point x="92" y="468" type="line"/>
      <point x="59" y="305" type="line"/>
      <point x="476" y="165" type="line"/>
    </contour>
    <contour>
      <point x="442" y="0" type="line"/>
      <point x="475" y="160" type="line"/>
      <point x="30" y="160" type="line"/>
      <point x="-3" y="0" type="line"/>
    </contour>
  </outline>
</glyph>
<glyph name="greaterequal" format="1">
  <advance width="533"/>
  <unicode hex="2265"/>
  <outline>
    <contour>
      <point x="505" y="305" type="line"/>
      <point x="538" y="468" type="line"/>
      <point x="121" y="607" type="line"/>
      <point x="90" y="457" type="line"/>
      <point x="452" y="337" type="line"/>
      <point x="475" y="451" type="line"/>
      <point x="65" y="331" type="line"/>
      <point x="30" y="165" type="line"/>
    </contour>
    <contour>
      <point x="476" y="162" type="line"/>
      <point x="-28" y="160" type="line"/>
      <point x="-4" y="-2" type="line"/>
      <point x="500" y="0" type="line"/>
    </contour>
  </outline>
</glyph>
<glyph name="lozenge" format="1">
  <advance width="417"/>
  <unicode hex="25CA"/>
  <outline>
    <contour>
      <point x="404" y="274" type="line"/>
      <point x="209" y="559" type="line"/>
      <point x="13" y="274" type="line"/>
      <point x="207" y="-13" type="line"/>
    </contour>
    <contour>
      <point x="151" y="274" type="line"/>
      <point x="208" y="360" type="line"/>
      <point x="266" y="274" type="line"/>
      <point x="208" y="187" type="line"/>
    </contour>
  </outline>
</glyph>
<glyph name="A.ss01" format="1">
  <advance width="668"/>
  <outline>
    <contour>
      <point x="211" y="0" type="line"/>
      <point x="277" y="323" type="line" smooth="yes"/>
      <point x="291" y="391"/>
      <point x="322" y="417"/>
      <point x="366" y="417" type="curve" smooth="yes"/>
      <point x="414" y="417"/>
      <point x="437" y="386"/>
      <point x="423" y="314" type="curve" smooth="yes"/>
      <point x="359" y="0" type="line"/>
      <point x="589" y="0" type="line"/>
      <point x="650" y="298" type="line" smooth="yes"/>
      <point x="688" y="484"/>
      <point x="578" y="597"/>
      <point x="390" y="597" type="curve" smooth="yes"/>
      <point x="210" y="597"/>
      <point x="88" y="502"/>
      <point x="52" y="327" type="curve" smooth="yes"/>
      <point x="-15" y="0" type="line"/>
    </contour>
    <contour>
      <point x="461" y="106" type="line"/>
      <point x="496" y="274" type="line"/>
      <point x="186" y="274" type="line"/>
      <point x="151" y="106" type="line"/>
    </contour>
    <contour>
      <point x="589" y="0" type="move" name="ogonek"/>
    </contour>
    <contour>
      <point x="406" y="582" type="move" name="top"/>
    </contour>
    <contour>
      <point x="109" y="582" type="move" name="topleft"/>
    </contour>
    <contour>
      <point x="287" y="0" type="move" name="bottom"/>
    </contour>
  </outline>
</glyph>
<glyph name="Adieresis.alt" format="1">
  <advance width="698"/>
  <outline>
    <contour>
      <point x="175" y="0" type="line"/>
      <point x="446" y="480" type="line"/>
      <point x="357" y="480" type="line"/>
      <point x="443" y="0" type="line"/>
      <point x="672" y="0" type="line"/>
      <point x="534" y="582" type="line"/>
      <point x="308" y="582" type="line"/>
      <point x="-67" y="0" type="line"/>
    </contour>
    <contour>
      <point x="487" y="93" type="line"/>
      <point x="462" y="253" type="line"/>
      <point x="208" y="253" type="line"/>
      <point x="117" y="93" type="line"/>
    </contour>
    <contour>
      <point x="222" y="511" type="curve" smooth="yes"/>
      <point x="222" y="551"/>
      <point x="191" y="581"/>
      <point x="142" y="581" type="curve" smooth="yes"/>
      <point x="90" y="581"/>
      <point x="48" y="546"/>
      <point x="48" y="490" type="curve" smooth="yes"/>
      <point x="48" y="449"/>
      <point x="80" y="419"/>
      <point x="128" y="419" type="curve" smooth="yes"/>
      <point x="181" y="419"/>
      <point x="222" y="455"/>
    </contour>
    <contour>
      <point x="759" y="511" type="curve" smooth="yes"/>
      <point x="759" y="551"/>
      <point x="728" y="581"/>
      <point x="679" y="581" type="curve" smooth="yes"/>
      <point x="627" y="581"/>
      <point x="585" y="546"/>
      <point x="585" y="490" type="curve" smooth="yes"/>
      <point x="585" y="449"/>
      <point x="617" y="419"/>
      <point x="665" y="419" type="curve" smooth="yes"/>
      <point x="718" y="419"/>
      <point x="759" y="455"/>
    </contour>
  </outline>
</glyph>
<glyph name="E.ss01" format="1">
  <advance width="599"/>
  <outline>
    <contour>
      <point x="564" y="35" type="curve"/>
      <point x="517" y="193" type="line"/>
      <point x="467" y="170"/>
      <point x="401" y="155"/>
      <point x="338" y="155" type="curve" smooth="yes"/>
      <point x="264" y="155"/>
      <point x="239" y="166"/>
      <point x="239" y="185" type="curve" smooth="yes"/>
      <point x="239" y="203"/>
      <point x="258" y="211"/>
      <point x="280" y="211" type="curve" smooth="yes"/>
      <point x="485" y="211" type="line"/>
      <point x="519" y="375" type="line"/>
      <point x="353" y="375" type="line" smooth="yes"/>
      <point x="319" y="375"/>
      <point x="306" y="381"/>
      <point x="306" y="392" type="curve" smooth="yes"/>
      <point x="306" y="413"/>
      <point x="330" y="427"/>
      <point x="394" y="427" type="curve" smooth="yes"/>
      <point x="442" y="427"/>
      <point x="507" y="421"/>
      <point x="564" y="398" type="curve"/>
      <point x="636" y="557" type="line"/>
      <point x="586" y="581"/>
      <point x="505" y="597"/>
      <point x="410" y="597" type="curve" smooth="yes"/>
      <point x="207" y="597"/>
      <point x="76" y="515"/>
      <point x="76" y="389" type="curve" smooth="yes"/>
      <point x="76" y="332"/>
      <point x="122" y="277"/>
      <point x="229" y="277" type="curve"/>
      <point x="234" y="325" type="line"/>
      <point x="103" y="325"/>
      <point x="3" y="262"/>
      <point x="3" y="152" type="curve" smooth="yes"/>
      <point x="3" y="47"/>
      <point x="113" y="-15"/>
      <point x="301" y="-15" type="curve" smooth="yes"/>
      <point x="396" y="-15"/>
      <point x="497" y="5"/>
    </contour>
    <contour>
      <point x="510" y="0" type="move" name="ogonek"/>
    </contour>
    <contour>
      <point x="394" y="582" type="move" name="top"/>
    </contour>
    <contour>
      <point x="59" y="582" type="move" name="topleft"/>
    </contour>
    <contour>
      <point x="276" y="0" type="move" name="bottom"/>
    </contour>
  </outline>
</glyph>
<glyph name="Eng.ss01" format="1">
  <advance width="671"/>
  <outline>
    <contour>
      <point x="281" y="490" type="curve"/>
      <point x="304" y="447" type="line"/>
      <point x="332" y="582" type="line"/>
      <point x="109" y="582" type="line"/>
      <point x="-9" y="0" type="line"/>
      <point x="221" y="0" type="line"/>
      <point x="286" y="320" type="line" smooth="yes"/>
      <point x="300" y="393"/>
      <point x="337" y="417"/>
      <point x="376" y="417" type="curve" smooth="yes"/>
      <point x="420" y="417"/>
      <point x="439" y="385"/>
      <point x="427" y="321" type="curve" smooth="yes"/>
      <point x="374" y="64" type="line" smooth="yes"/>
      <point x="365" y="17"/>
      <point x="347" y="3"/>
      <point x="315" y="3" type="curve" smooth="yes"/>
      <point x="298" y="3"/>
      <point x="280" y="7"/>
      <point x="261" y="16" type="curve"/>
      <point x="144" y="-129" type="line"/>
      <point x="190" y="-156"/>
      <point x="247" y="-170"/>
      <point x="311" y="-170" type="curve" smooth="yes"/>
      <point x="462" y="-170"/>
      <point x="568" y="-118"/>
      <point x="611" y="96" type="curve" smooth="yes"/>
      <point x="658" y="326" type="line" smooth="yes"/>
      <point x="692" y="493"/>
      <point x="623" y="597"/>
      <point x="472" y="597" type="curve" smooth="yes"/>
      <point x="397" y="597"/>
      <point x="327" y="560"/>
    </contour>
  </outline>
</glyph>
<glyph name="F.ss01" format="1">
  <advance width="533"/>
  <outline>
    <contour>
      <point x="215" y="0" type="line"/>
      <point x="284" y="337" type="line" smooth="yes"/>
      <point x="295" y="392"/>
      <point x="337" y="417"/>
      <point x="399" y="417" type="curve" smooth="yes"/>
      <point x="428" y="417"/>
      <point x="467" y="410"/>
      <point x="494" y="395" type="curve"/>
      <point x="592" y="559" type="line"/>
      <point x="547" y="583"/>
      <point x="471" y="597"/>
      <point x="410" y="597" type="curve" smooth="yes"/>
      <point x="205" y="597"/>
      <point x="88" y="506"/>
      <point x="53" y="332" type="curve" smooth="yes"/>
      <point x="-15" y="0" type="line"/>
    </contour>
    <contour>
      <point x="443" y="174" type="line"/>
      <point x="478" y="341" type="line"/>
      <point x="195" y="341" type="line"/>
      <point x="160" y="174" type="line"/>
    </contour>
  </outline>
</glyph>
<glyph name="G.ss01" format="1">
  <advance width="650"/>
  <outline>
    <contour>
      <point x="395" y="-15"/>
      <point x="465" y="28"/>
      <point x="536" y="162" type="curve"/>
      <point x="454" y="209" type="line"/>
      <point x="426" y="183"/>
      <point x="395" y="161"/>
      <point x="352" y="161" type="curve" smooth="yes"/>
      <point x="297" y="161"/>
      <point x="262" y="200"/>
      <point x="262" y="263" type="curve" smooth="yes"/>
      <point x="262" y="356"/>
      <point x="318" y="417"/>
      <point x="405" y="417" type="curve" smooth="yes"/>
      <point x="455" y="417"/>
      <point x="493" y="402"/>
      <point x="530" y="353" type="curve"/>
      <point x="695" y="477" type="line"/>
      <point x="637" y="556"/>
      <point x="536" y="597"/>
      <point x="415" y="597" type="curve" smooth="yes"/>
      <point x="189" y="597"/>
      <point x="30" y="456"/>
      <point x="30" y="246" type="curve" smooth="yes"/>
      <point x="30" y="83"/>
      <point x="155" y="-15"/>
      <point x="288" y="-15" type="curve" smooth="yes"/>
    </contour>
    <contour>
      <point x="575" y="0" type="line"/>
      <point x="639" y="310" type="line"/>
      <point x="439" y="310" type="line"/>
      <point x="396" y="100" type="line"/>
      <point x="444" y="77" type="line"/>
      <point x="428" y="0" type="line"/>
    </contour>
    <contour>
      <point x="433" y="583" type="move" name="top"/>
    </contour>
    <contour>
      <point x="302" y="3" type="move" name="bottom"/>
    </contour>
  </outline>
</glyph>
<glyph name="Germandbls" format="1">
  <advance width="683"/>
  <outline>
    <contour>
      <point x="554" y="-15"/>
      <point x="656" y="77"/>
      <point x="656" y="196" type="curve" smooth="yes"/>
      <point x="656" y="295"/>
      <point x="569" y="365"/>
      <point x="456" y="365" type="curve" smooth="yes"/>
      <point x="441" y="365"/>
      <point x="420" y="363"/>
      <point x="402" y="359" type="curve"/>
      <point x="473" y="251" type="line"/>
      <point x="640" y="417" type="line"/>
      <point x="666" y="544" type="line"/>
      <point x="604" y="578"/>
      <point x="502" y="597"/>
      <point x="430" y="597" type="curve" smooth="yes"/>
      <point x="212" y="597"/>
      <point x="90" y="511"/>
      <point x="51" y="324" type="curve" smooth="yes"/>
      <point x="-14" y="0" type="line"/>
      <point x="216" y="0" type="line"/>
      <point x="280" y="317" type="line" smooth="yes"/>
      <point x="295" y="394"/>
      <point x="337" y="428"/>
      <point x="411" y="428" type="curve" smooth="yes"/>
      <point x="456" y="428"/>
      <point x="495" y="412"/>
      <point x="535" y="389" type="curve"/>
      <point x="549" y="529" type="line"/>
      <point x="315" y="302" type="line"/>
      <point x="335" y="213" type="line"/>
      <point x="349" y="217"/>
      <point x="364" y="220"/>
      <point x="378" y="220" type="curve" smooth="yes"/>
      <point x="408" y="220"/>
      <point x="424" y="206"/>
      <point x="424" y="186" type="curve" smooth="yes"/>
      <point x="424" y="168"/>
      <point x="408" y="155"/>
      <point x="380" y="155" type="curve" smooth="yes"/>
      <point x="346" y="155"/>
      <point x="318" y="161"/>
      <point x="303" y="166" type="curve"/>
      <point x="248" y="6" type="line"/>
      <point x="279" y="-6"/>
      <point x="340" y="-15"/>
      <point x="391" y="-15" type="curve" smooth="yes"/>
    </contour>
  </outline>
</glyph>
<glyph name="I.ss01" format="1">
  <advance width="450"/>
  <outline>
    <contour>
      <point x="297" y="18" type="line"/>
      <point x="408" y="565" type="line"/>
      <point x="178" y="565" type="line"/>
      <point x="67" y="18" type="line"/>
    </contour>
    <contour>
      <point x="375" y="0" type="line"/>
      <point x="410" y="168" type="line"/>
      <point x="16" y="168" type="line"/>
      <point x="-19" y="0" type="line"/>
    </contour>
    <contour>
      <point x="458" y="414" type="line"/>
      <point x="493" y="582" type="line"/>
      <point x="99" y="582" type="line"/>
      <point x="64" y="414" type="line"/>
    </contour>
    <contour>
      <point x="293" y="0" type="move" name="ogonek"/>
    </contour>
    <contour>
      <point x="296" y="582" type="move" name="top"/>
    </contour>
    <contour>
      <point x="51" y="582" type="move" name="topleft"/>
    </contour>
    <contour>
      <point x="178" y="0" type="move" name="bottom"/>
    </contour>
  </outline>
</glyph>
<glyph name="IJ.ss01" format="1">
  <advance width="619"/>
  <outline>
    <contour>
      <point x="421" y="-92"/>
      <point x="538" y="-7"/>
      <point x="576" y="178" type="curve" smooth="yes"/>
      <point x="658" y="582" type="line"/>
      <point x="428" y="582" type="line"/>
      <point x="347" y="184" type="line" smooth="yes"/>
      <point x="333" y="109"/>
      <point x="306" y="85"/>
      <point x="246" y="85" type="curve" smooth="yes"/>
      <point x="191" y="85"/>
      <point x="132" y="103"/>
      <point x="75" y="140" type="curve"/>
      <point x="-35" y="-19" type="line"/>
      <point x="31" y="-64"/>
      <point x="117" y="-92"/>
      <point x="236" y="-92" type="curve" smooth="yes"/>
    </contour>
    <contour>
      <point x="257" y="202" type="line"/>
      <point x="334" y="582" type="line"/>
      <point x="104" y="582" type="line"/>
      <point x="27" y="202" type="line"/>
    </contour>
    <contour>
      <point x="215" y="582" type="move" name="top"/>
    </contour>
  </outline>
</glyph>
<glyph name="Iacute_J.loclNLD" format="1">
  <advance width="619"/>
  <outline>
    <contour>
      <point x="591" y="255" type="curve" smooth="yes"/>
      <point x="658" y="582" type="line"/>
      <point x="428" y="582" type="line"/>
      <point x="363" y="262" type="line" smooth="yes"/>
      <point x="349" y="189"/>
      <point x="322" y="162"/>
      <point x="262" y="162" type="curve" smooth="yes"/>
      <point x="207" y="162"/>
      <point x="148" y="180"/>
      <point x="91" y="218" type="curve"/>
      <point x="-19" y="58" type="line"/>
      <point x="47" y="13"/>
      <point x="133" y="-15"/>
      <point x="252" y="-15" type="curve" smooth="yes"/>
      <point x="437" y="-15"/>
      <point x="554" y="72"/>
    </contour>
    <contour>
      <point x="273" y="285" type="line"/>
      <point x="334" y="582" type="line"/>
      <point x="104" y="582" type="line"/>
      <point x="43" y="285" type="line"/>
    </contour>
    <contour>
      <point x="271" y="629" type="line"/>
      <point x="472" y="768" type="line"/>
      <point x="266" y="768" type="line"/>
      <point x="127" y="629" type="line"/>
    </contour>
    <contour>
      <point x="593" y="629" type="line"/>
      <point x="795" y="768" type="line"/>
      <point x="588" y="768" type="line"/>
      <point x="449" y="629" type="line"/>
    </contour>
  </outline>
</glyph>
<glyph name="Iacute_J.loclNLD.ss01" format="1">
  <advance width="619"/>
  <outline>
    <contour>
      <point x="576" y="178" type="curve" smooth="yes"/>
      <point x="658" y="582" type="line"/>
      <point x="428" y="582" type="line"/>
      <point x="347" y="184" type="line" smooth="yes"/>
      <point x="333" y="109"/>
      <point x="306" y="85"/>
      <point x="246" y="85" type="curve" smooth="yes"/>
      <point x="191" y="85"/>
      <point x="132" y="103"/>
      <point x="75" y="140" type="curve"/>
      <point x="-35" y="-19" type="line"/>
      <point x="31" y="-64"/>
      <point x="117" y="-92"/>
      <point x="236" y="-92" type="curve" smooth="yes"/>
      <point x="421" y="-92"/>
      <point x="538" y="-7"/>
    </contour>
    <contour>
      <point x="257" y="202" type="line"/>
      <point x="334" y="582" type="line"/>
      <point x="104" y="582" type="line"/>
      <point x="27" y="202" type="line"/>
    </contour>
    <contour>
      <point x="271" y="629" type="line"/>
      <point x="472" y="768" type="line"/>
      <point x="266" y="768" type="line"/>
      <point x="127" y="629" type="line"/>
    </contour>
    <contour>
      <point x="593" y="629" type="line"/>
      <point x="795" y="768" type="line"/>
      <point x="588" y="768" type="line"/>
      <point x="449" y="629" type="line"/>
    </contour>
  </outline>
</glyph>
<glyph name="J.ss01" format="1">
  <advance width="499"/>
  <outline>
    <contour>
      <point x="318" y="-98"/>
      <point x="413" y="-33"/>
      <point x="449" y="142" type="curve" smooth="yes"/>
      <point x="538" y="582" type="line"/>
      <point x="113" y="582" type="line"/>
      <point x="78" y="414" type="line"/>
      <point x="276" y="414" type="line"/>
      <point x="219" y="127" type="line" smooth="yes"/>
      <point x="213" y="97"/>
      <point x="192" y="76"/>
      <point x="161" y="76" type="curve" smooth="yes"/>
      <point x="130" y="76"/>
      <point x="104" y="93"/>
      <point x="77" y="128" type="curve"/>
      <point x="-70" y="-7" type="line"/>
      <point x="-22" y="-69"/>
      <point x="52" y="-98"/>
      <point x="157" y="-98" type="curve" smooth="yes"/>
    </contour>
    <contour>
      <point x="326" y="582" type="move" name="top"/>
    </contour>
  </outline>
</glyph>
<glyph name="M.ss01" format="1">
  <advance width="983"/>
  <outline>
    <contour>
      <point x="221" y="0" type="line"/>
      <point x="289" y="336" type="line" smooth="yes"/>
      <point x="301" y="398"/>
      <point x="328" y="417"/>
      <point x="361" y="417" type="curve" smooth="yes"/>
      <point x="392" y="417"/>
      <point x="413" y="397"/>
      <point x="403" y="345" type="curve" smooth="yes"/>
      <point x="332" y="0" type="line"/>
      <point x="562" y="0" type="line"/>
      <point x="631" y="339" type="line" smooth="yes"/>
      <point x="643" y="399"/>
      <point x="670" y="417"/>
      <point x="703" y="417" type="curve" smooth="yes"/>
      <point x="734" y="417"/>
      <point x="754" y="397"/>
      <point x="744" y="345" type="curve" smooth="yes"/>
      <point x="674" y="0" type="line"/>
      <point x="904" y="0" type="line"/>
      <point x="973" y="342" type="line" smooth="yes"/>
      <point x="1008" y="511"/>
      <point x="933" y="597"/>
      <point x="799" y="597" type="curve" smooth="yes"/>
      <point x="704" y="597"/>
      <point x="624" y="552"/>
      <point x="581" y="475" type="curve"/>
      <point x="639" y="463" type="line"/>
      <point x="627" y="551"/>
      <point x="565" y="597"/>
      <point x="475" y="597" type="curve" smooth="yes"/>
      <point x="386" y="597"/>
      <point x="326" y="559"/>
      <point x="284" y="482" type="curve"/>
      <point x="302" y="446" type="line"/>
      <point x="330" y="582" type="line"/>
      <point x="109" y="582" type="line"/>
      <point x="-9" y="0" type="line"/>
    </contour>
    <contour>
      <point x="566" y="582" type="move" name="top"/>
    </contour>
    <contour>
      <point x="447" y="0" type="move" name="bottom"/>
    </contour>
  </outline>
</glyph>
<glyph name="N.ss01" format="1">
  <advance width="671"/>
  <outline>
    <contour>
      <point x="281" y="490" type="curve"/>
      <point x="304" y="447" type="line"/>
      <point x="332" y="582" type="line"/>
      <point x="109" y="582" type="line"/>
      <point x="-9" y="0" type="line"/>
      <point x="221" y="0" type="line"/>
      <point x="286" y="320" type="line" smooth="yes"/>
      <point x="300" y="393"/>
      <point x="337" y="417"/>
      <point x="376" y="417" type="curve" smooth="yes"/>
      <point x="420" y="417"/>
      <point x="440" y="385"/>
      <point x="427" y="321" type="curve" smooth="yes"/>
      <point x="361" y="0" type="line"/>
      <point x="591" y="0" type="line"/>
      <point x="658" y="326" type="line" smooth="yes"/>
      <point x="692" y="493"/>
      <point x="623" y="597"/>
      <point x="472" y="597" type="curve" smooth="yes"/>
      <point x="397" y="597"/>
      <point x="327" y="560"/>
    </contour>
    <contour>
      <point x="409" y="582" type="move" name="top"/>
    </contour>
    <contour>
      <point x="291" y="0" type="move" name="bottom"/>
    </contour>
  </outline>
</glyph>
<glyph name="Oogonek" format="1">
  <advance width="719"/>
  <outline>
    <contour>
      <point x="412" y="-184" type="curve"/>
      <point x="404" y="-97" type="line"/>
      <point x="391" y="-102"/>
      <point x="373" y="-108"/>
      <point x="355" y="-108" type="curve" smooth="yes"/>
      <point x="332" y="-108"/>
      <point x="317" y="-95"/>
      <point x="317" y="-75" type="curve" smooth="yes"/>
      <point x="317" y="-53"/>
      <point x="333" y="-23"/>
      <point x="414" y="-9" type="curve" smooth="yes"/>
      <point x="591" y="22"/>
      <point x="713" y="150"/>
      <point x="713" y="333" type="curve" smooth="yes"/>
      <point x="713" y="488"/>
      <point x="593" y="597"/>
      <point x="407" y="597" type="curve" smooth="yes"/>
      <point x="190" y="597"/>
      <point x="30" y="457"/>
      <point x="30" y="249" type="curve" smooth="yes"/>
      <point x="30" y="94"/>
      <point x="150" y="-15"/>
      <point x="336" y="-15" type="curve"/>
      <point x="309" y="28" type="line"/>
      <point x="240" y="1"/>
      <point x="183" y="-45"/>
      <point x="183" y="-108" type="curve" smooth="yes"/>
      <point x="183" y="-168"/>
      <point x="236" y="-203"/>
      <point x="317" y="-203" type="curve" smooth="yes"/>
      <point x="355" y="-203"/>
      <point x="388" y="-194"/>
    </contour>
    <contour>
      <point x="262" y="262" type="curve" smooth="yes"/>
      <point x="262" y="345"/>
      <point x="307" y="417"/>
      <point x="388" y="417" type="curve" smooth="yes"/>
      <point x="445" y="417"/>
      <point x="481" y="377"/>
      <point x="481" y="319" type="curve" smooth="yes"/>
      <point x="481" y="237"/>
      <point x="437" y="165"/>
      <point x="356" y="165" type="curve" smooth="yes"/>
      <point x="299" y="165"/>
      <point x="262" y="204"/>
    </contour>
    <contour>
      <point x="431" y="582" type="move" name="top"/>
    </contour>
  </outline>
</glyph>
<glyph name="Q.ss01" format="1">
  <advance width="719"/>
  <outline>
    <contour>
      <point x="554" y="-15"/>
      <point x="713" y="125"/>
      <point x="713" y="333" type="curve" smooth="yes"/>
      <point x="713" y="488"/>
      <point x="593" y="597"/>
      <point x="407" y="597" type="curve" smooth="yes"/>
      <point x="190" y="597"/>
      <point x="30" y="457"/>
      <point x="30" y="249" type="curve" smooth="yes"/>
      <point x="30" y="94"/>
      <point x="150" y="-15"/>
      <point x="336" y="-15" type="curve" smooth="yes"/>
    </contour>
    <contour>
      <point x="405" y="-112" type="line"/>
      <point x="433" y="24" type="line"/>
      <point x="435" y="87" type="line"/>
      <point x="474" y="275" type="line"/>
      <point x="263" y="275" type="line"/>
      <point x="224" y="87" type="line"/>
      <point x="203" y="24" type="line"/>
      <point x="175" y="-112" type="line"/>
    </contour>
    <contour>
      <point x="299" y="165"/>
      <point x="262" y="204"/>
      <point x="262" y="262" type="curve" smooth="yes"/>
      <point x="262" y="345"/>
      <point x="307" y="417"/>
      <point x="388" y="417" type="curve" smooth="yes"/>
      <point x="445" y="417"/>
      <point x="481" y="377"/>
      <point x="481" y="319" type="curve" smooth="yes"/>
      <point x="481" y="237"/>
      <point x="437" y="165"/>
      <point x="356" y="165" type="curve" smooth="yes"/>
    </contour>
    <contour>
      <point x="432" y="582" type="move" name="top"/>
    </contour>
  </outline>
</glyph>
<glyph name="Saltillo" format="1">
  <advance width="308"/>
  <outline>
    <contour>
      <point x="240" y="246" type="line"/>
      <point x="339" y="583" type="line"/>
      <point x="113" y="583" type="line"/>
      <point x="44" y="246" type="line"/>
    </contour>
  </outline>
</glyph>
<glyph name="Schwa" format="1">
  <advance width="692"/>
  <outline>
    <contour>
      <point x="683" y="323" type="curve" smooth="yes"/>
      <point x="683" y="488"/>
      <point x="554" y="597"/>
      <point x="367" y="597" type="curve" smooth="yes"/>
      <point x="265" y="597"/>
      <point x="165" y="565"/>
      <point x="86" y="500" type="curve"/>
      <point x="192" y="356" type="line"/>
      <point x="241" y="397"/>
      <point x="295" y="417"/>
      <point x="350" y="417" type="curve" smooth="yes"/>
      <point x="411" y="417"/>
      <point x="452" y="381"/>
      <point x="452" y="321" type="curve" smooth="yes"/>
      <point x="452" y="279"/>
      <point x="449" y="148"/>
      <point x="341" y="148" type="curve" smooth="yes"/>
      <point x="275" y="148"/>
      <point x="254" y="188"/>
      <point x="254" y="222" type="curve" smooth="yes"/>
      <point x="254" y="234"/>
      <point x="255" y="244"/>
      <point x="258" y="255" type="curve"/>
      <point x="175" y="214" type="line"/>
      <point x="461" y="214" type="line"/>
      <point x="486" y="335" type="line"/>
      <point x="42" y="335" type="line"/>
      <point x="32" y="298"/>
      <point x="28" y="263"/>
      <point x="28" y="237" type="curve" smooth="yes"/>
      <point x="28" y="90"/>
      <point x="152" y="-15"/>
      <point x="335" y="-15" type="curve" smooth="yes"/>
      <point x="527" y="-15"/>
      <point x="683" y="108"/>
    </contour>
    <contour>
      <point x="418" y="582" type="move" name="top"/>
    </contour>
    <contour>
      <point x="299" y="0" type="move" name="bottom"/>
    </contour>
  </outline>
</glyph>
<glyph name="Schwa.ss01" format="1">
  <advance width="692"/>
  <outline>
    <contour>
      <point x="527" y="-15"/>
      <point x="683" y="108"/>
      <point x="683" y="323" type="curve" smooth="yes"/>
      <point x="683" y="488"/>
      <point x="554" y="597"/>
      <point x="367" y="597" type="curve" smooth="yes"/>
      <point x="264" y="597"/>
      <point x="164" y="565"/>
      <point x="86" y="500" type="curve"/>
      <point x="192" y="356" type="line"/>
      <point x="241" y="397"/>
      <point x="295" y="417"/>
      <point x="350" y="417" type="curve" smooth="yes"/>
      <point x="411" y="417"/>
      <point x="452" y="381"/>
      <point x="452" y="321" type="curve" smooth="yes"/>
      <point x="452" y="279"/>
      <point x="449" y="148"/>
      <point x="341" y="148" type="curve" smooth="yes"/>
      <point x="265" y="148"/>
      <point x="229" y="202"/>
      <point x="258" y="274" type="curve"/>
      <point x="157" y="142" type="line"/>
      <point x="500" y="271" type="line"/>
      <point x="478" y="391" type="line"/>
      <point x="18" y="223" type="line"/>
      <point x="29" y="77"/>
      <point x="159" y="-15"/>
      <point x="335" y="-15" type="curve" smooth="yes"/>
    </contour>
    <contour>
      <point x="418" y="582" type="move" name="top"/>
    </contour>
    <contour>
      <point x="299" y="0" type="move" name="bottom"/>
    </contour>
  </outline>
</glyph>
<glyph name="T.ss01" format="1">
  <advance width="598"/>
  <outline>
    <contour>
      <point x="319" y="420" type="curve" smooth="yes"/>
      <point x="419" y="420"/>
      <point x="491" y="399"/>
      <point x="571" y="357" type="curve"/>
      <point x="669" y="517" type="line"/>
      <point x="588" y="567"/>
      <point x="474" y="597"/>
      <point x="355" y="597" type="curve" smooth="yes"/>
      <point x="243" y="597"/>
      <point x="115" y="571"/>
      <point x="32" y="521" type="curve"/>
      <point x="88" y="361" type="line"/>
      <point x="157" y="400"/>
      <point x="236" y="420"/>
    </contour>
    <contour>
      <point x="367" y="0" type="line"/>
      <point x="467" y="493" type="line"/>
      <point x="237" y="493" type="line"/>
      <point x="137" y="0" type="line"/>
    </contour>
    <contour>
      <point x="375" y="583" type="move" name="top"/>
    </contour>
    <contour>
      <point x="300" y="243" type="move" name="center"/>
    </contour>
    <contour>
      <point x="252" y="0" type="move" name="bottom"/>
    </contour>
  </outline>
</glyph>
<glyph name="T_h" format="1">
  <advance width="1113"/>
  <outline>
    <contour>
      <point x="352" y="0" type="line"/>
      <point x="435" y="409" type="line"/>
      <point x="592" y="409" type="line"/>
      <point x="628" y="582" type="line"/>
      <point x="75" y="582" type="line"/>
      <point x="39" y="409" type="line"/>
      <point x="205" y="409" type="line"/>
      <point x="122" y="0" type="line"/>
    </contour>
    <contour>
      <point x="752" y="371" type="curve"/>
      <point x="789" y="333" type="line"/>
      <point x="839" y="582" type="line"/>
      <point x="619" y="582" type="line"/>
      <point x="501" y="0" type="line"/>
      <point x="721" y="0" type="line"/>
      <point x="765" y="216" type="line" smooth="yes"/>
      <point x="775" y="266"/>
      <point x="798" y="288"/>
      <point x="830" y="288" type="curve" smooth="yes"/>
      <point x="852" y="288"/>
      <point x="869" y="270"/>
      <point x="860" y="225" type="curve" smooth="yes"/>
      <point x="814" y="0" type="line"/>
      <point x="1034" y="0" type="line"/>
      <point x="1087" y="260" type="line" smooth="yes"/>
      <point x="1115" y="397"/>
      <point x="1041" y="467"/>
      <point x="933" y="467" type="curve" smooth="yes"/>
      <point x="864" y="467"/>
      <point x="796" y="438"/>
    </contour>
  </outline>
</glyph>
<glyph name="U.ss01" format="1">
  <advance width="671"/>
  <outline>
    <contour>
      <point x="298" y="-15"/>
      <point x="368" y="22"/>
      <point x="414" y="92" type="curve"/>
      <point x="391" y="135" type="line"/>
      <point x="363" y="0" type="line"/>
      <point x="586" y="0" type="line"/>
      <point x="705" y="582" type="line"/>
      <point x="475" y="582" type="line"/>
      <point x="410" y="262" type="line" smooth="yes"/>
      <point x="395" y="189"/>
      <point x="359" y="165"/>
      <point x="320" y="165" type="curve" smooth="yes"/>
      <point x="275" y="165"/>
      <point x="256" y="197"/>
      <point x="269" y="261" type="curve" smooth="yes"/>
      <point x="334" y="582" type="line"/>
      <point x="104" y="582" type="line"/>
      <point x="38" y="255" type="line" smooth="yes"/>
      <point x="3" y="88"/>
      <point x="72" y="-15"/>
      <point x="223" y="-15" type="curve" smooth="yes"/>
    </contour>
    <contour>
      <point x="586" y="0" type="move" name="ogonek"/>
    </contour>
    <contour>
      <point x="404" y="582" type="move" name="top"/>
    </contour>
    <contour>
      <point x="602" y="582" type="move" name="topright"/>
    </contour>
    <contour>
      <point x="286" y="0" type="move" name="bottom"/>
    </contour>
  </outline>
</glyph>
